<svg xmlns="http://www.w3.org/2000/svg" xmlns:xlink="http://www.w3.org/1999/xlink" version="1.1" x="0px" y="0px" viewBox="0 0 95 95" style="enable-background:new 0 0 95 95;" xml:space="preserve"><path d="M0.3,45.2C0.3,40.8,1,36.9,2.1,33c0.8-2.7,2.2-5.1,3.5-7.6c1-2,2.4-3.8,3.8-5.5c2.4-2.9,5.1-5.6,8.2-7.9  c1.9-1.4,3.8-2.9,5.7-4.3c1.2-0.9,2.5-1.6,3.9-2.2c0.2-0.1,0.4-0.2,0.6-0.4c2.3-1.6,5-2.4,7.7-3.5c0.6-0.2,1.1-0.4,1.7-0.6  c1.3-0.5,2.7-0.7,4-0.7C43.4,0.2,45.7,0,48-0.2c1.5-0.1,3,0,4.5,0.2c2.5,0.3,5,0.7,7.5,1.4c1,0.3,2,0.4,3,0.6  c0.7,0.2,1.1,0.7,1.8,0.9c2.3,0.9,4.6,2,6.8,3c1.5,0.7,2.8,1.4,4.2,2.3c0.9,0.6,1.9,1.2,2.8,1.8c0.8,0.4,1.5,1,2.1,1.6  c0.7,0.7,1.3,1.4,2.1,2c1.2,1,2.2,2.4,3.2,3.6c0.2,0.3,0.4,0.7,0.9,0.8c0.2,0,0.3,0.2,0.4,0.4c0.1,1.4,1.2,2.5,1.8,3.7  c0.8,1.6,1.6,3.2,2.3,4.9c0.5,1.2,1.1,2.4,1.5,3.7c0.6,1.8,1.1,3.6,1.4,5.4c0.2,1.1,0.4,2.2,0.5,3.3c0.1,1.2,0.3,2.4,0.2,3.6  c-0.1,1.2-0.1,2.4-0.1,3.6c0,2.4-0.6,4.8-0.6,7.2c0,1.5-0.3,3-0.6,4.5c-0.3,1.3-0.7,2.6-1.2,3.9c-1,2.6-2.3,4.9-3.8,7.3  c-0.8,1.3-1.7,2.4-2.4,3.7c-0.6,1.1-1.8,1.9-2.5,2.9c-1.4,1.9-3,3.4-4.7,5c-1.1,1.1-2.1,2.2-3.3,3.1c-0.5,0.4-0.6,1-1,1.4  c-3.2,3-6.9,5.1-11.2,6.2c-2.1,0.5-4.3,1.2-6.4,1.8c-2.3,0.6-4.6,0.9-7,1.3c-1.6,0.3-3.1,0.1-4.7,0.1c-1.6,0-3.2-0.1-4.8-0.3  c-3-0.4-5.8-1.2-8.7-2.1c-2.2-0.7-4.2-1.6-6.3-2.4c-0.3-0.1-0.5-0.3-0.7-0.4c-2.7-1.6-5.3-3.3-7.8-5.3c-1.7-1.4-3-3-4.4-4.7  c-0.5-0.6-1.1-1.3-1.7-1.9c-1.2-1.2-1.8-2.7-2.5-4.2c-1.3-2.8-2.6-5.6-3.7-8.5c-1-2.6-2-5.2-2.9-7.9c-0.5-1.6-0.8-3.2-0.8-4.9  c0-1.1-0.3-2.3-0.5-3.4C0.3,47.8,0.1,46.3,0.3,45.2z M46.3,57.5c0.1-0.5,0.5-0.8,0.9-1c1.3-0.7,2.7-1.4,4-2.1  c0.2-0.1,0.4-0.1,0.5-0.3c0-0.3-0.2-0.4-0.5-0.5c-0.2-0.1-0.4,0-0.7,0c-0.6,0.1-1.1,0.4-1.6,0.6c-1.4,0.5-2.7,1.2-4.1,1.8  C45.3,56.6,46,56.8,46.3,57.5c0.4,0.3,0.8,0.7,1.2,1c0.2,0.2,0.4,0.3,0.7,0.1c1.9-1.1,3.5-2.7,5.6-3.6c-1.4-0.6-1.4-0.6-2.5-0.1  c-0.3,0.1-0.5,0.3-0.7,0.4C49.1,56.1,47.7,56.8,46.3,57.5z M87.7,21.1L87.7,21.1c0-0.5-0.4-0.9-0.7-1.4c-0.4,0.3-0.9,0.6-1.4,0.6  c-1.1,0.1-2.1,0.3-3.2,0.7c-1.1,0.4-1.2,0.4-0.7,1.4c0.4,0.8,0.9,1.5,1.4,2.3c0.1,0.2,0.3,0.5,0.7,0.4c0.7,0,1.5,0,2.2-0.2  c1-0.1,1.9,0.1,2.9-0.2c0.1,0,0.2,0,0.3,0.2c0,0.2-0.1,0.3-0.3,0.3c-0.5,0-1,0-1.4,0c-1.1,0.1-2.1,0.2-3.3,0.3  c0.8,1.1,1.7,2.1,2.7,2.9c0.7,0.5,1.4,1,1.7,1.9c0.2,0.6,0.6,0.7,1.1,0.4c0.4-0.2,0.7-0.3,1.2,0c-0.4,0.1-0.6,0.2-0.8,0.3  c-1,0.4-1,0.4-0.7,1.5c0.1,0.5,0.4,0.6,0.9,0.5c0.7-0.1,1.4-0.5,2.1-0.5c0.3,0,0.6-0.3,0.5-0.7c-0.1-0.2-0.1-0.5-0.2-0.7  c-0.9-2-1.7-4.1-2.6-6.1C89.2,23.7,88.6,22.3,87.7,21.1z M25.3,80.2c-0.2,0-0.3-0.1-0.4-0.2c-0.5-0.8-1.2-0.8-2.1-0.8  c0.5,0.8,1.1,1.5,1.1,2.4c-0.7-0.6-0.8-1.6-1.6-2.1c0.2-0.7-0.3-0.6-0.7-0.6c-2-0.1-3.9-0.4-5.9-0.4c-1,0-1.9,0-3.1,0.2  c0.7,0.4,1,0.9,1.3,1.4c0.5,0.8,1,1.6,1.6,2.3c0.3,0.3,0.5,0.5,0.9,0.5c1.4,0,2.7,0.5,4,0.5c1,0,1.9,0.6,2.9,0.3  c0.6,0.6,1.5,0.5,2.2,0.8c1,0.4,2.1,0.7,3.2,1.1c1.4,0.5,2.7,0.9,4,1.7c0.5,0.3,0.9,0.2,1.2-0.2c0.8-1.2,2.2-1.8,3-2.9  c-0.6-0.5-0.9-1.5-2-1.4c0.2,0.7,0.8,1.2,1,1.8c-0.3,0.2-0.5,0.1-0.5-0.1c-0.2-0.6-0.9-1-1-1.8c0-0.3-0.2-0.3-0.4-0.3  c-0.2,0.1-0.1,0.2-0.1,0.4c0.1,0.3,0.2,0.7,0.3,1c0.1,0.2,0.2,0.4-0.1,0.5c-0.3,0.1-0.3-0.2-0.4-0.4c-0.1-0.4-0.2-0.9-0.4-1.3  c-0.4-1-1-1.3-2.1-1.1c0.3,0.6,0.7,1.1,0.8,1.9c-0.7-0.3-0.8-1-1-1.4c-0.5-1-1.1-1.4-2.2-1.3c0,0.4,0.3,0.6,0.4,0.9  c0.1,0.4,0.8,1,0.3,1.2c-0.4,0.2-0.4-0.7-0.6-1C28.2,81.2,28.1,80,27,80c-0.3,0-0.6,0-0.9-0.2C25.6,79.7,25.4,79.9,25.3,80.2  L25.3,80.2z M79.2,80.2c-0.2-0.1-0.4-0.2-0.6-0.4c-0.9-0.7-2-0.9-3.3-0.3c0.9,0.2,1.4,0.7,1.8,1.3c-0.2,0.2-0.4,0.1-0.5,0  c-0.5-0.7-1.3-0.8-1.9-1.3c-0.3-0.2-0.5-0.2-0.8-0.2c-0.2,0-0.3,0.1-0.3,0.3c0,0.1,0.1,0.2,0.2,0.2c0.6,0.1,1,0.4,1.4,1.1  c-1.4-0.5-2.5-1.6-3.9-0.7c0.3,0.6,1.2,0.6,1.4,1.5c-1.3-0.6-2.2-2-3.6-0.9c0.1,0.6,1,0.7,1,1.6c-1.1-0.6-1.7-1.9-3.1-1.2  c0.2,0.5,0.7,0.5,1,0.9c0.1,0.1,0.3,0.3,0.1,0.5c-0.1,0.1-0.3,0-0.4-0.1c-0.1-0.1-0.2-0.2-0.3-0.3c-0.7-0.7-1.5-1-2.5-0.3  c-0.2,0.1-0.4,0-0.5,0.2c0.2,0.4,0.6,0.5,0.9,0.7c0.2,0.1,0.4,0.2,0.2,0.4c-0.1,0.2-0.3,0.2-0.5,0c-0.2-0.1-0.3-0.3-0.5-0.4  c-0.7-0.6-1.5-0.8-2.3-0.2c-0.3,0.2-0.7,0.1-0.9,0.5c0.4,0.7,1.2,0.8,1.7,1.6c-0.7-0.1-1.1-0.5-1.5-0.8c-0.8-0.6-1.5-0.8-2.6,0.1  c0.5,0.3,1,0.4,1.6,0.5c0.1,0,0.2,0.1,0.2,0.3c0,0.2-0.1,0.2-0.2,0.2c-0.4,0-0.8-0.1-1.1-0.3c-1-0.6-1.9-0.3-2.7,0.3  c0.5,0.7,1.4,0.9,1.8,1.9c-0.5-0.1-0.9-0.2-1.2-0.5c-0.3-0.3-0.7-0.6-1-0.9c-0.2-0.2-0.4-0.3-0.6-0.2c-0.6,0.4-1.4,0.5-1.8,1.1  c0.6,0.3,1.1,0.6,1.6,1c0.1,0.1,0.3,0.2,0.2,0.4c-0.1,0.2-0.3,0.2-0.5,0.1c-0.4-0.3-0.9-0.6-1.3-0.9c-0.1-0.1-0.3-0.2-0.4-0.1  c-0.1,0.4-0.2,0.5-0.5,0.1c-0.2-0.3-0.5-0.1-0.6,0.1c-0.2,0.3,0.1,0.4,0.3,0.5c0.6,0.3,1,0.7,1.4,1.4c-0.8,0-1-0.5-1.4-0.8  C52,88,51.5,88,50.8,88.7c0.6,0.5,1.6,0.6,1.8,1.7c-0.8-0.1-1.1-0.7-1.6-0.9c-0.9-0.4-1.5-0.4-2.3,0.5l0,0c-0.6,0.2-1,0.7-1.4,1.1  c1.1,0.5,1.6,0.9,2,1.7c-0.5-0.1-0.9-0.4-1.2-0.7c-0.5-0.5-1.2-0.6-1.6-0.3c-0.7,0.4-1.4,0.9-1.9,1.7c0.5,0.3,1.2,0.4,1.4,1.1  c-0.1,0-0.1,0.1-0.1,0.1c-0.3-0.2-0.6-0.4-0.9-0.5c-0.9-0.5-0.9-0.5-1.3,0.5c1.4,0.2,2.7,0.3,4.1,0.3c0.8,0,1.3-0.2,1.7-0.8  c1-1.4,2.4-2.5,3.9-3.3c1.5-0.9,3.1-1.7,4.7-2.5c1.8-0.8,3.7-1.5,5.6-2.1c2.3-0.7,4.6-1.6,7-2c1.2-0.2,2.3-0.7,3.6-0.7  c1.5,0,2.7-0.7,3.7-1.9C78.3,81,78.8,80.6,79.2,80.2c0.6-0.3,0.8-0.8,1.2-1.5c-0.7,0.1-1.3,0.2-1.9,0.3  C78.8,79.5,79.3,79.7,79.2,80.2z M35.9,93.4c0.8,0.2,1.6,0.4,2.5,0.6c-0.6-0.8-1.4-1.3-2.4-0.7c0.5-1.3,1.7-2.1,2.6-3.1  c1.1-1.2,2.6-1.9,3.9-2.9c1-0.8,1.9-1.8,3.1-2.4c2-1,4-1.9,6-2.9c2.8-1.4,5.8-2.3,8.7-3.6c2.2-1,4.6-1.8,6.9-2.5  c0.6-0.2,1.1-0.5,1.7-0.7c1.9-0.4,3.8-1,5.7-1.4c3.4-0.7,6.8-1.3,10.4-1c0.5,0,0.8-0.2,1.1-0.6c0.9-1.1,1.5-2.5,2.5-3.5  c0.2-0.2,0.1-0.4,0.1-0.6c0.5-0.1,0.5-0.7,0.8-1c1.3-1.8,2-3.8,2.8-5.9c0.1-0.3,0.3-0.5,0.1-0.8c-0.6-1.1-0.9-2.2-1.3-3.3  c-0.9-2.5-2-4.9-3-7.4c-0.3-0.8-0.6-1.6-1.1-2.4c-0.4-0.8-1-1.5-1.3-2.3c-0.6-1.9-1-3.9-1.1-5.9c0-2.8-1.5-4.6-3.9-5.7  c-0.9-0.4-1.4-0.9-1.6-1.8c-0.3-1.5-0.6-3-0.9-4.5c-0.4-1.9-1.3-3.4-2.6-4.8c-0.4-0.5-0.8-0.4-1,0.2c-0.3,0.8-0.8,1.4-1.2,2.1  c-1.5,2.2-3,4.5-4.4,6.7c-0.4,0.7-0.8,1.5-1.2,2.4c-0.6,1.3-0.8,2.8-1.4,4.1c-0.8,2.1-1.2,4.4-2.4,6.4c-0.2,0.2-0.2,0.5-0.3,0.8  c-0.5,1.3-1.1,2.5-1.9,3.5c-0.9,1.1-1.7,2.2-2.5,3.4c-1.3,2.1-2.4,4.4-3.2,6.7c-0.6,1.9-1.5,3.6-2.1,5.5c-1,2.7-2.3,5.2-3.9,7.5  c-1.2,1.8-2.4,3.5-3,5.6c0,0.1-0.2,0.3-0.1,0.4c0.2,0.2,0.4,0,0.5-0.1c0.4-0.3,0.7-0.7,1.1-0.9c1.3-0.5,2.5-1.1,3.8-1.8  c0.6-0.3,1.2-0.7,1.9-0.8c0.8-0.1,1.4-0.7,2.2-0.9c0.2-0.1,0.5-0.3,0.2-0.5c-0.4-0.4-0.1-0.7,0.1-1.1c0.4-0.6,0.6-1.2,1.1-1.8  c0.7-0.9,1.2-1.8,1-3c0,0,0-0.1,0-0.1c0-0.2,0-0.4-0.1-0.4c-0.2-0.1-0.4,0-0.5,0.2c-0.2,0.6-0.6,1-1.3,1.2c0.1-0.7,0.5-1.2,0.8-1.6  c1-1.2,0.9-2.5,0.7-3.9c-0.4,0.5-1,0.8-1.2,1.4c-0.1,0.3-0.4,0.3-0.6,0.1c-0.3-0.1-0.4-0.4-0.2-0.6c0.9-1.1,1.5-2.5,2.3-3.6  c0.5,0,0.5,0.4,0.7,0.6c0.7,0.7,1.4,1.4,2.3,2c0.2,0.1,0.4,0.2,0.2,0.5c-0.2,0.3-0.4,0.2-0.6,0.1c-0.1-0.1-0.2-0.2-0.4-0.3  c-0.5-0.4-0.9-0.8-1.4-1.3c-0.3,0.8,0.1,1.4,0.2,2c0.1,1.2,0.9,1.9,1.8,2.4c0.1,0.1,0.3,0.1,0.4,0.2c0.2,0.2,0.5,0.4,0.2,0.7  c-0.2,0.2-0.5,0.1-0.6-0.1c-0.3-0.4-0.9-0.6-1.3-0.8c-0.2-0.1-0.5-0.1-0.5,0.3c0.2,0.9-0.1,1.7-0.2,2.5c0,0.6,0.1,1.1,0.7,1.4  c0.3,0.2,0.6,0.4,0.9,0.6c0.2,0.2,0.8,0.3,0.4,0.8c-0.3,0.4-0.6,0-0.8-0.2c-0.3-0.2-0.6-0.3-1.1-0.4c0.2,0.5-0.1,1,0.4,1.4  c4.7-1.6,9.4-3.1,14.4-3.7c0-0.7,0-1.4,0-2.2c0-0.2,0.1-0.5-0.2-0.6c-0.3-0.1-0.4,0.1-0.6,0.3c-0.5,0.7-1,1.4-1.5,2.1  C72.2,68,72,68.1,71.8,68c-0.2-0.1-0.1-0.3,0-0.5c0.9-1.1,1.4-2.5,2.6-3.4c0.1-0.1,0.2-0.3,0.2-0.4c0-1-0.1-2.1-0.1-3.1  c0,0-0.1-0.1-0.2-0.1c-0.1,0.1-0.1,0.2-0.2,0.3c-0.6,1.3-1.5,2.3-2.2,3.4c-0.1,0.1-0.2,0.2-0.4,0.2c-0.2-0.1-0.2-0.2-0.1-0.4  c0.1-0.3,0.1-0.7,0.4-1c0.4-0.3,0.6-0.9,0.9-1.3c0.7-0.7,0.6-1.9,1.7-2.3c0.1,0,0.1-0.3,0.1-0.5c-0.2-1.5-0.1-3.1-0.5-4.9  c-0.6,1.2-1.5,1.8-1.9,2.7c-0.2,0.5-0.5,0.8-0.8,1.2c-0.2,0.4-0.6,0.5-0.9,0.3c-0.4-0.3-0.1-0.6,0.1-0.8c1.1-1.1,1.8-2.3,2.5-3.7  c0.2-0.3,0.3-0.6,0.7-0.5c0.2,0,0.3-0.1,0.3-0.3c-0.2-1.3-0.1-2.7-0.2-4.1c0-0.2,0-0.5-0.3-0.5c-0.2,0-0.3,0.2-0.4,0.4  c-0.4,1.1-1.2,2-1.8,3C71.2,52,71,52.1,70.7,52c-0.3-0.2-0.2-0.5,0-0.6c0.7-0.7,1-1.7,1.6-2.5c1-1.4,1.4-2.9,1.2-4.5  c-0.1-0.5-0.6-2.7-0.7-3.1c-0.1,0.1-0.2,0.2-0.2,0.3c-0.6,0.9-1.2,1.8-1.8,2.7c-0.2,0.3-0.5,0.6-0.9,0.2c-0.3-0.4,0-0.5,0.2-0.6  c0.5-0.4,0.9-0.9,1.2-1.5c0.5-0.8,1-1.7,1.5-2.5c0.4-0.7,0.6-0.8,1.2-0.2c0.6,0.5,1.2,0.9,1.8,1.4c0.6,0.5,1.2,1,1.9,1.5  c0.2,0.2,0.4,0.3,0.2,0.6c-0.2,0.2-0.4,0.2-0.7,0c-0.1-0.1-0.2-0.3-0.3-0.4c-0.3-0.3-2.5-1.8-3-2c0,0.2-0.1,0.3,0,0.5  c0.3,1.4,0.5,2.8,0.4,4.3c-0.1,1.1,0.4,1.9,1.2,2.4c0.8,0.5,1.2,1.4,2,1.9c0.2,0.1,0.1,0.3,0,0.4c-0.1,0.2-0.2,0.1-0.4,0.1  c-0.5-0.2-0.9-0.6-1.2-1c-0.3-0.4-0.8-0.7-1.2-0.8c0,1.7,0,3.3,0,4.9c0,0.4,0.2,0.6,0.5,0.8c1,0.4,1.7,1.2,2.7,1.7  c0.4,0.2,1,0.5,0.7,0.9c-0.4,0.6-0.8-0.1-1.1-0.3c-0.8-0.4-1.6-1.1-2.6-1.4c0.2,1.7,0.4,3.2,0.3,4.7c0,0.4,0.3,0.4,0.6,0.5  c0.9,0.4,1.5,1.2,2.5,1.4c0.2,0,0.3,0.2,0.2,0.4c-0.1,0.2-0.2,0.3-0.5,0.3c-0.3-0.1-0.5-0.3-0.8-0.4c-0.6-0.2-1.2-0.7-1.9-0.8  c-0.2,1.1,0.1,2,0.1,3c0,0.7,0.2,1.2,0.9,1.5c0.7,0.3,1.3,0.8,1.6,1.7c-1,0.2-1.3-1.1-2.2-0.9c-0.2,0.3,0,0.6,0,0.9  c-0.1,0.6,0.2,0.8,0.7,0.8c0.4,0,0.9,0.1,1.3,0c1.7-0.4,3.5-0.3,5.2-0.3c0.1,0,0.2,0,0.2-0.1c1.7-0.1,3.5-0.3,5.2,0.1  c0.3,0.1,0.4,0.2,0.4,0.5c-0.3,0.4-0.8-0.2-1,0.2c-0.2,0.5-0.5,0.3-0.8,0.1c-0.4-0.2-0.8-0.6-1.3-0.4c-0.2,0.7,1,0.7,0.6,1.5  c-0.9-0.4-1.2-1.9-2.6-1.2c0.2,0.2,0.3,0.3,0.5,0.4c0.2,0.3,0.9,0.6,0.4,0.9c-0.4,0.4-0.5-0.4-0.7-0.5c-0.6-0.5-1.1-1.2-2.1-0.9  c0,0.4,0.3,0.5,0.5,0.6c0.2,0.2,0.6,0.3,0.4,0.6c-0.3,0.3-0.5-0.1-0.7-0.2c-0.2-0.1-0.4-0.4-0.7-0.5c-0.6-0.4-1.2-0.7-2.1-0.3  c0.4,0.3,0.6,0.5,0.8,0.7c0.2,0.2,0.7,0.3,0.5,0.7c-0.2,0.3-0.6-0.1-0.8-0.3c-0.2-0.1-0.3-0.4-0.5-0.5c-0.6-0.4-1.2-0.5-1.9-0.3  c0.1,0.6,0.8,0.7,0.7,1.4c-1.1-0.7-2.2-1.6-3.6-1.3c0,0.6,1,0.4,1,1.1c-1.1,0-1.9-1.3-3.2-0.8c0,0.7,1.1,0.5,0.7,1.3  c-0.8-0.5-1.5-1.2-2.6-0.9c0.1,0.5,0.7,0.6,1,1.1c-0.9,0.2-1.1-0.8-1.9-0.8c-0.7,0-1.3,0.1-2,0.4c0.4,0.7,1.4,0.6,1.4,1.7  c-1.2-0.9-2.3-1.8-3.9-1.1c0.4,0.6,1.4,0.4,1.7,1.3c-1.2-0.3-2.3-1.5-3.6-0.5c0.6,0.5,1.2,0.6,1.8,1.3c-1.4-0.1-2.4-1.6-3.8-0.8  c0.3,0.7,1.2,0.5,1.4,1.5c-0.6-0.3-1-0.4-1.4-0.7c-0.8-0.6-1.5-0.5-2.4,0c0.5,0.3,0.9,0.5,1.3,0.7c0.2,0.1,0.2,0.2,0.1,0.4  c-0.1,0.1-0.2,0.1-0.3,0.1c-0.2-0.1-0.5-0.3-0.7-0.4c-0.3-0.1-0.6-0.6-0.9-0.4c-0.7,0.4-1.6,0.1-2.1,0.8c0.5,0.3,1.1,0.5,1.6,0.8  c0.2,0.1,0.8,0.2,0.5,0.6c-0.2,0.4-0.6-0.1-0.8-0.2c-1-0.7-2-1-3.2-0.6c0.4,0.9,1.8,0.5,2.1,1.5c-0.1,0-0.2,0.1-0.2,0.1  c-0.6-0.3-1.2-0.6-1.9-0.9c-1-0.4-1.3-0.4-2.2,0.4c0.4,0.2,0.8,0.3,1.2,0.5c0.2,0.1,0.5,0.2,0.3,0.5c-0.1,0.2-0.3,0.1-0.5,0  c-0.1-0.1-0.3-0.1-0.4-0.2c-1.1-0.6-2-0.6-3,0.3c0.4,0.7,1.5,0.6,1.8,1.5c-0.2,0-0.3,0.1-0.3,0c-0.3-0.2-0.6-0.4-0.9-0.6  C49,77,48.6,77,47.5,78.2c0.7,0.3,1.5,0.5,1.9,1.2c-0.7-0.1-1.3-0.6-2-0.7c-0.7-0.1-1.5-0.4-2,0.5c1.7,0.9,1.7,0.9,1.9,1.5  c-2.7-1.2-2.7-1.2-3.6-0.4c0.8,0.2,1.5,0.5,2.2,0.9c-0.2,0.4-0.4,0.3-0.7,0.2c-0.5-0.2-1-0.4-1.5-0.6c-0.6-0.2-1.2-0.2-1.7,0.4  c0.7,0.5,1.7,0.4,2.3,1.3c-0.8,0.1-1.3-0.6-1.9-0.6c-1-0.1-1.3-0.1-1.9,0.4c0.6,0.5,1.5,0.5,2.1,1.1c-0.7,0.3-1.1-0.2-1.6-0.4  c-0.9-0.3-1.3-0.3-2.2,0.6c0.8,0.2,1.5,0.5,2.1,0.9c-0.2,0.3-0.5,0.3-0.6,0.1c-0.7-0.6-1.7-0.1-2.5-0.4c-0.1-0.1-0.2,0-0.3,0.1  c-0.3,0.4-0.9,0.6-1.2,1.2c0.7,0.2,1.4,0.4,2,0.6c0.1,0,0.2,0.1,0.2,0.2c0,0.2-0.2,0.3-0.3,0.2c-0.5-0.2-1.1-0.2-1.6-0.5  c-0.7-0.4-1-0.1-1.3,0.4c0.5,0.5,1.3,0.4,1.8,0.7c-0.2,0.5-0.4,0.4-0.7,0.3c-0.5-0.1-1-0.5-1.6-0.4c-0.2,0-0.3,0-0.4,0.2  c0,0.2,0.1,0.3,0.3,0.3c0.5,0.1,1.2,0.1,1.6,0.9c-1.1-0.2-2.1-1-3.2-0.2c0.7,0.5,1.6,0.4,2.3,1.1c-1.2,0-2.3-1-3.2,0.3  c0.8,0.4,1.6,0.4,2.2,1c-0.2,0.2-0.3,0.2-0.5,0.1c-0.6-0.5-1.4-0.2-2-0.6c-0.2-0.1-0.4,0-0.5,0.2c-0.1,0.2,0,0.4,0.2,0.5  c0.2,0.1,0.5,0.1,0.7,0.3c0.4,0.3,1,0.3,1.3,0.9c-0.4,0.2-0.7-0.1-0.9-0.2c-0.3-0.2-0.7-0.4-1.1-0.5c-0.5-0.1-0.6,0-0.9,0.7  C32.5,92.5,34.2,92.9,35.9,93.4z M18.3,65.3c-0.8,1.3-2,2.2-2.7,3.4c-0.1,0.2-0.2,0.5-0.5,0.4c-0.3-0.1-0.1-0.4-0.2-0.6  c-0.1-0.3,0.2-0.5,0.3-0.7c0.8-0.9,1.5-1.9,2.3-2.8c0.7-0.7,0.9-1.5,0.6-2.4c-0.1-0.5,0-1-0.1-1.6c0-0.3,0.1-0.6-0.3-0.8  c-0.4,0.5-0.9,1-1.3,1.7c-0.4,0.7-1.1,1.2-1.7,1.7c-0.1,0.1-0.3,0.1-0.4,0c-0.1-0.1-0.1-0.3,0.1-0.4c1.2-1,1.8-2.4,2.8-3.4  c0.4-0.4,0.7-1,0.6-1.6c-0.2-1.6-0.5-3.2-0.4-4.8c0-0.1-0.1-0.2-0.2-0.2c-0.3,0.1-0.5,0.4-0.6,0.7c-0.8,1.2-2,2.1-2.9,3.3  c-0.1,0.2-0.3,0.4-0.6,0.2c-0.3-0.3-0.1-0.4,0.1-0.7c0.9-1.1,1.8-2.2,2.6-3.4c0.4-0.6,0.5-1.4,1.3-1.6c0.1,0,0.1-0.2,0.2-0.3  c0.2-1.1,0.1-2.1-0.3-3.3c-0.5,0.7-0.9,1.3-1.3,1.9c-0.3,0.5-0.6,1.1-1.2,1.4c-0.1,0.1-0.2,0.1-0.3,0c-0.2-0.1-0.2-0.3,0-0.4  c0.2-0.3,0.6-0.5,0.7-0.8c0.4-1.4,1.5-2.3,2-3.6c0.2-0.4,0.5-0.7,0.7-1.1c0.3-0.4,0.7-0.4,0.9,0.1c0.5,1.2,1.6,2,2.4,3  c0.2,0.3,0.5,0.5,0.5,0.9c0,0.2,0,0.4-0.2,0.5c-0.2,0.1-0.4,0-0.6-0.1c-0.1-0.1-0.1-0.3-0.2-0.4c-0.6-0.9-1.1-1.8-2.1-2.4  c-0.1,0.6,0,1,0,1.5c0.2,1.2,0.3,2.4,0.3,3.6c0,0.8,0.2,1.2,0.9,1.7c1,0.6,1.9,1.4,2.8,2c0.2,0.1,0.3,0.3,0.1,0.5  c-0.1,0.1-0.3,0.1-0.4,0c-0.3-0.4-0.8-0.5-1.2-0.8c-0.6-0.4-1.2-0.9-2-1.2c0.3,1.7,0.1,3.3,0.2,4.9c0,0.2,0.1,0.5,0.3,0.6  c1.1,0.8,1.9,1.9,3.2,2.6c0.2,0.1,0.4,0.2,0.3,0.5c-0.1,0.3-0.3,0.4-0.6,0.2c-0.4-0.4-1-0.6-1.4-1c-0.4-0.4-0.8-1-1.4-1.2  c0,0.1-0.1,0.1-0.1,0.2c0.1,1.2,0.1,2.5,0.4,3.6c0.3,1,1.5,1.6,2.2,2.4c0.7,0.7,0.7,0.7,0.1,2c-0.5-1-1.2-1.8-2.2-2.5  c0.1,1.2,0.1,2.2,0.2,3.2c0,0.3,0.1,0.8,0.6,0.8c1.2,0,2.5,0.2,3.7,0.3c2.3,0.1,4.6,0.3,6.8,0.9c0.6,0.2,1.3,0.5,2,0.5  c-0.1-1,0.2-2-0.3-2.9c-0.5,0.2-0.8,0.4-1,0.7c-0.2,0.2-0.3,0.4-0.6,0.2c-0.4-0.3,0-0.5,0.1-0.7c0.3-0.6,0.7-1.1,1.2-1.5  c0.9-0.8,0.7-1.7,0.6-2.9c-0.5,0.5-0.8,0.9-1,1.4c-0.1,0.2-0.2,0.4-0.4,0.3c-0.3-0.1-0.3-0.4-0.3-0.6c0-0.6,0.5-1,0.8-1.4  c0.3-0.4,0.9-0.9,0.9-1.4c-0.1-0.8,0.1-1.6-0.3-2.4c-0.3,0.3-0.6,0.5-0.8,0.8c-0.2,0.4-0.5,0.5-0.9,0.1c-0.3-0.3-0.4-0.6,0-0.9  c0.7-0.6,1.2-1.3,1.5-2.2c0.2-0.6,0.5-0.6,1-0.2c0.8,0.6,1.2,1.5,2,2.1c0.3,0.2,0.6,0.3,0.5,0.8c0,0.2-0.1,0.3-0.3,0.3  c-0.4,0-0.6-0.2-0.8-0.5c-0.2-0.3-0.5-0.6-0.7-0.9c-0.2-0.2-0.4-0.4-0.7-0.4c0,0.3,0,0.6,0,0.8c0,1.9,0.3,3.6,2.3,4.5  c0.2,0.1,0.3,0.3,0.2,0.5c-0.1,0.2-0.3,0.2-0.5,0.2c-0.2,0-0.4-0.1-0.5-0.2c-0.1-0.2-0.2-0.3-0.4-0.5c-0.1-0.1-0.3-0.3-0.5-0.1  c-0.2,0.1-0.1,0.3-0.1,0.4c0,0.6,0.1,1.3,0.1,1.9c0,0.6,0.2,0.9,0.7,1.3c0.5,0.3,1,0.6,1.6,0.9c-0.9,0.7-1.4-0.3-2-0.3  c-0.3,0.8,0,1.5,0,2.3c0,0.5,0.3,0.8,0.8,1c1.1,0.3,2.2,0.7,3.3,1c1.2,0.4,2.4,1,3.6,1.5c1.4,0.6,2.9,0.9,3.9,2.1  c0.4-0.4,0.6-0.8,0.7-1.2c0.4-1.2,0.9-2.3,1.7-3.3c0.6-0.8,1.2-1.7,1.8-2.6c0.5-0.9,0.9-1.8,1.5-2.6c0.2-0.3,0.6-0.7,0.4-1.1  c-0.4-1-0.4-2.1-1.1-2.9c-1.1-1.4-2.1-2.9-3.4-4.2c-2.1-2.1-4.3-4-6.7-5.7c-0.4-0.3-0.8-0.6-1-1c-0.4-1-1.1-1.6-1.6-2.5  c-0.5-0.9-0.7-1.8-0.7-2.8c0.1-1.5,0.3-3,0.4-4.5c0.1-1.7-0.3-3.4-1.6-4.6c-1.4-1.3-2.9-2.4-4.7-3.1c-0.8-0.3-1.5-0.8-2-1.5  c-0.8-1-1.5-2.1-0.7-3.4c0,0,0-0.1-0.1-0.2c-0.2-0.1-0.3,0-0.4,0.1c-1.4,1-3,1.9-4.4,3c-2.6,2-5.4,3.8-7.8,6.2  c-1.1,1.1-2.2,2.2-3.5,3.2c-0.8,0.6-1.5,1.5-2.3,2.1C9.8,45.6,9,46.5,8,47.2c-0.7,0.5-1.4,1-1.8,1.7c-0.9,1.4-2.1,2.3-3.5,2.9  c-1,0.4-1,1-1,1.7c0,0.2,0,0.4,0.1,0.6c0.4,1.7,0.6,3.5,1.3,5.1c0.3,0.9,0.7,1.8,1.1,2.7c1.1,3.2,2.5,6.2,3.7,9.3  c0.1,0.3,0.4,0.5,0.8,0.4c0.2-0.1,0.5,0,0.7-0.1C10.5,71,11.7,71,13,71c0.8,0,1.5-0.2,2.3-0.1c0.5,0,1-0.4,1.4-0.3  c0.5,0.2,0.9,0.1,1.3,0.1c0.9,0,1-0.1,0.8-1c-0.2-1.4-0.2-2.8-0.2-4.2C18.5,65.5,18.4,65.4,18.3,65.3z M3.2,31.3  c0.7,0.3,1.1-0.2,1.7-0.3c1.7-0.3,3.4-0.5,5.1-0.9c1-0.2,2-0.4,2.9-0.7c0.3-0.1,0.7-0.1,0.7-0.4c0-0.5-0.5-0.4-0.7-0.4  c-0.5,0-0.7-0.3-1-0.6c-0.3-0.5-0.2-0.9,0.3-1.1c1.2-0.4,2.3-0.8,3.6-0.7c1.3,0.1,2.4,0.9,3.7,1c1,0,1.9,0.7,2.9,0.7  c1.1,0.1,2.2-0.1,3.2-0.4c1.5-0.4,3.1-0.7,4.5-1.4c0.6-0.3,0.6-0.7,0.1-1.1c-0.3-0.2-0.6-0.2-0.9-0.1c-0.5,0.1-1,0.1-1.4,0.1  c-0.2,0-0.5,0-0.6-0.3c-0.1-0.3-0.1-0.5,0.2-0.8c0.7-0.7,1.5-1.1,2.5-1.1c1.6,0.1,3.1,0.4,4.7,0.3c1.2-0.1,2.5-0.2,3.7-0.1  c0.9,0.1,1.8,0,2.6-0.5c-0.1-0.4-0.4-0.4-0.6-0.4c-0.9-0.3-1.8,0-2.8,0.1c-0.4,0-0.9,0.1-1.2-0.3c1.7-0.1,3.5-0.7,5.3,0.3  c-0.1-0.5,0.5-0.7,0.2-1.1c-0.2-0.4-0.7-0.1-1-0.1c-0.2,0-0.3,0.1-0.5,0.1c-0.8,0.1-1.7,0.1-2.5-0.1c-0.5-0.1-0.8-0.7-0.4-1  c0.4-0.3,0.7-0.8,1.3-0.9c1-0.1,1.9-0.6,2.8-0.7c2-0.4,4-1.1,6-1.2c0.1,0,0.2,0,0.2,0c0.3,0,0.6-0.2,0.6-0.5  c0.1-0.2-0.1-0.4-0.3-0.6c-0.6-0.6-1.4-0.8-2.2-0.8c-1.5,0-3-0.1-4.5,0.2c-1.5,0.3-3,0.7-4.4,1.3c-1.5,0.8-3.1,1.5-4.6,2.3  c-0.4,0.2-0.8,0.2-1.1,0.4c-0.5,0.2-0.9-0.2-1.1-0.5c-0.2-0.3,0-0.7,0.4-0.9c0.3-0.2,0.5-0.4,0.4-0.8c-0.2,0-0.3,0-0.5,0  c-1.7-0.1-3.3,0.1-4.9,0.5c-1.8,0.4-3.8,0.4-5.6,0.8c-1.1,0.3-2.3,0.1-3.4,0.1c-0.4,0-0.4-0.2-0.4-0.6c0-0.4,0.3-0.5,0.6-0.7  c0.3-0.2,0.7-0.3,0.7-0.8c-0.3-0.2-0.7-0.1-1-0.1c-1.1,0.1-2.2,0.2-3.2,0.3c-0.3,0-0.6,0.1-0.9,0.4c-0.7,0.8-1.3,1.6-2,2.4  c0.9,0.3,1.7,0.2,2.5,0.1c0.4,0,0.7-0.1,1.1,0c0.1,0,0.1,0.2,0.1,0.3c0,0.1-0.1,0.3-0.2,0.3c-1.2-0.3-2.4,0.4-3.6,0.1  c-0.2-0.1-0.5-0.2-0.6,0.1c-0.5,0.9-1.4,1.6-1.7,2.5c0.2,0.2,0.3,0.2,0.5,0.2c1.8-0.3,3.7-0.2,5.5-0.2c0.2,0,0.4,0,0.4,0.2  c0,0.2-0.1,0.4-0.4,0.3c-0.2,0-0.3,0-0.5,0c-1,0-2-0.1-3-0.1c-0.8,0-1.5,0.3-2.3,0.2c-0.7-0.1-0.9,0.3-1.2,0.7  c-0.9,1.2-1.6,2.6-2.3,4C4.1,29.2,3.6,30.2,3.2,31.3z M37,92.6c0.7,0,1.2,0.4,1.6,0.9c0.7,0.7,1.4,0.9,2.3,0.9  c0.2,0,0.5,0.1,0.7,0.1c0.7,0.2,1.2,0,1.7-0.5c0.7-0.8,1.4-1.5,2.2-2.1c1.8-1.4,3.5-2.8,5.5-3.9c1.7-1,3.3-2,5.1-2.7  c1.9-0.8,3.7-1.8,5.7-2.4c0.4-0.1,0.8-0.3,1-0.6c0.2-0.2,0.4-0.3,0.6-0.2c0.6,0.2,1.1-0.1,1.6-0.4c0.6-0.2,1.1-0.4,1.7-0.6  c0.9-0.4,1.8-0.3,2.7-0.6c1.6-0.5,3.3-1.1,5-1.4c2-0.3,4-0.6,6-0.7c0.4,0,0.8,0,1.1-0.4c1.2-1.4,2.3-2.8,3.5-4.2  c-0.5-0.4-0.9-0.3-1.4-0.2c0.1,0.4,0.6,0.5,0.3,0.9c-0.4,0-0.6-0.5-0.9-0.7c-0.4-0.2-0.9-0.6-1.2-0.2c-0.3,0.4,0.3,0.6,0.4,0.8  c0.1,0.1,0.1,0.2,0,0.3c-0.1,0.2-0.3,0.1-0.4,0c-0.1-0.1-0.2-0.3-0.4-0.5c-0.4-0.5-0.9-0.8-1.5-0.5c0.4,0.8,0.4,0.8,0.3,1.4  c-1.3-1.9-1.2-1.4-2.3-1.1c0.1,0.2,0.3,0.3,0.4,0.5c0.1,0.1,0.4,0.3,0.2,0.5c-0.3,0.3-0.4,0-0.6-0.2c-1-1-0.8-1.1-2.2-0.5  c0.3,0.5,0.9,0.7,1,1.5c-2.1-1.6-2.1-1.6-3.1-0.9c0.2,0.6,0.9,0.7,1.2,1.5c-0.7-0.2-1.1-0.6-1.5-1c-0.6-0.6-1.1-0.6-1.7-0.2  c0.5,0.4,1,0.8,1.5,1.5c-0.6,0.2-0.9-0.2-1.1-0.5c-0.6-0.8-1.4-0.8-2.3-0.6c0.3,0.6,1.1,0.7,1.2,1.3c-0.6,0.2-0.8-0.2-1-0.5  c-0.5-0.5-1.1-0.7-1.8-0.4c-0.2,0.1-0.4,0.2-0.8,0.3c0.4,0.2,0.7,0.4,0.9,0.6c0.1,0.1,0.3,0.2,0.2,0.4c-0.1,0.2-0.2,0.2-0.4,0  c-0.2-0.1-0.4-0.2-0.5-0.3c-0.6-0.6-1.2-0.4-2-0.2c1.1,1.1,1.1,1.1,1.1,1.7c-1.6-1.5-1.8-1.5-3.4-0.7c0.4,0.5,1.2,0.7,1.5,1.4  c-0.5,0.2-0.8-0.1-1-0.3c-0.8-0.9-1.6-0.9-2.6-0.3c0.4,0.6,1.1,0.7,1.5,1.3c0.1,0.1,0.1,0.2,0,0.3c-0.1,0.1-0.2,0.1-0.3,0.1  c-0.3-0.2-0.6-0.5-1-0.7c-1-0.8-1-0.8-2.1,0c0.5,0.4,1.2,0.5,1.4,1.4c-0.8-0.1-1.2-0.8-1.9-1c-0.7-0.2-1.3,0-1.9,0.4  c1.7,1.2,1.7,1.2,1.8,1.7c-1.7-1.3-2.4-1.5-3.6-0.9c0.7,0.6,1.7,0.8,2.1,1.8c-0.3,0.2-0.5,0-0.6-0.1c-0.5-0.5-1.2-0.8-1.8-1.2  c-0.6-0.5-0.9-0.3-1.3,0.2c0.6,0.5,1.5,0.6,1.7,1.4c-0.4,0.2-0.6-0.2-0.8-0.3c-0.5-0.3-1-0.6-1.6-0.7c-0.3-0.1-0.6-0.1-0.8,0.2  c-0.2,0.4,0.2,0.5,0.4,0.6c0.4,0.3,0.9,0.5,1.3,0.9c0.1,0.1,0.2,0.2,0.1,0.4c-0.1,0.2-0.3,0.1-0.4,0c-0.2-0.2-0.4-0.4-0.6-0.6  c-1.2-1-2.3-1-3.6,0.1c0.9,0.3,1.6,0.9,2.5,1c0.2,0,0.3,0.2,0.3,0.3c0,0.1-0.2,0.3-0.3,0.3c-0.2,0.1-0.4,0.1-0.6-0.1  c-0.4-0.3-0.8-0.5-1.2-0.8c-0.4-0.4-1-0.7-1.6-0.5c-0.6,0.3-1.3,0.5-2,1c0.9,0.5,1.7,0.9,2.3,1.8c-0.7,0-1-0.4-1.4-0.7  c-1.1-0.8-1.8-0.8-2.9,0.3c1.1,0.2,1.9,0.7,2.7,1.4c-0.2,0.1-0.2,0.2-0.3,0.1c-0.8-0.4-1.5-0.9-2.4-1.2c-0.2-0.1-0.3-0.3-0.6,0  c-0.2,0.2-0.4,0.3-0.6,0.5c0.3,0.4,0.8,0.4,1.2,0.6c0.4,0.2,0.9,0.3,1,0.9c-2.6-1.1-2.6-1.1-3.2-0.6c0.6,0.6,1.6,0.6,2.2,1.5  c-1-0.1-1.7-0.6-2.3-1c-0.7-0.4-1,0-1.4,0.4c0.9,0,1.5,0.6,2.1,1c0.2,0.1,0.2,0.2,0.1,0.4c-0.1,0.2-0.3,0.1-0.4,0  c-0.3-0.2-0.6-0.6-0.9-0.7c-0.2-0.1-0.4-0.3-0.7-0.2c-0.3,0.1-0.5-0.2-0.7-0.1c-0.2,0-0.5,0.1-0.5,0.4c0.7,0.6,1.7,0.8,2.1,1.8  c-0.6-0.3-1.1-0.6-1.6-0.9c-0.8-0.5-1.1-0.4-1.7,0.3c0.7,0.4,1.5,0.7,2.2,1.4c-0.7,0-1.1-0.3-1.5-0.6C38,91.6,37.8,91.7,37,92.6z   M47.6,27.4c1,1.6,2.6,2,4.4,2.3c1.2,0.2,2.4-0.1,3.4-0.7c0.9-0.6,1.8-1.1,2.6-1.9c0.9-1,1.6-2,1.9-3.3c0.3-1.4,0.7-2.8,0.5-4.4  c-0.2-1.4-0.4-2.7-0.7-4c-0.3-1.5-1.5-2.3-2.4-3.2c-1.6-1.6-3.6-2.5-5.9-2.9c-1.2-0.2-2.5-0.3-3.6-0.9c-0.3-0.1-0.6-0.3-0.9,0.1  c0.4,0.2,0.6,0.4,0.9,0.6c1.3,0.7,2,2,3.1,2.8c0.7,0.6,1.2,1.4,1.7,2.2c0.3,0.6,0.6,1.1,1,1.6C54,16.1,54,16.5,54,17  c0.2,1.8-0.5,3.4-1.1,5c-0.5,1.4-1.4,2.5-2.6,3.4C49.5,26.2,48.6,26.8,47.6,27.4z M57.4,39c0.6,0.5,1.2,0.3,1.8,0.1  c2-0.8,4-1.5,6.1-1.8c0.7-0.1,1.1-0.6,1.2-1.3c0.3-1.6,1.1-3,1.8-4.4c1.4-2.5,3.1-4.8,4.7-7.3c0.3-0.5,0.6-0.9,0.8-1.4  c-0.8-0.3-1.5,0.1-2.2,0.3c-3.2,0.5-6.3,1.3-9.4,2.2c-0.3,0.1-0.5,0.2-0.8,0.3c-0.3,0.2-0.3,0.6-0.2,0.9c0.1,0.3,0.4,0.2,0.6,0.2  c0.5-0.1,1.1,0,1.6-0.4c0.3-0.2,0.8-0.3,1.2-0.5c0.5-0.2,0.9,0,1.1,0.5c0.2,0.5-0.2,0.6-0.5,0.8c-0.7,0.5-1.5,0.8-2.3,0.9  c-2.1,0.2-3.8,1.3-5.7,1.8c-0.4,0.1-0.6,0.4-0.8,0.7c-0.2,0.2-0.4,0.4-0.3,0.6c0.1,0.3,0.4,0.4,0.7,0.3c0.8-0.1,1.5-0.2,2.3-0.4  c0.6-0.2,1.2-0.1,1.8-0.2c0.3-0.1,0.6,0.1,0.7,0.5c0.1,0.3-0.2,0.4-0.4,0.5c-1,0.6-2.1,0.9-3.2,1c-1.9,0.1-3.5,1.2-5.2,1.8  c-0.2,0.1-0.3,0.3-0.4,0.4c-0.5,0.6-0.4,0.9,0.3,1.1c1,0.4,2,0.1,2.9-0.3c1.2-0.6,2.4-0.9,3.7-0.8c0.8,0.1,1.2,0.4,1.2,1.2  c0,0.8-0.1,1.1-1,1.4C58.7,38.1,57.9,38.3,57.4,39z M30.6,78c-0.5-0.3-0.5-0.7-0.7-1c-0.5-0.9-1.2-1.2-2.1-1.3  c-0.4,0-0.5,0.1-0.3,0.5c0.2,0.5,0.8,0.8,1,1.3c-0.9-0.1-1.1-0.7-1.4-1.3c-0.1-0.2,0-0.5-0.3-0.6c-0.5-0.1-1-0.4-1.7-0.2  c0.2,0.6,0.8,1,0.8,1.7c-1-1-1.6-2.6-3.5-2c0.5,0.7,1.5,1,1.2,2.4c-0.7-1.7-1.8-2.4-3.3-2.8c0.2,1,1.1,1.4,1.2,2.3  c-0.7-0.4-0.7-0.4-1.1-1.1c-0.9-1.4-1-1.4-2.7-0.9c0.3,0.6,0.9,1.1,1.1,1.7c0.1,0.2,0.3,0.4,0,0.5c-0.2,0.1-0.4,0-0.4-0.3  c-0.3-0.8-0.8-1.4-1.5-1.8c-0.5-0.3-1-0.4-1.5,0c0.5,0.6,0.9,1.1,1.4,1.5c-0.2,0.2-0.4,0.2-0.5,0.1c-0.4-0.6-1-0.9-1.4-1.4  c-0.4-0.4-0.7-0.3-1-0.2c0.5,0.5,0.7,1,1,1.6c0.1,0.1,0.1,0.3-0.1,0.4c-0.1,0.1-0.3,0-0.4-0.2c-0.2-0.5-0.5-0.9-0.9-1.3  c-0.5-0.6-1-0.5-1.6-0.2c0.2,0.7,0.9,0.9,1.1,1.7c-1-0.3-1.3-1.9-2.8-1.4c0.6,0.8,0.9,1.6,1.5,2.2c0.2,0.2,0.4,0.4,0.8,0.4  c1.6-0.2,3.1-0.1,4.7-0.1c2.2,0.1,4.3,0.3,6.5,0.7c1,0.1,1.8,0.7,2.8,0.8c1.6,0.2,3,0.8,4.5,1.2c1.5,0.3,2.7,1.2,4.2,1.6  c1,0.3,1.7,0.7,2.2,1.7c1.8-1.4,3.6-2.6,5.5-3.8c-0.7-0.4-1.3-0.6-2-0.7c-0.1,0.4,0.3,0.6,0.4,0.8c0.1,0.1,0.1,0.3-0.1,0.4  c-0.2,0.1-0.3,0-0.4-0.1c-0.2-0.4-0.3-0.7-0.5-1.1c-0.2-0.3-0.3-0.8-0.8-0.7c0.1,0.7,0.5,1.2,0.5,2.1c-0.5-0.7-0.8-1.2-1-1.8  c-0.3-0.8-0.5-0.9-1.4-0.8c-0.3,0.4,0.6,0.9,0,1.1c-0.5,0.2-0.4-0.7-0.6-1c-0.1-0.2-0.3-0.4-0.4-0.6c-0.3-0.4-0.6-0.5-1.1-0.4  c0.7,1.4,0.7,1.4,0.4,1.9c-0.7-1.2-0.8-2.9-2.9-2.7c0.2,0.6,0.8,0.9,0.7,1.8c-0.5-0.6-0.9-0.9-1.1-1.5c-0.1-0.3-0.3-0.5-0.6-0.6  c-0.6-0.2-1.2-0.3-1.8-0.3C30,76.8,30.9,77.2,30.6,78z M26.9,74c-0.5-0.8-0.9-1.5-1.4-2.1c-0.4-0.6-0.8-0.5-1.3-0.3  c0.2,0.6,0.8,1,0.4,1.7c-0.6-1.2-1.1-2.4-2.8-2.1c0.2,0.8,1.2,1.3,0.9,2.4c-0.6-0.9-1.1-1.8-1.6-2.6c-0.5,0.1-1.1,0.2-1.7,0.2  c0.3,0.8,1.2,1.2,1.2,2.2c-0.7-0.2-0.7-0.7-1-1.1c-0.9-1.1-1.1-1.3-2.3-0.9c0.2,0.6,0.6,1.1,0.5,1.9c-0.2-0.2-0.3-0.2-0.3-0.3  c-0.1-0.2-0.2-0.4-0.3-0.7c-0.3-0.9-0.3-0.9-1.3-0.9c-0.3,0-0.7-0.1-1,0.1c-0.1,0.3,0.2,0.5,0.2,0.7c0,0.4,0.8,0.8,0.4,1  c-0.6,0.3-0.6-0.5-0.8-0.9c-0.3-0.7-0.7-1-1.4-0.8c-0.2,0.1-0.4,0-0.6,0.2c0.1,0.6,0.8,1,0.9,1.6c-0.7,0-0.8-0.5-1-0.8  c-0.6-0.9-1.3-1.1-2.4-0.8c0.5,0.6,0.9,1.1,1.2,1.9c-0.5-0.1-0.6-0.5-0.8-0.7c-0.7-1-0.9-1-2.1-0.5c0.1,0.8,0.7,1.3,0.9,2.1  c0,0.2,0.2,0.6,0.7,0.5c0.9-0.2,1.8-0.2,2.7-0.4c2.1-0.3,4.2-0.5,6.3-0.4c1.7,0.1,3.4,0.3,5,0.4c0.9,0.1,1.9,0.2,2.8,0.4  c2,0.4,4,0.9,6,1.2c1.2,0.1,2.3,0.6,3.3,1c0.6,0.3,1.2,0.8,2,0.4c0.1,0,0.2,0.1,0.3,0.1c1.3,0.9,2.9,1.4,4.3,2  c0.2,0.1,0.3,0.1,0.4,0c0.8-0.5,1.8-0.8,2.6-1.5c-0.8-0.8-1.4-1.5-2.5-1.6c0,0.1,0,0.2,0.1,0.3c0.1,0.4,0.8,0.9,0.4,1.1  c-0.6,0.3-0.6-0.5-0.8-0.9c-0.4-0.8-0.8-1.4-1.8-1.4c0.3,0.7,0.7,1.3,0.4,2.3c-0.6-1.6-0.9-3.1-2.8-3.3c-0.1,0.7,0.5,1.2,0.3,1.8  c-0.5-0.1-0.5-0.4-0.6-0.7c-0.2-0.5-0.3-0.9-0.6-1.3c-0.3-0.5-0.7-0.6-1.3-0.4c0.2,0.6,0.7,1.2,0.1,2c-0.4-1.5-0.6-2.9-2.5-2.7  c0,0.8,0.9,1.3,0.5,2.3c-0.6-0.9-0.6-2.1-1.4-2.5c-0.8-0.4-1.7-0.7-2.6-0.7c0.1,0.8,1,1.2,1.2,1.9c-0.4,0.1-0.6,0-0.7-0.2  c-0.4-0.5-0.7-1.1-1.3-1.6c-0.6-0.5-0.5-0.6-1.3-0.4c0.5,0.5,0.8,1,1.1,1.6c0.1,0.1,0,0.3-0.1,0.4c-0.2,0.1-0.3-0.1-0.4-0.2  c-0.2-0.7-0.7-1.3-1.2-1.8c-0.6-0.6-1.3-0.7-2-0.5C26.2,72.5,27.2,72.9,26.9,74z M59,90.9c-1.3-0.5-2.4-1.9-3.9-0.5  c0.5,0.4,1,0.8,1.5,1.2c0.1,0.1,0.3,0.3,0.1,0.5c-0.1,0.1-0.3,0-0.4-0.1c-0.2-0.2-0.4-0.4-0.7-0.5c-0.5-0.4-1-0.6-1.7-0.5  c-0.2,0.1-0.4,0.1-0.5,0.3c-0.1,0.3,0.2,0.3,0.4,0.4c0.6,0.3,1.2,0.4,1.7,1.1c-0.7,0.1-1.2-0.3-1.7-0.6c-0.8-0.5-1.4-0.7-2,0.2  c0.4,0.5,1.2,0.3,1.6,1c-0.8,0.1-1.5-0.6-2.1-0.4c-0.7,0.2-1.2,0.7-1.5,1.6c2.5-0.2,4.9-0.7,7.3-1.3c1.5-0.4,2.9-0.9,4.4-1.3  c2.5-0.7,5-1.3,7.3-2.5c1.4-0.8,2.8-1.6,3.9-2.8c0.5-0.5,0.5-1.4,1.5-1.5c-1.2-1.1-1.7-1.2-2.4-0.6c0.1,0.2,0.3,0.2,0.5,0.3  c0.2,0.1,0.4,0.2,0.3,0.4c-0.1,0.2-0.3,0.2-0.5,0c-0.5-0.4-1.2-0.6-1.9-0.6c0,0.6,1.1,0.5,0.8,1.2c-1.8-1-1.9-1-3.1-0.5  c0.5,0.5,1.3,0.5,1.8,1.1c-0.8,0.2-1.3-0.3-1.8-0.6c-0.6-0.3-1.1-0.4-1.7-0.1c0.4,0.6,1,0.7,1.4,1.1c0.1,0.1,0.2,0.3,0.1,0.4  c-0.1,0.2-0.3,0.1-0.4,0c-0.4-0.4-0.9-0.7-1.4-1c-0.6-0.4-1.2-0.3-1.8,0.1c1.5,1,1.5,1,1.6,1.6c-2.2-1.3-2.2-1.3-2.7-1.1  c0.3,0.5,1.1,0.6,1.2,1.4c-0.7-0.1-0.9-0.8-1.5-1c-0.5-0.2-1.1-0.4-1.6,0c0.5,0.6,1.4,0.7,1.7,1.5c-0.5,0.1-0.8-0.2-1-0.4  c-1.4-1-1.4-1-3.1,0c0.8,0.3,1.4,0.6,2,1.1c-0.3,0.3-0.5,0.2-0.7,0.1c-0.4-0.3-0.9-0.4-1.3-0.6c-0.7-0.4-1.2-0.2-1.8,0.3  C57.6,89.8,58.5,89.8,59,90.9z M18,83.8c0,0.4,0.4,0.5,0.5,0.7c0.1,0.1,0.4,0.2,0.2,0.3c-0.6,0.4,0,0.5,0.2,0.6  c0.6,0.6,1.2,1,1.9,1.4c0.9,0.5,1.9,1,2.7,1.6c1.4,1,2.9,1.7,4.5,2.3c0.7,0.3,1.4,0.8,2.2,0.8c0-0.4,0-0.8,0.4-1.1  c0.5-0.4,1-1,0.9-1.6c-0.2-1-0.9-1.7-1.7-2.5c-0.3,0.9,0.8,1.4,0.5,2.5c-0.8-1-0.7-2.6-2.3-2.9c0,0.6,0.5,1,0.4,1.5  c-0.7-0.1-0.6-0.8-0.8-1.2c-0.3-0.6-0.7-0.9-1.3-0.7c0,0.3,0.1,0.5,0.3,0.7c0.1,0.2,0.4,0.4,0.1,0.7c-0.8-0.7-0.9-2.3-2.4-2.2  c-0.2,0.6,0.7,0.9,0.2,1.6c-0.3-0.6-0.6-1.2-0.9-1.7c-0.4-0.7-1.1-0.3-1.7-0.5c0.3,0.9,0.9,1.4,0.9,2.3c-0.8-0.3-0.7-1.2-1.2-1.7  c-0.9-0.9-0.9-0.9-1.6-0.7c0.3,0.7,1,1.2,1.4,1.9c-0.5,0.1-0.7-0.2-0.9-0.4c-0.3-0.4-0.6-0.8-0.8-1.2C19.2,83.7,18.6,83.8,18,83.8z   M88.2,48.3c0.3-0.4,0.8-0.6,1.2-0.7c1-0.4,2-1,3-1.5c1.1-0.6,1.1-0.6,0.7-1.8c-0.2-0.5-0.4-1-0.7-1.5c-0.3-0.6-0.6-0.7-1.2-0.5  c-1.4,0.3-2.6,1-4,1.4c-1.6,0.4-1.7,0.7-0.9,2.1c0.2,0.4,0.5,0.6,1,0.4c1.1-0.6,2.3-0.9,3.4-1.6c0.6-0.4,1.2-0.8,2.3-0.9  c-2,1.5-4.1,2.1-6.1,3.3c1.1,0.9,1.1,2.3,1.8,3.4c1.5-0.9,2.9-1.7,4.4-2.5c0.3-0.1,0.6-0.3,0.8-0.5c0.5-0.4,0.1-0.9,0-1.2  c-0.2-0.3-0.4,0-0.7,0.2c-1.3,0.7-2.6,1.3-3.9,1.9C88.9,48.3,88.6,48.6,88.2,48.3z M85.9,28.6c-0.3-0.3-0.5-0.6-0.7-0.8  c-0.2-0.2-0.4-0.3-0.8-0.2c-1.4,0.6-2.9,1.1-4.2,2.1c-1.1,0.8-1.1,0.8-0.7,2.1c0.4,1.2,1.4,1.7,2.6,1.1c0.4-0.2,0.7-0.3,1.1-0.5  c1.5-0.6,2.9-1.5,4.6-1.9c-1-1.6-1.1-1.7-2.9-1c-0.1,0-0.2,0.1-0.3,0.2c-1.1,0.6-2.2,1.3-3.3,2c-0.3,0.2-0.7,0.5-1.4,0.4  C81.8,30.7,83.6,29.5,85.9,28.6z M42.6,54.4c1.3-0.9,2.6-1.5,4-1.9c0.9-0.3,1.9-0.4,2.8-1c-0.3-0.3-0.7-0.5-0.8-0.9  c-0.3-0.8-0.9-0.7-1.5-0.6c-1.4,0.4-2.9,0.8-4.3,1.3c-0.8,0.3-1.8,0.4-2.5,1C40.9,53.4,42,53.6,42.6,54.4z M90,52.3  c0.8-0.9,1.7-1.4,2.8-1.8c1-0.4,1.3-1,1.3-2c0-0.7-0.1-0.8-0.7-0.5c-1.4,0.8-2.7,1.6-4.1,2.3c-0.5,0.2-0.5,0.4-0.3,0.8  c0.5,1.1,1,2.2,1.5,3.4c0.7-1,1.8-1.4,2.8-1.8c0.3-0.1,0.4-0.2,0.4-0.5c0-0.5,0.1-1.1,0.1-1.7C92.5,51.1,91.3,51.9,90,52.3z   M46.8,43.2c-0.1-0.3-0.3-0.6-0.3-0.8c-0.1-0.7-0.5-0.8-1.1-0.8c-0.7,0-1.5,0.1-2.1,0.3c-0.9,0.3-1.9,0.5-2.8,0.7  c-2,0.4-2,0.4-2,2.7C41.2,44.6,43.9,43.7,46.8,43.2z M47,45.4c0-0.2,0-0.4,0-0.5c-0.1-1.2-0.1-1.2-1.3-1c-0.9,0.1-1.8,0.5-2.7,0.7  c-1.5,0.3-2.9,0.8-4.3,1.3c-0.5,0.2-0.7,0.9-0.5,1.5c0.2,0.6,0.7,0.2,1,0.1c0.5-0.1,1-0.3,1.5-0.5C42.7,46.3,44.7,45.8,47,45.4z   M47.9,49.4c-0.2-0.3-0.3-0.4-0.3-0.5c-0.3-0.7-0.7-0.8-1.4-0.7C44.1,48.5,42,49,40,49.8c-0.4,0.2-0.7,0.2-1.2,0.3  c0.2,0.5,0.6,0.9,0.9,1.3c0.2,0.3,0.4,0.3,0.7,0.2C42.9,50.9,45.4,50.2,47.9,49.4z M29.8,33.3c0.3,0.3,0.6,0.5,0.8,0.7  c0.8,0.7,1.6,1.1,2.6,0.3c0.2-0.1,0.4-0.2,0.7-0.3c1.3-0.5,2.5-1,3.8-1.4c0.3-0.1,0.6-0.1,0.6-0.4c0-0.4-0.2-0.7-0.4-1  c-0.3-0.2-0.7-0.1-1,0C34.6,31.9,32.3,32.6,29.8,33.3z M46.8,46c-1.1,0.2-2.2,0.4-3.3,0.7c-1.7,0.5-3.3,1.1-4.9,1.6  c-0.4,0.1-0.5,0.3-0.4,0.7c0.2,0.6,0.5,0.8,1.1,0.6c0.6-0.2,1.2-0.4,1.8-0.6c1.6-0.7,3.3-0.9,5-1.2c0.9-0.2,0.9-0.1,0.8-1.1  C46.9,46.5,46.9,46.3,46.8,46z M85.2,41.8c1.8-0.8,3.6-1.5,5.5-1.6c0-0.8-0.7-1.2-0.8-1.8c-0.1-0.5-0.4-0.5-0.8-0.4  c-1,0.3-2,0.6-3,1c-0.4,0.2-1.1-0.1-1.3,0.5c-0.1,0.4,0,0.9,0.1,1.4C85,41.2,85.1,41.4,85.2,41.8z M39.7,35  c-0.3-0.6-0.6-1.1-0.9-1.6c-0.2-0.3-0.4-0.5-0.8-0.4c-1.7,0.5-3.4,1-5,1.8c-0.2,0.1-0.3,0.2-0.3,0.4c0.4,0.3,0.9,0.6,1.3,0.9  c0.4,0.3,0.9,0.3,1.3,0.2C36.7,35.6,38.2,35.3,39.7,35z M38.4,40.9c0.2,1.6,0.2,1.6,1.6,1.3c1.8-0.3,3.5-1.1,5.3-1.3  c0.5,0,0.5-0.3,0.2-0.7c-0.4-0.6-1-1-1.8-0.8C41.9,39.8,40.2,40.4,38.4,40.9z M29.6,32.7c2.6-0.4,5-1.5,7.6-2.1  c0.3-0.1,0.5-0.2,0.4-0.6c-0.1-0.3-0.2-0.5-0.5-0.6c-0.2,0-0.4-0.1-0.6,0c-2.1,0.5-4.2,1-6.3,1.5c-1.2,0.3-1.2,0.4-0.7,1.6  C29.5,32.7,29.6,32.7,29.6,32.7z M56,55.6c-1.3-0.6-1.3-0.5-2.4,0c-1.9,1-3.5,2.4-5.4,3.5c0.2,0.2,0.3,0.4,0.5,0.6  c0.5,0.7,0.5,0.7,1.2,0.2C51.8,58.5,53.7,57,56,55.6z M43.8,38.8c0-0.1,0.1-0.2,0.1-0.2c-0.8-0.3-1.4-0.7-2-1.2  c-0.1-0.1-0.4,0-0.6,0c-1.4,0-2.5,0.7-3.8,1.1c0,0.6,0.6,1,0.6,1.6c0,0.2,0.3,0.3,0.5,0.2c0.4-0.1,0.8-0.2,1.2-0.3  C41.1,39.6,42.4,39.2,43.8,38.8z M56.6,55.9c-0.2,0-0.3,0-0.4,0c-1.7,1.2-3.5,2.5-5.2,3.7c-0.4,0.3-0.7,0.5-1,0.8  c-0.3,0.3-0.2,0.6,0,0.9c0.3,0.3,0.5,0.3,0.8,0c1.4-1,2.8-2.1,4.3-2.9c0.3-0.2,0.7-0.4,0.7-0.8C55.9,57.1,56.3,56.6,56.6,55.9z   M81.9,33.4c1.1,1.4,1.5,1.5,2.8,0.6c0.8-0.5,1.7-0.9,2.6-1.3c0.3-0.1,0.7-0.3,1-0.5c0.6-0.4-0.1-0.8-0.1-1.2c0-0.3-0.3-0.2-0.6-0.1  C85.6,31.6,83.9,32.7,81.9,33.4z M49.8,52c-1.1,0.4-2.1,0.7-3.2,1c-1,0.3-1.9,0.8-2.9,1.2c-0.3,0.1-0.5,0.4-0.3,0.8  c0.3,0.5,1.1,0.7,1.6,0.4c1.7-1,3.6-1.5,5.4-2.3C50.2,52.7,50,52.4,49.8,52z M89.1,35.4c-1.5,0.3-2.7,0.8-3.9,1.4  c-0.7,0.3-0.7,0.5-0.4,1.5c0.2,0.6,0.7,0.4,1,0.3c1.2-0.5,2.5-0.8,3.8-1.2C89.4,36.7,89.1,36.1,89.1,35.4z M83.6,35.1  c0,0.3,0.3,0.5,0.4,0.7c0.5,0.7,0.6,0.8,1.3,0.4c0.9-0.5,1.9-0.8,2.9-1.1c0.8-0.2,0.9-0.4,0.7-1.3c0-0.1,0-0.2-0.1-0.2  c-0.2-0.9-0.2-0.9-1-0.5C86.5,33.7,85,34.4,83.6,35.1z M35.2,36.8c0.5,0.3,1,0.6,1.3,1c0.4,0.5,0.8,0.4,1.3,0.3c1-0.3,2-0.9,3.1-0.8  c0.2,0,0.3-0.1,0.3-0.3c0-0.4-1.1-1.4-1.5-1.3C38.2,35.8,36.7,36,35.2,36.8z M84.4,26.9c-0.4-0.9-1-0.9-1.7-0.7  c-0.9,0.3-1.8,0.5-2.6,0.9c-1.4,0.6-1.4,0.6-1.1,2c0.1,0.5,0.3,0.6,0.6,0.3c0.7-0.6,1.5-0.9,2.3-1.4C82.7,27.7,83.6,27.6,84.4,26.9z   M83,25.7c-1-1.6-1-1.6-2.6-1.1c-0.3,0.1-0.7,0.2-1,0.3c-1.3,0.5-1.4,0.7-0.9,2c0.2,0.4,0.4,0.4,0.7,0.3  C80.4,26.5,81.7,26.1,83,25.7z M85.7,43.5c1.8-0.6,3.6-1.2,5.4-1.8c0.3-0.1,0.5-0.2,0.4-0.5c-0.1-0.3-0.2-0.7-0.6-0.6  c-1.1,0.3-2.3,0.1-3.4,0.7c-0.7,0.4-1.5,0.6-2.2,0.8C85.4,42.7,85.4,43.1,85.7,43.5z M50.7,62.4c0.2,0.2,0.4,0.4,0.5,0.6  c0.4,0.6,0.8,0.4,1.3,0.1c1.5-0.7,2-2.1,2.5-3.5c0.1-0.2,0.1-0.3-0.1-0.4c-0.1,0-0.3,0-0.3,0C53.4,60.4,51.8,61,50.7,62.4z   M37.8,28.4c-0.2-0.5-0.5-0.5-0.9-0.4c-1,0.3-2,0.3-3,0.4c-1.3,0.2-2.5,0.7-3.8,1.1c-0.1,0-0.2,0.1-0.2,0.1  c-0.1,0.3-0.4,0.5-0.2,0.7c0.1,0.3,0.4,0.1,0.6,0.1c2.3-0.6,4.6-1.2,6.9-1.6C37.6,28.9,37.7,28.7,37.8,28.4z M77.1,23.7  c0.3,0.5,0.4,1.1,1,1c1-0.3,2-0.7,3.1-0.9c0.3-0.1,0.4-0.3,0.2-0.7c-0.2-0.3-0.4-0.6-1-0.4C79.4,23.1,78.4,23.6,77.1,23.7z   M93.4,55.6c-0.6,0.2-1.1,0.4-1.6,0.6c-0.3,0.1-0.6,0.3-0.4,0.7c0.2,0.7,0.4,1.4,0.6,2.1c0,0.2,0.1,0.3,0.3,0.3  c0.3,0,0.4-0.2,0.4-0.4C92.8,57.8,93.6,56.9,93.4,55.6z M76.1,22.5c0.6,0.2,0.6,0.8,1.1,0.7c1.2-0.3,2.3-0.6,3.4-1.1  c0.3-0.1,0.4-0.3,0.3-0.6c-0.1-0.2-0.3-0.3-0.5-0.3c-0.2,0-0.4,0-0.6,0C78.7,21.7,77.5,22.1,76.1,22.5z M75.6,21.6  c0.2,0.4,0.6,0.4,0.9,0.3c1.4-0.4,2.7-0.9,4.1-1.2c-0.5-0.1-0.6-0.9-1.2-0.6c-1.1,0.5-2.2,0.8-3.3,1.1  C75.9,21.3,75.6,21.3,75.6,21.6z M93.5,53.5c-1,0.3-1.8,1-2.7,1.3c-0.3,0.1-0.3,0.4-0.2,0.6c0.1,0.3,0.2,0.6,0.6,0.4  c0.7-0.2,1.3-0.5,2-0.8c0.2-0.1,0.2-0.3,0.2-0.5C93.5,54.3,93.5,54,93.5,53.5z M59,69.6c-0.8,1-1.4,1.9-1.9,2.8  c1.9,0.2,2.2-0.1,2.1-1.8C59.1,70.3,59,70.1,59,69.6z M53.6,63.1c-0.5,0.2-0.8,0.5-1.3,0.7c-0.2,0.1-0.4,0.2-0.4,0.5  c0.1,0.5,0.1,1.1,0.6,1.5C53.1,64.9,53.4,64,53.6,63.1z M31.5,87.3c0.1,0.6,0.4,1,0.6,1.4C33,87.9,32.9,87.8,31.5,87.3z M73.7,84  c1,0.7,1.1,0.6,1.7-0.4C74.9,83.7,74.4,83.8,73.7,84z M16.7,83.6c0.3,0.4,0.5,0.8,1,0.6C17.5,83.8,17.3,83.6,16.7,83.6z"></path><path d="M23,20.2c1.5,0.1,3,0,4.5,0.1c1.4,0.1,2.8,0.2,4.2,0.1c0.8-0.1,1.7,0.2,2.5,0c0.1,0,0.2,0,0.2,0.2c0,0.2-0.1,0.2-0.2,0.2  c-0.4,0-0.8,0.1-1.2,0.1c-1.5-0.2-2.9,0-4.4-0.1c-2.6-0.2-5.1-0.1-7.7-0.1c-0.6,0-1.1-0.1-1.7-0.2c-0.2,0-0.3-0.1-0.2-0.3  c0-0.1,0.1-0.2,0.3-0.1C20.5,20.4,21.8,20.1,23,20.2z"></path><path d="M12.2,24.5c1.1-0.1,2.1-0.2,3.2-0.2c2.9-0.1,5.8-0.2,8.7-0.4c0.4,0,0.7-0.1,1.1-0.2c0.3,0,0.5,0.1,0.5,0.4  c0,0.3-0.2,0.2-0.4,0.2c-3.1,0.1-6.2,0.4-9.3,0.4C14.7,24.7,13.5,25.1,12.2,24.5z"></path><path d="M39.9,16.4c0.2-0.3,0.5-0.2,0.7-0.2c2.2,0,4.4-0.1,6.6,0.2c0.1,0,0.2,0,0.2,0c0.2,0,0.3,0.1,0.3,0.3c0,0.2-0.2,0.2-0.4,0.2  c-0.5-0.1-1-0.1-1.4-0.1c-2-0.2-3.9-0.2-5.9-0.2C40,16.6,39.9,16.6,39.9,16.4z"></path><path d="M20.2,26.6c0-0.3,0.2-0.4,0.4-0.4c1.4,0,2.7-0.2,4-0.5c0.4-0.1,1-0.3,1,0.2c0,0.6-0.6,0.3-0.9,0.3c-1.2,0.2-2.5,0.3-3.7,0.4  C20.8,26.7,20.5,26.8,20.2,26.6z"></path><path d="M36,18c0.9-0.6,1.8-0.3,2.7-0.2c0.1,0,0.2,0.1,0.2,0.3c0,0.2-0.1,0.3-0.3,0.3C37.7,18.1,36.9,18.3,36,18z"></path><path d="M9.9,27.6c-0.6,0.3-3.6,0.5-4,0.3C6.9,27.4,7.2,27.4,9.9,27.6z"></path><path d="M65.4,33.1c-0.1,0.4-0.3,0.6-0.5,0.6c-0.9-0.1-1.7,0.3-2.6,0.2c-0.2,0-0.4,0-0.6,0c-1.6,0.6-3.3,0.7-5.1,0.8  c-0.3,0-0.6,0.1-0.9,0.2c-0.4,0.1-0.8,0.1-1.3,0c1.7-0.7,3.6-0.5,5.4-1C61.7,33.6,63.5,33.4,65.4,33.1z"></path><path d="M68.6,28.5c-0.5,0.6-1.2,0.6-1.7,0.6c-1.3,0.1-2.6,0.4-3.9,0.6c-1,0.2-2,0.2-3,0.4c-0.2,0-0.3,0.1-0.4-0.1  c-0.1-0.2,0.1-0.4,0.3-0.4c0.8-0.1,1.7-0.2,2.5-0.3c1.9-0.4,3.8-0.6,5.7-0.9C68.3,28.4,68.5,28.5,68.6,28.5z"></path><path d="M66.6,25.3c0.3-0.7,0.8-0.7,1.2-0.8c1.2-0.3,2.4-0.1,3.5-0.7c0.1-0.1,0.3,0,0.3,0.2c0,0.1-0.1,0.2-0.2,0.3  c-0.8,0.5-1.6,0.4-2.4,0.5C68.2,24.8,67.5,25,66.6,25.3z"></path><path d="M61.8,36.6c0.6-0.5,1.4-0.6,3.4-0.6C64.8,36.5,62.9,36.8,61.8,36.6z"></path><path d="M67.3,31.3c-1,0.3-2.1,0.3-3.1,0.5c-0.1,0-0.2-0.1-0.2-0.3C65.5,31.1,66.6,31,67.3,31.3z"></path><path d="M67.4,27.3c0.5-0.5,1.2-0.5,1.8-0.7c0.1,0,0.2,0.1,0.3,0.2c0,0.1,0,0.3-0.2,0.3C68.7,27.1,68,27.2,67.4,27.3z"></path><path d="M48.8,89.9c1,0.2,1.7,0.7,2.2,1.6c-0.1,0.2-0.3,0.2-0.4,0.1c-0.5-0.5-1.1-0.9-1.7-1.3C48.8,90.2,48.8,90,48.8,89.9  C48.9,89.8,48.8,89.9,48.8,89.9z"></path><path d="M47.7,93.7c-0.5-0.3-1-0.6-1.5-0.9c-0.2-0.1-0.3-0.2-0.2-0.4c0.1-0.2,0.3-0.2,0.4-0.1C46.8,92.8,47.6,92.9,47.7,93.7z"></path><path d="M16.2,80.9c-0.5,0.2-0.6-0.2-0.8-0.3c-0.3-0.3-0.3-0.8-0.9-0.8c-0.1,0-0.2-0.4-0.3-0.6c-0.1-0.2,0-0.3,0.2-0.4  c0.1-0.1,0.2,0,0.3,0.1c0.2,0.2,0.3,0.5,0.5,0.7C15.5,80,15.8,80.4,16.2,80.9z"></path><path d="M19.6,81.3c-0.7-0.4-1.1-1-1.7-1.5c-0.2-0.1-0.1-0.4,0-0.5c0.1-0.1,0.3,0,0.3,0c0.5,0.6,1,1.1,1.4,1.7  C19.7,81.1,19.6,81.2,19.6,81.3z"></path><path d="M21.3,81.6c-0.5-0.6-1-1.1-1.4-1.7c-0.1-0.2-0.3-0.4,0-0.5c0.2-0.1,0.4,0.1,0.5,0.2c0.4,0.6,1,1.1,1.2,1.8  C21.5,81.4,21.4,81.5,21.3,81.6z"></path><path d="M17.6,81.3c-0.6-0.7-0.9-1.4-1.5-2C16,79.2,16,79,16.1,79c0.1-0.1,0.2,0,0.3,0.1C16.9,79.7,17.6,80.4,17.6,81.3z"></path><path d="M25.2,80.2c0.9,0.1,1,1.1,1.6,1.5c0,0,0,0.2-0.1,0.2c0,0-0.2,0.1-0.2,0.1C26.2,81.3,25.3,81,25.2,80.2  C25.3,80.2,25.2,80.2,25.2,80.2z"></path><path d="M87.7,21.1c-0.1,0.2-0.2,0.6-0.4,0.5c-1-0.4-2.1,0-3.1,0c-0.4,0-0.8,0-1.3,0C83.8,21.1,84.9,21,87.7,21.1  C87.7,21.2,87.7,21.1,87.7,21.1z"></path><path d="M87.9,22.7c-0.2,0.4-0.4,0.4-0.6,0.4c-0.8,0.1-1.6-0.1-2.4,0.2c-0.1,0.1-0.3,0-0.4-0.2c0-0.2,0.1-0.3,0.3-0.3  C85.8,22.8,86.8,22.4,87.9,22.7z"></path><path d="M90.2,28c-0.7,0.4-1.4,0.1-2.2,0.2C88.7,27.6,89.4,28,90.2,28z"></path></svg>