<svg xmlns="http://www.w3.org/2000/svg" xmlns:xlink="http://www.w3.org/1999/xlink" version="1.1" x="0px" y="0px" viewBox="0 0 100 100" enable-background="new 0 0 100 100" xml:space="preserve"><g><g><g><g><g><g><g><path d="M86.7,60.4c-1.8,3.5-4.9,6.7-7.8,9.4c-2.8,2.7-9.9,8.6-12.9,11c-1.5-1.2-3.9-3.2-6.3-5.2c-1.5-1.3-3-2.6-4.3-3.7         c-0.9-0.8-1.7-1.5-2.3-2.1l-0.1,0c-2.4-2.2-5.8-5.5-7.7-9.2c-1.9-3.8-1.9-7.2,0-10.5c1.9-3.2,5.6-5,9.8-5         c3.9,0,7.4,1.7,9.4,4.5l1.5,2.1l1.5-2.2c2-2.9,5.4-4.6,9.3-4.6c0.6,0,1.2,0,1.8,0.1c2,0.3,3.8,1,5.2,2c1.1,0.8,2.1,1.8,2.8,3         C88.7,53.3,88.7,56.7,86.7,60.4z"></path><path d="M82.2,28.5c2.2,3.8,3.2,7.8,3,11.9c-1.7-0.9-3.6-1.5-5.6-1.7c-0.1-2.5-0.8-5-2.2-7.4c-3-5.1-8.7-8.2-15.2-8.2         c-6,0-11.3,2.7-14.3,7.3l-2.3,3.4l-2.4-3.4c-3.1-4.4-8.6-7.1-14.6-7.1c-6.4,0-12,3-15,8c-3,5.2-3,10.6,0,16.7         c2.9,5.9,8.2,11.2,11.9,14.7l0.1,0.1c4.3,4.3,15.3,13.6,20,17.5c1.5-1.2,3.5-2.9,5.8-4.9c1.3,1.1,2.7,2.4,4.2,3.8         c-3.7,3.2-7,5.9-8.3,6.9l-1.8,1.4l-1.7-1.4C41,83.9,26.8,72,21.6,66.8c-4-3.8-9.7-9.6-13.1-16.3c-3.8-7.8-3.8-15.2,0.2-22         l0,0c4-6.8,11.4-10.8,19.9-10.8c6.5,0,12.6,2.5,16.8,6.7c4.2-4.4,10.2-6.9,16.7-6.9C70.7,17.5,78.2,21.6,82.2,28.5z"></path></g></g></g></g></g></g></g></svg>