<svg xmlns="http://www.w3.org/2000/svg" xmlns:xlink="http://www.w3.org/1999/xlink" version="1.1" x="0px" y="0px" viewBox="0 0 100 100" enable-background="new 0 0 100 100" xml:space="preserve"><g><path fill="#000000" d="M98.988,51.661c-0.047-0.047-0.195,0.027-0.244,0.047c-0.084,0.033-0.186,0.061-0.261,0.11   c-0.044,0.029-0.082,0.073-0.132,0.091c-0.035,0.012-0.071,0.005-0.105,0.013c-0.121,0.025-0.243,0.103-0.355,0.152   c-0.19,0.085-0.38,0.171-0.571,0.256c-0.164,0.073-0.323,0.168-0.491,0.23c-0.377,0.141-0.754,0.288-1.14,0.407   c-0.388,0.118-0.784,0.209-1.185,0.255c-0.201,0.024-0.406,0.013-0.606,0.039c-0.047,0.007-0.14,0.053-0.166-0.012   c-0.033-0.081,0.085-0.131,0.13-0.161c0.085-0.058,0.166-0.127,0.254-0.18c0.067-0.041,0.138-0.072,0.202-0.122   c0.128-0.1,0.238-0.229,0.357-0.333c0.107-0.097,0.231-0.191,0.317-0.313c0.056-0.079,0.09-0.169,0.154-0.241   c0.204-0.228,0.465-0.387,0.662-0.623c0.072-0.087,0.144-0.174,0.213-0.263c0.078-0.097,0.156-0.193,0.229-0.295   c0.062-0.089,0.105-0.192,0.163-0.285c0.215-0.343,0.533-0.607,0.665-1c0.057-0.165,0.192-0.254,0.277-0.398   c0.118-0.201,0.213-0.414,0.316-0.62c0.047-0.093,0.087-0.194,0.147-0.277c0.037-0.051,0.087-0.089,0.128-0.137   c0.125-0.143,0.174-0.366,0.229-0.547c0.064-0.208,0.122-0.418,0.2-0.618c0.066-0.173,0.131-0.346,0.192-0.519   c0.031-0.091,0.063-0.183,0.094-0.273c0.027-0.079,0.113-0.259-0.038-0.168c-0.195,0.118-0.397,0.227-0.604,0.332   c-0.093,0.048-0.157,0.125-0.251,0.176c-0.09,0.049-0.189,0.078-0.287,0.11c-0.11,0.037-0.216,0.111-0.319,0.165   c-0.099,0.053-0.198,0.104-0.299,0.156c-0.16,0.083-0.326,0.139-0.485,0.227c-0.18,0.099-0.361,0.197-0.545,0.291   c-0.206,0.105-0.409,0.218-0.616,0.327c-0.18,0.096-0.39,0.156-0.543,0.303c-0.082,0.077-0.188,0.132-0.297,0.145   c-0.126,0.016-0.234,0.087-0.345,0.147c-0.255,0.136-0.521,0.256-0.782,0.38c-0.269,0.128-0.537,0.283-0.816,0.382   c-0.289,0.103-0.566,0.24-0.854,0.353c-0.126,0.05-0.253,0.098-0.381,0.143c-0.08,0.03-0.165,0.051-0.244,0.088   c-0.062,0.029-0.107,0.073-0.174,0.086c-0.059,0.012-0.189,0.058-0.243,0.017c-0.073-0.056,0.042-0.168,0.072-0.216   c0.085-0.133,0.166-0.27,0.246-0.405c0.141-0.236,0.274-0.477,0.402-0.72c0.064-0.12,0.132-0.241,0.188-0.366   c0.041-0.092,0.093-0.179,0.132-0.272c0.077-0.184,0.18-0.354,0.253-0.538c0.072-0.18,0.146-0.359,0.216-0.539   c0.159-0.405,0.342-0.83,0.399-1.271c0.013-0.102,0.059-0.189,0.091-0.282c0.038-0.108,0.07-0.221,0.099-0.333   c0.055-0.226,0.094-0.457,0.13-0.688c0.027-0.171,0.012-0.324,0.012-0.496c0-0.1,0.025-0.19,0.048-0.284   c0.025-0.115,0.03-0.23,0.045-0.348c0.009-0.06,0.019-0.105-0.001-0.168c-0.027-0.007-0.051-0.031-0.078-0.026   c-0.016,0.002-0.01,0.019-0.02,0.023c-0.125,0.052-0.193,0.185-0.281,0.282c-0.118,0.132-0.24,0.262-0.362,0.392   c-0.141,0.151-0.248,0.36-0.413,0.483c-0.052,0.039-0.108,0.067-0.159,0.108c-0.078,0.064-0.16,0.134-0.228,0.211   c-0.053,0.061-0.087,0.134-0.143,0.193c-0.159,0.167-0.321,0.332-0.483,0.497c-0.162,0.166-0.315,0.334-0.498,0.472   c-0.188,0.142-0.38,0.277-0.559,0.437c-0.085,0.077-0.152,0.179-0.207,0.287c-0.047,0.096-0.078,0.151-0.144,0.229   c-0.114,0.136-0.259,0.223-0.389,0.335c-0.168,0.144-0.333,0.289-0.506,0.426c-0.108,0.086-0.183,0.219-0.288,0.313   c-0.159,0.145-0.32,0.287-0.483,0.428c-0.287,0.25-0.612,0.438-0.905,0.684c-0.116,0.099-0.201,0.232-0.322,0.326   c-0.165,0.129-0.334,0.254-0.503,0.376c-0.262,0.189-0.539,0.357-0.795,0.559c-0.078,0.062-0.183,0.095-0.271,0.139   c-0.101,0.051-0.201,0.102-0.302,0.151c-0.182,0.088-0.364,0.171-0.55,0.243c-0.131,0.053-0.229,0.151-0.353,0.217   c-0.177,0.096-0.38,0.146-0.568,0.205c-0.197,0.062-0.395,0.117-0.593,0.171c-0.184,0.05-0.379,0.076-0.543,0.194   s-0.351,0.154-0.536,0.203c-0.166,0.044-0.333,0.085-0.5,0.123c-0.363,0.082-0.753,0.197-1.123,0.203   c-0.385,0.006-0.771,0.058-1.157,0.079c-0.121,0.007-0.239,0.029-0.358,0.052c-0.155,0.03-0.321,0.015-0.479,0.013   c-0.406-0.005-0.815-0.003-1.222-0.046c-0.221-0.023-0.444-0.034-0.662-0.094c-0.101-0.027-0.194-0.081-0.296-0.103   c-0.121-0.026-0.24-0.055-0.361-0.085c-0.43-0.109-0.854-0.257-1.267-0.438c-0.087-0.038-0.175-0.049-0.262-0.086   c-0.107-0.045-0.213-0.095-0.318-0.145c-0.131-0.062-0.261-0.128-0.39-0.196c-0.105-0.057-0.193-0.129-0.304-0.178   c-0.08-0.034-0.122-0.062-0.196-0.126c-0.152-0.132-0.312-0.248-0.478-0.354c-0.063-0.041-0.121-0.059-0.189-0.082   c-0.076-0.026-0.143-0.088-0.209-0.138c-0.118-0.089-0.246-0.15-0.354-0.25c-0.071-0.069-0.147-0.133-0.228-0.188   c-0.187-0.134-0.327-0.321-0.493-0.482c-0.155-0.15-0.359-0.309-0.479-0.5c-0.115-0.186-0.269-0.307-0.411-0.459   c-0.161-0.172-0.307-0.376-0.45-0.568c-0.125-0.168-0.248-0.339-0.367-0.513c-0.056-0.082-0.125-0.132-0.168-0.227   c-0.042-0.092-0.066-0.195-0.125-0.275c-0.033-0.043-0.076-0.072-0.108-0.117c-0.053-0.072-0.098-0.157-0.145-0.235   c-0.091-0.154-0.184-0.308-0.278-0.46c-0.042-0.068-0.081-0.147-0.132-0.207c-0.034-0.041-0.079-0.065-0.113-0.106   c-0.104-0.127-0.172-0.308-0.255-0.454c-0.1-0.176-0.214-0.34-0.327-0.504c-0.129-0.188-0.256-0.427-0.417-0.575   c-0.157-0.144-0.268-0.332-0.378-0.525c-0.109-0.195-0.274-0.365-0.41-0.535c-0.062-0.077-0.124-0.154-0.186-0.231   c-0.051-0.061-0.056-0.102-0.082-0.174c-0.044-0.118-0.159-0.199-0.236-0.281c-0.133-0.141-0.28-0.253-0.423-0.376   c-0.05-0.042-0.075-0.1-0.117-0.15c-0.061-0.072-0.131-0.133-0.188-0.21c-0.046-0.062-0.075-0.136-0.115-0.202   c-0.057-0.093-0.138-0.149-0.215-0.215c-0.087-0.074-0.17-0.155-0.271-0.202c-0.089-0.042-0.156-0.105-0.233-0.172   c-0.169-0.145-0.341-0.284-0.518-0.414c-0.137-0.1-0.304-0.16-0.433-0.268c-0.022-0.02-0.048-0.037-0.073-0.053   c-0.093-0.06-0.196-0.103-0.278-0.181c-0.072-0.068-0.139-0.106-0.229-0.142c-0.226-0.09-0.459-0.171-0.681-0.258   c-0.132-0.052-0.265-0.093-0.399-0.134c-0.275-0.085-0.545-0.178-0.826-0.239c-0.213-0.046-0.428-0.083-0.646-0.11   c-0.786-0.099-1.597-0.068-2.407,0.096c-0.353,0.071-0.704,0.167-1.053,0.285c-0.137,0.046-0.297,0.081-0.426,0.158   c-0.131,0.079-0.26,0.133-0.398,0.177c-0.193,0.061-0.387,0.169-0.573,0.267c-0.116,0.061-0.232,0.135-0.351,0.191   c-0.033,0.016-0.069,0.021-0.103,0.038c-0.046,0.024-0.085,0.072-0.13,0.1c-0.248,0.155-0.495,0.31-0.735,0.479   c-0.087,0.061-0.171,0.13-0.26,0.188c-0.071,0.047-0.144,0.076-0.211,0.134c-0.073,0.062-0.137,0.135-0.211,0.195   c-0.143,0.118-0.283,0.237-0.42,0.362c-0.07,0.064-0.431,0.327-0.237,0.391c0.216,0.073,0.46,0.078,0.64,0.228   c0.091,0.075,0.171,0.126,0.283,0.172c0.123,0.051,0.25,0.098,0.372,0.153c0.202,0.092,0.383,0.214,0.546,0.367   c0.183,0.172,0.314,0.385,0.48,0.576c0.074,0.083,0.153,0.159,0.238,0.229c0.134,0.13,0.263,0.268,0.383,0.414   c0.104,0.125,0.222,0.263,0.294,0.414c0.077,0.164,0.194,0.299,0.304,0.44c0.117,0.153,0.237,0.3,0.333,0.473   c0.146,0.27,0.275,0.555,0.437,0.818c0.104,0.17,0.208,0.341,0.306,0.517c0.092,0.164,0.152,0.335,0.23,0.505   c0.175,0.381,0.342,0.769,0.504,1.162c0.091,0.226,0.183,0.452,0.271,0.681c0.037,0.096,0.061,0.184,0.085,0.282   c0.024,0.097,0.098,0.168,0.118,0.269c0.043,0.218,0.041,0.441,0.101,0.655c0.089,0.322,0.257,0.581,0.394,0.881   c0.146,0.318,0.283,0.644,0.431,0.963c0.144,0.31,0.284,0.603,0.369,0.943c0.049,0.195,0.184,0.364,0.259,0.552   c0.086,0.218,0.156,0.443,0.251,0.657c0.074,0.165,0.142,0.334,0.215,0.5c0.28,0.633,0.66,1.197,0.98,1.812   c0.105,0.204,0.203,0.432,0.343,0.61c0.135,0.17,0.186,0.452,0.268,0.658c0.048,0.122,0.13,0.221,0.199,0.328   c0.052,0.079,0.091,0.172,0.147,0.248c0.086,0.116,0.182,0.206,0.254,0.338c0.061,0.111,0.095,0.225,0.159,0.335   c0.168,0.285,0.348,0.56,0.538,0.827c0.098,0.136,0.196,0.269,0.298,0.4c0.087,0.115,0.156,0.235,0.239,0.353   c0.111,0.157,0.221,0.301,0.303,0.479c0.094,0.205,0.284,0.402,0.431,0.561c0.036,0.036,0.07,0.073,0.104,0.112   c0.083,0.106,0.152,0.219,0.243,0.317c0.196,0.214,0.395,0.4,0.567,0.645c0.055,0.069,0.103,0.146,0.144,0.229   c0.123,0.127,0.254,0.247,0.389,0.357c0.118,0.098,0.277,0.174,0.38,0.292c0.23,0.263,0.497,0.489,0.756,0.714   c0.209,0.183,0.435,0.327,0.632,0.53c0.06,0.062,0.103,0.137,0.157,0.207c0.175,0.221,0.423,0.366,0.639,0.517   c0.062,0.043,0.126,0.107,0.194,0.137c0.082,0.037,0.162,0.052,0.243,0.096c0.128,0.069,0.258,0.139,0.382,0.219   c0.506,0.326,1.024,0.62,1.546,0.902c0.202,0.109,0.402,0.224,0.613,0.308c0.078,0.031,0.148,0.066,0.225,0.109   c0.103,0.045,0.208,0.079,0.315,0.104c0.18,0.05,0.36,0.1,0.542,0.148c0.024,0.006,0.049,0.014,0.074,0.019   c0.095,1.315,0.345,4.393,0.329,4.611c-0.015,0.213-0.061,0.421-0.094,0.63c-0.03,0.02-0.06,0.038-0.087,0.054   c-0.337,0.187-0.922,0.215-1.766,0.719c-0.881,0.525,0.549,0.168,0.683,0.14c0.495-0.108,1.011-0.192,1.52-0.123   c0.077,0.011,0.161,0.038,0.249,0.071c-0.25,0.113-0.537,0.268-0.862,0.508c-0.893,0.657,0.547,0.194,0.681,0.156   c0.602-0.17,1.346-0.335,1.95-0.077c0.532,0.227,0.928,0.352,1.388,0.371c0.027-0.329-0.352-0.563-0.825-0.731   c-0.266-0.095-0.491-0.464-0.742-0.674c0.012-0.03,0.026-0.06,0.034-0.091c0.032-0.132,0.018-0.271,0.039-0.404   c0.031-0.201,0.055-0.336,0.024-0.538c-0.036-0.238-0.021-0.467-0.031-0.704c-0.007-0.124-0.163-1.961-0.3-3.371   c0.059,0.013,0.117,0.019,0.177,0.036c0.185,0.055,0.372,0.1,0.562,0.101c0.234,0,0.46,0.07,0.689,0.091   c0.199,0.016,0.398,0.029,0.598,0.039c0.1,0.004,0.199,0.009,0.299,0.012c0.08,0.002,0.209,0.035,0.285,0.005   c0.028-0.011,0.057-0.022,0.085-0.033c0.236-0.062,0.503-0.152,0.745-0.153c0.224-0.001,0.449-0.031,0.672-0.076   c0.075-0.015,0.134-0.061,0.204-0.089c0.105-0.042,0.219-0.075,0.329-0.096c0.213-0.043,0.429-0.038,0.644-0.04   c0.123-0.001,0.225,0,0.34-0.052c0.146-0.064,0.315-0.081,0.468-0.121c0.185-0.048,0.364-0.089,0.547-0.152   c0.19-0.066,0.383-0.129,0.577-0.179c0.32-0.082,0.626-0.203,0.94-0.319c0.149-0.054,0.28-0.104,0.414-0.199   s0.312-0.154,0.46-0.203c0.192-0.062,0.391-0.103,0.578-0.18c0.192-0.078,0.384-0.167,0.574-0.255   c0.165-0.075,0.33-0.152,0.495-0.23c0.077-0.037,0.145-0.051,0.225-0.071c0.097-0.024,0.195-0.099,0.281-0.158   c0.343-0.233,0.711-0.371,1.068-0.559c0.254-0.133,0.507-0.272,0.757-0.415c0.214-0.122,0.425-0.25,0.637-0.377   c0.157-0.094,0.315-0.079,0.473-0.186c0.393-0.264,0.759-0.574,1.133-0.871c0.347-0.276,0.706-0.538,1.054-0.817   c0.086-0.069,0.172-0.149,0.267-0.202c0.059-0.032,0.12-0.051,0.178-0.084c0.188-0.109,0.355-0.315,0.517-0.469   c0.087-0.083,0.192-0.16,0.267-0.259c0.06-0.079,0.138-0.141,0.194-0.222c0.031-0.048,0.056-0.092,0.097-0.136   c0.1-0.107,0.208-0.205,0.321-0.293c0.249-0.194,0.483-0.427,0.704-0.654c0.115-0.118,0.223-0.253,0.369-0.317   c0.148-0.066,0.296-0.1,0.372-0.271c0.094-0.208,0.23-0.404,0.359-0.589c0.264-0.379,0.561-0.727,0.873-1.052   c0.129-0.135,0.267-0.292,0.346-0.463c0.086-0.184,0.244-0.349,0.361-0.512c0.184-0.256,0.414-0.45,0.55-0.743   c0.138-0.299,0.333-0.562,0.503-0.839c0.047-0.076,0.104-0.154,0.134-0.239c0.02-0.053,0.026-0.106,0.054-0.156   c0.091-0.164,0.22-0.31,0.315-0.471c0.216-0.365,0.406-0.743,0.589-1.119c0.204-0.424,0.396-0.854,0.559-1.287   c0.024-0.062,0.047-0.126,0.069-0.188C98.977,51.756,99.021,51.693,98.988,51.661z M59.834,44.121   c-0.021-0.047-0.05-0.094-0.062-0.144c-0.046-0.167-0.088-0.322-0.186-0.468c-0.059-0.085-0.112-0.175-0.173-0.259   c-0.067-0.094-0.174-0.212-0.269-0.278c-0.103-0.072-0.184-0.172-0.291-0.24c-0.191-0.122-0.391-0.231-0.6-0.319   c-0.134-0.056-0.273-0.09-0.412-0.129c-0.059-0.017-0.118-0.045-0.178-0.061c-0.007-0.002-0.131-0.019-0.127-0.034   c0.055-0.063,0.168-0.053,0.242-0.059c0.103-0.009,0.204-0.014,0.307-0.014c0.203,0,0.41,0.021,0.603,0.087   c0.165,0.057,0.314,0.131,0.429,0.261c0.057,0.065,0.133,0.111,0.196,0.17c0.253,0.238,0.535,0.567,0.578,0.927   c0.014,0.114,0.006,0.235,0.012,0.351c0.002,0.041-0.01,0.084-0.007,0.121c0.001,0.038,0.037,0.092,0.019,0.128   C59.885,44.219,59.85,44.157,59.834,44.121z M65.808,52.905c-0.076-0.104-0.118-0.222-0.172-0.343   c-0.062-0.144-0.042-0.318-0.045-0.476c-0.002-0.147,0.069-0.306,0.149-0.419c0.102-0.146,0.222-0.282,0.376-0.354   c0.155-0.073,0.324-0.062,0.476,0.011c0.142,0.067,0.265,0.124,0.365,0.263c0.082,0.114,0.17,0.222,0.25,0.338   c0.013,0.018,0.024,0.036,0.035,0.055c0.05,0.082,0.104,0.155,0.155,0.232c0.052,0.077,0.064,0.187,0.108,0.27   c0.039,0.072,0.074,0.147,0.118,0.216c0.035,0.057,0.079,0.09,0.119,0.138c0.104,0.126,0.169,0.287,0.282,0.407   c0.11,0.119,0.235,0.244,0.325,0.385c0.124,0.192,0.274,0.347,0.445,0.485c0.18,0.146,0.353,0.296,0.55,0.411   c0.116,0.067,0.254,0.083,0.366,0.155c0.107,0.069,0.222,0.102,0.339,0.149c0.051,0.021,0.108,0.034,0.155,0.065   c0.041,0.025,0.068,0.05,0.114,0.064c0.115,0.039,0.238,0.054,0.346,0.118c0.055,0.033,0.079,0.068,0.082,0.103   c0.009,0.104-0.167,0.206-0.262,0.249c-0.076,0.035-0.172,0.047-0.251,0.071s-0.159,0.048-0.239,0.058   c-0.088,0.008-0.177,0.029-0.265,0.036c-0.093,0.008-0.193-0.01-0.286-0.013c-0.405-0.013-0.795-0.119-1.169-0.291   c-0.065-0.03-0.128-0.071-0.193-0.104c-0.079-0.038-0.143-0.101-0.219-0.144c-0.255-0.141-0.512-0.297-0.705-0.537   c-0.085-0.105-0.19-0.181-0.3-0.251c-0.088-0.057-0.131-0.139-0.203-0.218c-0.187-0.205-0.365-0.419-0.534-0.641   c-0.049-0.064-0.111-0.127-0.152-0.195C65.911,53.104,65.875,52.998,65.808,52.905z M66.846,57.007   c-0.071-0.047-0.134-0.108-0.207-0.155c-0.064-0.042-0.129-0.079-0.178-0.146c-0.019-0.026-0.032-0.052-0.054-0.076   c-0.091-0.1-0.16-0.219-0.252-0.313c-0.092-0.093-0.142-0.23-0.161-0.366c-0.031-0.224,0.147-0.494,0.347-0.527   c0.148-0.024,0.293,0.017,0.422,0.096c0.054,0.033,0.114,0.068,0.158,0.114c0.112,0.118,0.222,0.229,0.348,0.328   c0.093,0.074,0.154,0.186,0.254,0.254c0.083,0.058,0.168,0.108,0.251,0.167c0.155,0.111,0.31,0.226,0.471,0.327   c0.163,0.103,0.349,0.145,0.527,0.197c0.183,0.054,0.361,0.132,0.548,0.184c0.089,0.026,0.163,0.053,0.251,0.095   c0.09,0.043,0.183,0.08,0.279,0.104c0.161,0.044,0.336,0.066,0.491,0.135c0.062,0.027,0.09,0.059,0.093,0.09   c0.007,0.059-0.071,0.116-0.156,0.145c-0.076,0.025-0.146,0.019-0.225,0.022c-0.138,0.007-0.282,0.058-0.421,0.042   c-0.106-0.012-0.211,0.01-0.318,0.007c-0.101-0.003-0.198-0.018-0.298-0.027c-0.066-0.005-0.131,0.018-0.198,0.012   c-0.204-0.017-0.4-0.098-0.604-0.128c-0.166-0.023-0.322-0.054-0.481-0.118c-0.126-0.052-0.26-0.088-0.38-0.159   c-0.08-0.047-0.153-0.106-0.234-0.152C67.029,57.104,66.932,57.064,66.846,57.007z M70.876,58.909   c-0.033,0.034-0.055,0.078-0.093,0.106c-0.035,0.028-0.079,0.042-0.117,0.061c-0.085,0.04-0.149,0.118-0.229,0.163   c-0.094,0.053-0.189,0.101-0.285,0.15c-0.123,0.048-0.243,0.075-0.366,0.12c-0.214,0.079-0.443,0.104-0.664,0.149   c-0.152,0.032-0.315-0.057-0.473-0.035c-0.148,0.021-0.304,0.004-0.453-0.003c-0.161-0.006-0.341-0.076-0.498-0.118   c-0.234-0.062-0.491-0.148-0.566-0.443c-0.091-0.349,0.243-0.528,0.495-0.514c0.108,0.006,0.213,0.031,0.317,0.064   c0.156,0.05,0.322,0.054,0.474,0.127c0.164,0.08,0.367,0.1,0.545,0.129c0.075,0.013,0.149,0.029,0.224,0.041   c0.073,0.013,0.146-0.015,0.219-0.012c0.123,0.004,0.243,0.019,0.366,0.008c0.253-0.021,0.501-0.116,0.751-0.133   c0.074-0.004,0.419-0.152,0.471-0.047C71.021,58.781,70.903,58.879,70.876,58.909z M74.338,71.198   c0.017,0.113,0.016,0.229,0.015,0.342c-0.004,0.268,0.073,0.527,0.054,0.799c-0.016,0.222-0.065,0.438-0.099,0.658   c-0.03,0.023-0.059,0.046-0.086,0.064c-0.021,0.014-0.044,0.025-0.066,0.038c-0.066-0.038-0.136-0.074-0.205-0.105   c-0.11-0.049-0.425-0.232-0.665-0.36c0.009-0.024,0.021-0.049,0.028-0.074c0.032-0.132,0.018-0.271,0.039-0.404   c0.031-0.2,0.056-0.336,0.024-0.538c-0.025-0.172-0.186-2.601-0.278-4.045c0.254,0.073,0.512,0.137,0.768,0.192   c0.064,0.015,0.129,0.021,0.193,0.032C74.168,69.163,74.328,71.131,74.338,71.198z M80.315,57.626   c-0.021,0.148-0.052,0.238-0.124,0.359c-0.071,0.12-0.101,0.274-0.148,0.406c-0.142,0.397-0.3,0.843-0.527,1.195   c-0.206,0.317-0.38,0.654-0.581,0.976c-0.178,0.282-0.365,0.546-0.563,0.813c-0.235,0.32-0.478,0.648-0.727,0.948   c-0.099,0.119-0.194,0.241-0.287,0.366c-0.073,0.099-0.155,0.171-0.232,0.264c-0.164,0.194-0.389,0.342-0.526,0.562   c-0.232,0.369-0.516,0.694-0.772,1.04c-0.067,0.091-0.135,0.183-0.196,0.278c-0.033,0.052-0.063,0.148-0.109,0.188   c-0.118,0.104-0.224-0.068-0.269-0.167c-0.051-0.114-0.114-0.224-0.184-0.324c-0.186-0.268-0.256-0.603-0.451-0.863   c-0.083-0.11-0.144-0.2-0.202-0.331c-0.11-0.252-0.262-0.477-0.394-0.715c-0.12-0.217-0.235-0.434-0.367-0.644   c-0.104-0.164-0.194-0.337-0.287-0.507c-0.083-0.149-0.186-0.279-0.266-0.431c-0.072-0.135-0.111-0.295-0.183-0.436   c-0.095-0.188-0.187-0.378-0.275-0.57c-0.088-0.188-0.2-0.37-0.261-0.575c-0.042-0.146-0.101-0.284-0.169-0.417   c-0.065-0.127-0.081-0.279-0.123-0.421c-0.066-0.22-0.143-0.443-0.205-0.659c-0.021-0.077-0.067-0.143-0.086-0.219   c-0.017-0.07-0.021-0.147-0.037-0.219c-0.037-0.171-0.069-0.344-0.09-0.52c-0.014-0.134-0.021-0.269-0.021-0.403   c-0.002-0.102,0.02-0.201,0.019-0.3c0-0.096-0.001-0.184,0.017-0.278c0.035-0.187,0.106-0.362,0.161-0.543   c0.094-0.32,0.244-0.623,0.492-0.832c0.147-0.125,0.335-0.195,0.517-0.223c0.076-0.012,0.125,0.012,0.198,0.021   c0.11,0.016,0.222-0.017,0.332,0.006c0.252,0.053,0.44,0.247,0.64,0.4c0.113,0.087,0.218,0.188,0.314,0.295   c0.191,0.213,0.352,0.457,0.509,0.701c0.094,0.146,0.178,0.298,0.268,0.445c0.066,0.108,0.142,0.189,0.194,0.311   c0.075,0.174,0.164,0.322,0.21,0.516c0.035,0.146,0.052,0.278,0.111,0.417c0.057,0.133,0.127,0.262,0.191,0.39   c0.033,0.065,0.058,0.129,0.08,0.199c0.015,0.046,0.09,0.203,0.075,0.247c0.139-0.416,0.297-0.799,0.529-1.165   c0.066-0.102,0.128-0.21,0.172-0.325c0.054-0.141,0.083-0.291,0.145-0.43c0.062-0.144,0.157-0.247,0.259-0.355   c0.23-0.244,0.41-0.554,0.701-0.714c0.115-0.063,0.188-0.165,0.297-0.239c0.043-0.03,0.088-0.059,0.134-0.084   c0.117-0.066,0.242-0.119,0.364-0.166c0.178-0.067,0.423-0.1,0.609-0.094c0.303,0.01,0.587,0.134,0.793,0.376   c0.098,0.114,0.174,0.249,0.234,0.392c0.068,0.166,0.073,0.345,0.1,0.524c0.026,0.173,0.082,0.337,0.089,0.513   C80.416,56.946,80.364,57.293,80.315,57.626z M84.734,61.426c-0.142,0.268-0.418,0.286-0.67,0.288   c-0.167,0.001-0.364,0.023-0.529-0.011c-0.152-0.032-0.313-0.055-0.459-0.112c-0.154-0.06-0.337-0.015-0.484-0.084   c-0.214-0.102-0.439-0.183-0.64-0.313c-0.113-0.075-0.23-0.132-0.345-0.21c-0.085-0.072-0.172-0.142-0.255-0.217   c-0.071-0.064-0.12-0.156-0.196-0.217c-0.035-0.029-0.076-0.053-0.105-0.088c-0.031-0.038-0.045-0.087-0.07-0.129   c-0.022-0.036-0.119-0.16-0.077-0.209c0.075-0.089,0.391,0.142,0.465,0.165c0.25,0.079,0.48,0.235,0.731,0.318   c0.122,0.041,0.246,0.059,0.371,0.085c0.073,0.015,0.143,0.061,0.219,0.067c0.077,0.006,0.157,0.009,0.235,0.017   c0.186,0.017,0.396,0.048,0.579,0.012c0.169-0.033,0.338,0.006,0.506-0.004c0.114-0.007,0.225-0.004,0.336,0.018   C84.604,60.852,84.902,61.109,84.734,61.426z M86.562,58.69c-0.05,0.128-0.131,0.249-0.242,0.315   c-0.115,0.068-0.211,0.168-0.325,0.242c-0.026,0.018-0.045,0.039-0.069,0.061c-0.064,0.052-0.137,0.071-0.212,0.097   c-0.084,0.026-0.16,0.07-0.243,0.099c-0.1,0.033-0.207,0.047-0.309,0.075c-0.092,0.023-0.178,0.064-0.27,0.09   c-0.137,0.038-0.279,0.039-0.419,0.058c-0.175,0.021-0.338,0.012-0.512-0.007c-0.213-0.021-0.43,0.007-0.639-0.028   c-0.069-0.011-0.129-0.05-0.198-0.061c-0.103-0.016-0.205-0.026-0.307-0.05c-0.109-0.024-0.211-0.071-0.32-0.086   c-0.144-0.021-0.278-0.105-0.417-0.147c-0.078-0.023-0.15-0.035-0.222-0.078c-0.08-0.049-0.146-0.126-0.128-0.181   c0.011-0.029,0.046-0.053,0.114-0.063c0.172-0.027,0.354-0.006,0.526-0.007c0.104,0,0.205-0.013,0.306-0.031   c0.098-0.019,0.178-0.026,0.275-0.028c0.198-0.005,0.396-0.034,0.593-0.04c0.192-0.006,0.39,0,0.576-0.06   c0.185-0.058,0.366-0.129,0.548-0.198c0.096-0.036,0.193-0.063,0.289-0.099c0.115-0.042,0.202-0.134,0.312-0.183   c0.149-0.065,0.284-0.145,0.424-0.231c0.054-0.034,0.123-0.053,0.185-0.071c0.147-0.045,0.304-0.047,0.447,0.014   C86.52,58.174,86.641,58.48,86.562,58.69z M87.812,55.039c-0.038,0.153-0.056,0.328-0.149,0.451   c-0.081,0.104-0.15,0.209-0.249,0.29c-0.089,0.072-0.148,0.166-0.229,0.246c-0.057,0.056-0.133,0.101-0.195,0.15   c-0.221,0.174-0.447,0.336-0.681,0.488c-0.09,0.059-0.151,0.128-0.254,0.161c-0.124,0.04-0.248,0.086-0.356,0.167   c-0.248,0.185-0.542,0.271-0.83,0.345c-0.087,0.021-0.165,0.067-0.253,0.084c-0.073,0.015-0.146,0.038-0.218,0.051   c-0.415,0.073-0.831,0.078-1.245-0.013c-0.095-0.021-0.2-0.029-0.292-0.06c-0.088-0.028-0.173-0.071-0.259-0.103   c-0.08-0.028-0.155-0.072-0.23-0.115c-0.075-0.045-0.169-0.079-0.238-0.133c-0.087-0.066-0.241-0.21-0.21-0.308   c0.01-0.033,0.042-0.061,0.104-0.079c0.122-0.035,0.25-0.02,0.376-0.027c0.049-0.003,0.083-0.02,0.13-0.035   c0.054-0.018,0.115-0.015,0.171-0.022c0.129-0.018,0.251-0.021,0.376-0.061c0.127-0.042,0.271-0.022,0.402-0.059   c0.226-0.062,0.433-0.164,0.646-0.26c0.202-0.092,0.388-0.205,0.556-0.36c0.123-0.113,0.275-0.204,0.413-0.292   c0.141-0.088,0.241-0.228,0.374-0.324c0.051-0.036,0.103-0.058,0.15-0.103c0.059-0.057,0.11-0.12,0.166-0.18   c0.063-0.07,0.1-0.173,0.169-0.235c0.069-0.062,0.14-0.12,0.207-0.187c0.016-0.016,0.03-0.03,0.047-0.044   c0.107-0.093,0.22-0.176,0.327-0.266c0.132-0.109,0.27-0.134,0.426-0.163c0.17-0.032,0.343-0.001,0.485,0.11   c0.139,0.108,0.23,0.272,0.302,0.438C87.808,54.726,87.845,54.897,87.812,55.039z"></path><path fill="#000000" d="M35.853,23.366c0.007,0.108-0.006,0.218,0.021,0.32c0.027,0.105,0.047,0.213,0.053,0.323   c0.01,0.156,0.062,0.303,0.093,0.452c0.032,0.151,0.067,0.3,0.105,0.45c0.028,0.111,0.03,0.231,0.059,0.339   c0.033,0.119,0.086,0.229,0.12,0.348c0.04,0.137,0.075,0.274,0.123,0.408c0.061,0.17,0.107,0.342,0.158,0.516   c0.055,0.19,0.126,0.375,0.165,0.571c0.02,0.103,0.049,0.176,0.09,0.268c0.098,0.217,0.094,0.467,0.183,0.687   c0.033,0.083,0.061,0.171,0.078,0.261c0.016,0.077,0.063,0.216,0.164,0.161c0.04-0.021,0.076-0.084,0.108-0.117   c0.06-0.058,0.122-0.112,0.185-0.166c0.239-0.206,0.492-0.391,0.716-0.617c0.134-0.134,0.317-0.201,0.465-0.314   c0.07-0.053,0.14-0.091,0.207-0.15c0.087-0.074,0.175-0.145,0.265-0.213c0.225-0.173,0.449-0.368,0.669-0.558   c0.183-0.159,0.359-0.316,0.53-0.489c0.194-0.195,0.373-0.407,0.569-0.6c0.22-0.214,0.404-0.505,0.568-0.766   c0.055-0.086,0.101-0.191,0.17-0.264c0.071-0.075,0.107-0.135,0.147-0.236c0.087-0.23,0.18-0.468,0.226-0.71   c0.025-0.126,0.011-0.252,0.02-0.379c0.01-0.132,0.036-0.259,0.014-0.389c-0.021-0.111-0.054-0.219-0.104-0.316   c-0.108-0.206-0.289-0.339-0.503-0.395c-0.133-0.034-0.312-0.05-0.45-0.031c-0.093,0.013-0.19,0.03-0.284,0.059   c-0.038,0.011-0.073,0.024-0.109,0.039c-0.089,0.035-0.157,0.095-0.25,0.122c-0.232,0.067-0.41,0.258-0.612,0.395   c-0.09,0.061-0.175,0.119-0.242,0.211c-0.065,0.088-0.11,0.19-0.171,0.282c-0.049,0.075-0.111,0.143-0.174,0.204   c-0.225,0.223-0.399,0.47-0.564,0.744c0.018-0.029-0.011-0.153-0.015-0.188c-0.004-0.053-0.011-0.103-0.023-0.154   c-0.026-0.101-0.055-0.205-0.074-0.308c-0.021-0.109-0.011-0.206-0.012-0.315c-0.003-0.144-0.042-0.265-0.067-0.4   c-0.018-0.095-0.059-0.165-0.088-0.252c-0.04-0.12-0.075-0.242-0.119-0.36c-0.073-0.199-0.147-0.398-0.249-0.58   c-0.051-0.092-0.109-0.181-0.177-0.261c-0.117-0.141-0.22-0.309-0.39-0.386c-0.075-0.034-0.16-0.029-0.235-0.058   c-0.05-0.02-0.082-0.044-0.138-0.047c-0.134-0.01-0.279,0.01-0.403,0.075c-0.21,0.108-0.365,0.301-0.485,0.513   c-0.066,0.12-0.146,0.233-0.2,0.361c-0.028,0.064-0.041,0.127-0.058,0.195c-0.015,0.071-0.045,0.138-0.061,0.21   c-0.021,0.096-0.037,0.193-0.049,0.29c-0.014,0.128-0.02,0.256-0.021,0.385c0,0.052-0.009,0.108-0.008,0.161   c0.001,0.058,0.022,0.111,0.026,0.17C35.822,23.028,35.841,23.2,35.853,23.366z"></path><path fill="#000000" d="M47.439,47.109c-0.139-0.096-0.281-0.185-0.427-0.271c-0.073-0.045-0.139-0.104-0.212-0.149   c-0.069-0.043-0.143-0.057-0.215-0.088c-0.089-0.038-0.174-0.089-0.262-0.131c-0.244-0.116-0.493-0.215-0.744-0.315   c-0.046-0.019-0.083-0.057-0.131-0.07c-0.033-0.011-0.07-0.007-0.104-0.017c-0.119-0.029-0.237-0.078-0.354-0.114   c-0.188-0.056-0.384-0.121-0.578-0.143c-0.141-0.015-0.27-0.042-0.401-0.092c-0.13-0.049-0.292-0.052-0.43-0.069   c-0.351-0.048-0.704-0.073-1.059-0.079c-0.816-0.013-1.629,0.088-2.418,0.286c-0.217,0.055-0.433,0.116-0.646,0.186   c-0.283,0.091-0.551,0.207-0.827,0.314c-0.135,0.053-0.269,0.104-0.4,0.165c-0.221,0.102-0.454,0.198-0.68,0.3   c-0.091,0.042-0.158,0.081-0.229,0.148c-0.083,0.076-0.186,0.124-0.278,0.185c-0.025,0.017-0.05,0.034-0.073,0.053   c-0.129,0.106-0.296,0.174-0.433,0.272c-0.176,0.129-0.348,0.264-0.516,0.402c-0.078,0.064-0.145,0.124-0.234,0.168   c-0.101,0.048-0.183,0.124-0.269,0.193c-0.077,0.062-0.158,0.117-0.215,0.201c-0.04,0.06-0.068,0.125-0.115,0.181   c-0.057,0.07-0.126,0.127-0.187,0.193c-0.043,0.046-0.068,0.096-0.117,0.136c-0.143,0.114-0.289,0.22-0.421,0.348   c-0.078,0.075-0.192,0.15-0.235,0.253c-0.027,0.063-0.032,0.099-0.082,0.153c-0.062,0.068-0.124,0.137-0.187,0.206   c-0.135,0.152-0.299,0.304-0.408,0.474s-0.22,0.334-0.376,0.462c-0.16,0.132-0.287,0.339-0.416,0.502   c-0.112,0.143-0.227,0.286-0.325,0.438c-0.082,0.126-0.149,0.279-0.254,0.39c-0.033,0.035-0.078,0.058-0.112,0.093   c-0.051,0.052-0.09,0.119-0.132,0.178c-0.094,0.131-0.186,0.261-0.277,0.394c-0.046,0.066-0.091,0.138-0.143,0.201   c-0.032,0.038-0.075,0.063-0.108,0.1c-0.059,0.068-0.082,0.155-0.124,0.233c-0.043,0.08-0.112,0.124-0.168,0.193   c-0.118,0.147-0.24,0.293-0.365,0.436c-0.144,0.163-0.287,0.335-0.447,0.481c-0.142,0.128-0.294,0.23-0.409,0.387   c-0.118,0.161-0.321,0.294-0.476,0.422c-0.164,0.135-0.304,0.291-0.49,0.403c-0.079,0.047-0.154,0.101-0.226,0.158   c-0.107,0.083-0.233,0.135-0.352,0.21c-0.065,0.041-0.132,0.093-0.208,0.114c-0.067,0.021-0.124,0.035-0.188,0.069   c-0.164,0.088-0.323,0.186-0.474,0.295c-0.073,0.053-0.115,0.075-0.195,0.104c-0.109,0.04-0.196,0.101-0.302,0.147   c-0.128,0.057-0.257,0.11-0.387,0.162c-0.104,0.042-0.21,0.083-0.315,0.121c-0.087,0.03-0.174,0.039-0.261,0.07   c-0.411,0.149-0.831,0.271-1.258,0.361c-0.12,0.024-0.239,0.049-0.358,0.069c-0.101,0.018-0.193,0.062-0.295,0.085   c-0.215,0.05-0.438,0.058-0.657,0.077c-0.402,0.034-0.81,0.033-1.213,0.037c-0.156,0.001-0.321,0.014-0.476-0.012   c-0.118-0.019-0.235-0.037-0.355-0.042c-0.382-0.02-0.767-0.062-1.15-0.068c-0.367-0.006-0.755-0.102-1.116-0.171   c-0.166-0.032-0.332-0.066-0.497-0.104c-0.185-0.042-0.37-0.072-0.534-0.172c-0.162-0.099-0.357-0.123-0.54-0.165   c-0.197-0.047-0.394-0.095-0.589-0.147c-0.188-0.05-0.39-0.095-0.567-0.176c-0.123-0.057-0.219-0.142-0.351-0.186   c-0.185-0.064-0.366-0.135-0.546-0.213c-0.101-0.042-0.201-0.087-0.301-0.131c-0.087-0.038-0.191-0.068-0.269-0.122   c-0.255-0.174-0.531-0.32-0.792-0.488c-0.169-0.107-0.336-0.217-0.502-0.331c-0.12-0.082-0.204-0.198-0.322-0.287   c-0.292-0.219-0.616-0.389-0.903-0.613c-0.163-0.128-0.324-0.257-0.483-0.387c-0.105-0.086-0.179-0.205-0.288-0.284   c-0.173-0.126-0.338-0.26-0.505-0.393c-0.13-0.104-0.274-0.188-0.388-0.312c-0.065-0.072-0.097-0.122-0.144-0.208   c-0.054-0.099-0.122-0.191-0.208-0.264c-0.178-0.15-0.37-0.282-0.558-0.419c-0.183-0.133-0.337-0.293-0.5-0.451   s-0.324-0.317-0.484-0.479c-0.056-0.057-0.09-0.125-0.144-0.184c-0.067-0.074-0.15-0.144-0.228-0.208   c-0.051-0.042-0.107-0.072-0.16-0.111c-0.165-0.125-0.273-0.323-0.414-0.473c-0.122-0.13-0.245-0.259-0.363-0.391   c-0.088-0.099-0.157-0.226-0.283-0.286c-0.01-0.006-0.004-0.02-0.02-0.023c-0.027-0.008-0.052,0.012-0.078,0.015   c-0.02,0.057-0.009,0.099-0.002,0.153c0.016,0.108,0.02,0.214,0.046,0.321c0.022,0.088,0.047,0.172,0.047,0.263   c0,0.156-0.016,0.295,0.011,0.452c0.037,0.214,0.076,0.427,0.131,0.637c0.028,0.104,0.06,0.208,0.098,0.31   c0.032,0.087,0.08,0.171,0.092,0.264c0.057,0.404,0.241,0.801,0.4,1.176c0.07,0.167,0.145,0.333,0.217,0.499   c0.073,0.169,0.176,0.327,0.252,0.496c0.04,0.085,0.092,0.166,0.133,0.25c0.057,0.115,0.125,0.226,0.188,0.336   c0.128,0.223,0.263,0.441,0.403,0.656c0.081,0.124,0.162,0.246,0.247,0.367c0.031,0.044,0.146,0.146,0.073,0.193   c-0.054,0.035-0.186-0.009-0.244-0.021c-0.067-0.014-0.113-0.054-0.175-0.082c-0.079-0.034-0.164-0.057-0.245-0.085   c-0.128-0.044-0.255-0.091-0.382-0.14c-0.288-0.11-0.565-0.244-0.856-0.348c-0.28-0.101-0.55-0.253-0.82-0.382   c-0.263-0.126-0.53-0.249-0.786-0.39c-0.111-0.061-0.22-0.133-0.347-0.154c-0.111-0.019-0.217-0.075-0.299-0.152   c-0.154-0.145-0.366-0.216-0.547-0.318c-0.208-0.116-0.413-0.236-0.622-0.353c-0.185-0.103-0.368-0.211-0.549-0.32   c-0.161-0.098-0.328-0.165-0.49-0.26c-0.101-0.059-0.202-0.118-0.303-0.178c-0.104-0.062-0.21-0.145-0.322-0.191   c-0.099-0.042-0.2-0.08-0.291-0.138c-0.094-0.059-0.16-0.142-0.254-0.199c-0.208-0.126-0.413-0.257-0.611-0.397   c-0.153-0.108-0.066,0.08-0.039,0.162c0.032,0.094,0.063,0.188,0.096,0.281c0.062,0.18,0.127,0.357,0.195,0.535   c0.079,0.205,0.137,0.419,0.202,0.629c0.057,0.183,0.106,0.407,0.232,0.558c0.042,0.05,0.092,0.09,0.13,0.144   c0.061,0.086,0.101,0.188,0.148,0.282c0.105,0.208,0.201,0.421,0.321,0.624c0.085,0.145,0.224,0.238,0.279,0.4   c0.134,0.387,0.456,0.655,0.672,0.989c0.059,0.091,0.102,0.191,0.165,0.277c0.072,0.099,0.152,0.193,0.229,0.286   c0.071,0.086,0.143,0.171,0.215,0.255c0.199,0.228,0.462,0.38,0.667,0.597c0.065,0.068,0.1,0.153,0.156,0.228   c0.086,0.114,0.21,0.203,0.32,0.294C5.49,58.4,5.602,58.52,5.73,58.611c0.065,0.047,0.135,0.075,0.204,0.112   c0.088,0.048,0.169,0.112,0.256,0.165c0.045,0.027,0.163,0.072,0.13,0.148c-0.026,0.059-0.12,0.018-0.167,0.012   c-0.201-0.023-0.407-0.011-0.61-0.031c-0.404-0.04-0.803-0.121-1.193-0.231s-0.77-0.25-1.151-0.385   c-0.169-0.061-0.33-0.152-0.497-0.225c-0.193-0.083-0.385-0.168-0.578-0.253c-0.113-0.05-0.238-0.128-0.359-0.154   c-0.036-0.008-0.072-0.001-0.106-0.014c-0.05-0.018-0.09-0.062-0.134-0.091c-0.077-0.052-0.18-0.079-0.266-0.114   c-0.048-0.02-0.2-0.097-0.248-0.05c-0.032,0.03,0.014,0.095,0.028,0.133c0.023,0.063,0.045,0.126,0.069,0.188   c0.166,0.435,0.36,0.861,0.567,1.278c0.185,0.369,0.377,0.736,0.596,1.087c0.097,0.154,0.227,0.292,0.319,0.447   c0.028,0.048,0.035,0.101,0.054,0.151c0.03,0.082,0.088,0.153,0.136,0.226c0.172,0.261,0.37,0.506,0.509,0.785   c0.137,0.274,0.369,0.447,0.554,0.68c0.118,0.147,0.278,0.295,0.364,0.463c0.08,0.157,0.219,0.296,0.349,0.412   c0.315,0.284,0.615,0.587,0.88,0.918c0.129,0.162,0.268,0.332,0.361,0.517c0.077,0.152,0.225,0.17,0.375,0.218   c0.147,0.048,0.255,0.162,0.371,0.261c0.222,0.189,0.458,0.38,0.708,0.534c0.114,0.069,0.222,0.148,0.323,0.237   c0.04,0.035,0.064,0.072,0.097,0.113c0.056,0.067,0.134,0.117,0.194,0.183c0.074,0.081,0.18,0.142,0.268,0.208   c0.162,0.123,0.329,0.292,0.518,0.372c0.058,0.024,0.12,0.034,0.178,0.059c0.095,0.038,0.18,0.102,0.268,0.155   c0.347,0.216,0.708,0.414,1.056,0.626c0.374,0.228,0.74,0.466,1.132,0.659c0.157,0.079,0.315,0.053,0.473,0.12   c0.211,0.092,0.422,0.184,0.635,0.271c0.25,0.103,0.502,0.201,0.756,0.295c0.357,0.132,0.723,0.221,1.065,0.395   c0.086,0.043,0.184,0.1,0.28,0.113c0.079,0.012,0.146,0.018,0.224,0.044c0.164,0.055,0.329,0.108,0.494,0.161   c0.189,0.06,0.38,0.122,0.572,0.177c0.187,0.052,0.385,0.073,0.575,0.113c0.148,0.032,0.324,0.07,0.458,0.144   c0.133,0.072,0.264,0.106,0.412,0.144c0.313,0.079,0.617,0.164,0.936,0.216c0.193,0.032,0.385,0.075,0.575,0.122   c0.181,0.045,0.36,0.071,0.543,0.104c0.151,0.026,0.319,0.034,0.464,0.083c0.115,0.037,0.217,0.032,0.338,0.029   c0.213-0.006,0.428-0.016,0.641,0.012c0.109,0.015,0.221,0.038,0.326,0.07c0.07,0.021,0.128,0.059,0.202,0.068   c0.222,0.031,0.446,0.051,0.668,0.047c0.241-0.003,0.506,0.066,0.74,0.114c0.028,0.009,0.057,0.017,0.085,0.026   c0.074,0.023,0.204-0.006,0.282-0.008c0.1-0.004,0.198-0.009,0.298-0.013c0.197-0.01,0.395-0.021,0.593-0.037   c0.229-0.017,0.452-0.074,0.685-0.074c0.144-0.001,0.286-0.024,0.428-0.053c0,0.161,0,0.321-0.022,0.485   c-0.029,0.203-0.004,0.338,0.029,0.538c0.022,0.133,0.01,0.273,0.043,0.404c0.009,0.032,0.023,0.062,0.036,0.093   c-0.237,0.153-0.55,0.376-0.659,0.435c-0.331,0.177-0.575,0.368-0.705,0.737c-0.075,0.213-0.25,0.821-0.125,0.847   c0.18,0.035,0.271-0.151,0.345-0.265c0.107-0.162,0.212-0.303,0.379-0.416c0.857-0.581,1.647-0.491,2.546-0.246   c0.134,0.037,1.579,0.485,0.679-0.163c-0.328-0.236-0.616-0.389-0.866-0.5c0.087-0.034,0.17-0.062,0.247-0.073   c0.508-0.074,1.024,0.004,1.521,0.106c0.134,0.027,1.567,0.371,0.682-0.146c-0.849-0.495-1.436-0.519-1.773-0.701   c-0.027-0.015-0.057-0.033-0.087-0.052c-0.036-0.209-0.084-0.417-0.101-0.629c-0.021-0.271,0.052-0.532,0.046-0.799   c-0.001-0.021,0.002-0.041,0.002-0.062c0.024-0.01,0.049-0.021,0.076-0.027c0.087-0.02,0.176-0.034,0.263-0.052   c0.18-0.035,0.358-0.07,0.538-0.107c0.106-0.017,0.211-0.042,0.313-0.075c0.075-0.033,0.146-0.061,0.224-0.084   c0.208-0.062,0.408-0.149,0.609-0.233c0.518-0.215,1.033-0.437,1.537-0.686c0.122-0.061,0.252-0.113,0.379-0.164   c0.081-0.033,0.16-0.042,0.242-0.068c0.067-0.021,0.132-0.071,0.193-0.104c0.215-0.115,0.462-0.224,0.636-0.4   c0.054-0.055,0.097-0.116,0.157-0.165c0.195-0.16,0.42-0.271,0.628-0.412c0.258-0.176,0.523-0.352,0.753-0.562   c0.103-0.094,0.261-0.149,0.379-0.225c0.135-0.086,0.265-0.181,0.388-0.282c0.04-0.068,0.088-0.13,0.144-0.187   c0.172-0.198,0.37-0.345,0.565-0.518c0.09-0.078,0.161-0.172,0.242-0.258c0.034-0.031,0.068-0.062,0.104-0.09   c0.146-0.128,0.336-0.286,0.43-0.458c0.082-0.149,0.191-0.267,0.303-0.396c0.082-0.096,0.151-0.196,0.238-0.291   c0.102-0.108,0.201-0.22,0.297-0.332c0.19-0.222,0.372-0.452,0.539-0.691c0.064-0.093,0.098-0.19,0.158-0.284   c0.073-0.112,0.168-0.187,0.254-0.284c0.057-0.064,0.096-0.143,0.148-0.211c0.069-0.091,0.15-0.174,0.198-0.279   c0.083-0.177,0.135-0.422,0.268-0.567c0.141-0.151,0.237-0.349,0.345-0.525c0.319-0.532,0.701-1.023,0.98-1.582   c0.074-0.147,0.142-0.297,0.216-0.443c0.096-0.19,0.165-0.391,0.252-0.585c0.075-0.168,0.21-0.319,0.259-0.495   c0.086-0.306,0.227-0.569,0.371-0.851c0.148-0.29,0.285-0.586,0.432-0.877c0.138-0.274,0.307-0.515,0.396-0.812   c0.06-0.196,0.058-0.4,0.102-0.601c0.021-0.093,0.094-0.16,0.118-0.251c0.024-0.09,0.048-0.172,0.085-0.261   c0.091-0.214,0.182-0.426,0.274-0.639c0.162-0.369,0.329-0.738,0.505-1.102c0.079-0.163,0.14-0.325,0.231-0.485   c0.1-0.171,0.205-0.338,0.31-0.505c0.162-0.26,0.291-0.539,0.439-0.806c0.097-0.173,0.218-0.323,0.336-0.48   c0.109-0.146,0.228-0.286,0.307-0.45c0.073-0.152,0.191-0.298,0.296-0.43c0.122-0.155,0.251-0.304,0.387-0.446   c0.085-0.079,0.166-0.163,0.239-0.253c0.168-0.208,0.301-0.434,0.486-0.629c0.165-0.174,0.348-0.322,0.552-0.447   c0.123-0.076,0.251-0.145,0.377-0.217c0.114-0.065,0.194-0.132,0.285-0.222c0.183-0.182,0.431-0.235,0.649-0.353   C47.876,47.346,47.511,47.158,47.439,47.109z M12.21,61.609c-0.063-0.042-0.141-0.078-0.199-0.125   c-0.083-0.067-0.145-0.148-0.235-0.21c-0.102-0.068-0.174-0.158-0.257-0.248c-0.099-0.105-0.124-0.262-0.167-0.397   c-0.04-0.125-0.01-0.281,0.039-0.4c0.062-0.153,0.146-0.305,0.277-0.409c0.135-0.106,0.303-0.142,0.472-0.122   c0.155,0.018,0.291,0.033,0.426,0.125c0.11,0.075,0.225,0.145,0.333,0.222c0.017,0.012,0.033,0.024,0.048,0.038   c0.07,0.056,0.142,0.104,0.212,0.156c0.071,0.052,0.111,0.143,0.177,0.202c0.057,0.052,0.111,0.106,0.172,0.153   c0.049,0.039,0.101,0.055,0.152,0.086c0.134,0.079,0.24,0.199,0.382,0.272c0.14,0.071,0.294,0.146,0.419,0.24   c0.172,0.132,0.36,0.224,0.562,0.296c0.215,0.075,0.423,0.157,0.648,0.201c0.131,0.026,0.272,0.002,0.399,0.032   c0.124,0.03,0.244,0.027,0.372,0.036c0.056,0.004,0.116-0.001,0.17,0.013c0.046,0.01,0.08,0.023,0.129,0.023   c0.124,0.002,0.249-0.02,0.37,0.007c0.062,0.013,0.095,0.036,0.107,0.065c0.035,0.086-0.111,0.223-0.193,0.286   c-0.066,0.052-0.157,0.087-0.229,0.131c-0.071,0.043-0.143,0.085-0.221,0.115c-0.083,0.032-0.166,0.075-0.25,0.104   c-0.089,0.032-0.193,0.045-0.285,0.068c-0.402,0.102-0.812,0.118-1.224,0.072c-0.072-0.008-0.145-0.025-0.217-0.034   c-0.087-0.012-0.166-0.048-0.253-0.063c-0.287-0.052-0.579-0.115-0.831-0.268c-0.11-0.067-0.234-0.103-0.359-0.133   c-0.103-0.024-0.166-0.084-0.257-0.132C12.665,61.889,12.435,61.754,12.21,61.609z M14.431,64.638   c-0.091-0.018-0.178-0.05-0.27-0.067c-0.101-0.02-0.207-0.026-0.307-0.052c-0.083-0.021-0.16-0.057-0.243-0.077   c-0.075-0.018-0.147-0.032-0.213-0.076c-0.026-0.017-0.044-0.036-0.072-0.05c-0.115-0.061-0.213-0.146-0.33-0.201   c-0.113-0.055-0.198-0.158-0.252-0.271c-0.088-0.184,0.017-0.465,0.205-0.549c0.139-0.062,0.292-0.067,0.44-0.034   c0.061,0.014,0.129,0.026,0.185,0.055c0.141,0.07,0.277,0.135,0.427,0.186c0.11,0.038,0.199,0.117,0.314,0.148   c0.097,0.027,0.194,0.047,0.29,0.075c0.182,0.053,0.363,0.107,0.547,0.151c0.186,0.043,0.38,0.028,0.569,0.024   c0.194-0.005,0.391,0.012,0.586,0.007c0.095-0.003,0.175-0.001,0.271,0.011c0.1,0.013,0.202,0.019,0.303,0.014   c0.17-0.008,0.347-0.035,0.518-0.021c0.068,0.007,0.104,0.026,0.114,0.051c0.022,0.05-0.04,0.12-0.116,0.169   c-0.068,0.043-0.139,0.057-0.215,0.081c-0.135,0.045-0.263,0.128-0.403,0.152c-0.107,0.02-0.205,0.067-0.311,0.094   c-0.1,0.025-0.2,0.041-0.3,0.06c-0.067,0.013-0.125,0.051-0.191,0.064c-0.206,0.042-0.42,0.026-0.627,0.057   c-0.17,0.025-0.331,0.043-0.503,0.031C14.708,64.659,14.567,64.665,14.431,64.638z M18.308,65.041   c-0.024,0.04-0.034,0.083-0.064,0.118c-0.027,0.033-0.066,0.058-0.1,0.084c-0.072,0.058-0.116,0.144-0.183,0.205   c-0.079,0.071-0.162,0.138-0.241,0.207c-0.109,0.076-0.221,0.132-0.33,0.205c-0.19,0.128-0.41,0.211-0.615,0.312   c-0.141,0.069-0.324,0.038-0.473,0.101c-0.141,0.059-0.298,0.087-0.447,0.123c-0.161,0.039-0.355,0.028-0.521,0.035   c-0.247,0.012-0.521,0.008-0.672-0.225c-0.179-0.275,0.103-0.521,0.354-0.58c0.109-0.024,0.218-0.032,0.329-0.031   c0.167,0,0.331-0.044,0.498-0.022c0.182,0.023,0.387-0.015,0.569-0.039c0.077-0.011,0.155-0.018,0.231-0.026   c0.075-0.01,0.14-0.054,0.212-0.071c0.121-0.03,0.243-0.051,0.361-0.094c0.243-0.088,0.462-0.239,0.705-0.322   c0.072-0.024,0.372-0.247,0.451-0.171C18.418,64.892,18.328,65.008,18.308,65.041z M26.055,72.582   c-0.069,0.031-0.138,0.068-0.203,0.107c-0.022-0.013-0.047-0.023-0.067-0.037c-0.027-0.019-0.056-0.041-0.086-0.063   c-0.036-0.22-0.088-0.437-0.105-0.658c-0.021-0.271,0.051-0.531,0.046-0.799c-0.001-0.047,0.004-0.095,0.004-0.142   c0.159-0.018,0.318-0.033,0.479-0.061c0.171-0.028,0.343-0.057,0.514-0.09c0,0.119-0.004,0.238-0.021,0.358   c-0.029,0.203-0.004,0.339,0.029,0.538c0.022,0.134,0.01,0.273,0.043,0.404c0.007,0.025,0.02,0.05,0.029,0.074   C26.477,72.345,26.165,72.531,26.055,72.582z M28.572,61.763c-0.024,0.085-0.063,0.165-0.092,0.247   c-0.025,0.074-0.038,0.155-0.06,0.23c-0.094,0.331-0.191,0.654-0.344,0.966c-0.075,0.151-0.15,0.303-0.226,0.453   c-0.065,0.131-0.119,0.274-0.214,0.386c-0.1,0.116-0.168,0.271-0.25,0.401c-0.147,0.233-0.33,0.435-0.505,0.648   c-0.039,0.048-0.079,0.099-0.103,0.157c-0.019,0.048-0.013,0.096-0.036,0.142c-0.068,0.132-0.187,0.256-0.274,0.375   c-0.171,0.229-0.335,0.467-0.517,0.683c-0.115,0.135-0.23,0.267-0.339,0.407c-0.099,0.128-0.17,0.266-0.266,0.396   c-0.213,0.285-0.421,0.573-0.62,0.868c-0.074,0.111-0.162,0.223-0.213,0.347c-0.032,0.079-0.09,0.062-0.158,0.022   c-0.13-0.074-0.223-0.196-0.333-0.295c-0.056-0.051-0.113-0.102-0.17-0.151c-0.052-0.046-0.125-0.091-0.167-0.145   c-0.028-0.036-0.044-0.077-0.078-0.111c-0.035-0.035-0.074-0.065-0.105-0.104c-0.109-0.133-0.209-0.26-0.36-0.346   c-0.133-0.075-0.225-0.189-0.347-0.278c-0.119-0.088-0.254-0.169-0.39-0.227c-0.107-0.048-0.199-0.127-0.288-0.204   c-0.08-0.068-0.175-0.114-0.248-0.189c-0.193-0.193-0.394-0.379-0.6-0.559c-0.079-0.067-0.156-0.151-0.246-0.206   c-0.293-0.179-0.566-0.39-0.787-0.656c-0.059-0.071-0.124-0.139-0.191-0.202c-0.051-0.049-0.104-0.095-0.157-0.143   c-0.118-0.106-0.204-0.242-0.312-0.354c-0.254-0.264-0.462-0.566-0.676-0.863c-0.119-0.165-0.192-0.34-0.284-0.519   c-0.105-0.206-0.197-0.417-0.273-0.636c-0.074-0.211-0.111-0.448-0.131-0.671c-0.009-0.099-0.001-0.196,0.003-0.296   c0.003-0.08-0.013-0.16-0.003-0.238c0.015-0.116,0.042-0.233,0.079-0.345c0.042-0.127,0.105-0.239,0.172-0.355   c0.142-0.246,0.405-0.464,0.689-0.503c0.184-0.026,0.354-0.048,0.542-0.038c0.125,0.008,0.25,0.021,0.375,0.03   c0.119,0.008,0.222,0.007,0.337,0.041c0.127,0.038,0.252,0.082,0.375,0.134c0.223,0.094,0.443,0.158,0.625,0.324   c0.086,0.078,0.197,0.135,0.292,0.204c0.145,0.107,0.283,0.222,0.416,0.342c0.062,0.058,0.129,0.114,0.188,0.173   c0.066,0.067,0.111,0.157,0.173,0.229c0.054,0.062,0.118,0.112,0.176,0.169c0.083,0.079,0.142,0.172,0.206,0.268   c0.119,0.177,0.267,0.337,0.379,0.516c0.116,0.186,0.223,0.377,0.32,0.572c-0.018-0.036,0.035-0.178,0.044-0.22   c0.071-0.338,0.112-0.694,0.234-1.019c0.097-0.261,0.279-0.563,0.437-0.794c0.071-0.104,0.153-0.202,0.215-0.312   c0.051-0.093,0.11-0.181,0.17-0.269c0.057-0.081,0.107-0.184,0.183-0.249c0.162-0.142,0.309-0.301,0.482-0.433   c0.105-0.081,0.218-0.145,0.329-0.215c0.013-0.007,0.024-0.015,0.037-0.021c0.146-0.096,0.288-0.203,0.456-0.258   c0.1-0.032,0.207-0.036,0.312-0.052c0.097-0.015,0.194-0.028,0.293-0.035c0.074-0.006,0.124,0.013,0.194,0.028   c0.141,0.034,0.278,0.049,0.415,0.101c0.254,0.097,0.48,0.258,0.664,0.456c0.186,0.199,0.381,0.466,0.425,0.738   c0.023,0.145,0.117,0.283,0.161,0.425c0.049,0.153,0.074,0.315,0.06,0.478C28.65,61.396,28.625,61.583,28.572,61.763z    M32.917,64.079c-0.106,0.257-0.375,0.309-0.62,0.343c-0.163,0.023-0.354,0.069-0.518,0.06c-0.153-0.009-0.312-0.007-0.462-0.039   c-0.157-0.034-0.331,0.03-0.483-0.013c-0.22-0.062-0.451-0.104-0.661-0.195c-0.12-0.053-0.24-0.087-0.361-0.142   c-0.091-0.054-0.185-0.104-0.275-0.16c-0.077-0.048-0.135-0.124-0.217-0.168c-0.038-0.021-0.081-0.036-0.113-0.064   c-0.036-0.028-0.054-0.07-0.084-0.104c-0.026-0.029-0.136-0.127-0.101-0.177c0.062-0.089,0.398,0.075,0.475,0.087   c0.252,0.037,0.496,0.146,0.751,0.188c0.124,0.02,0.247,0.02,0.372,0.026c0.074,0.005,0.146,0.035,0.221,0.031   c0.077-0.004,0.155-0.012,0.233-0.017c0.183-0.009,0.392-0.008,0.566-0.063c0.16-0.052,0.33-0.039,0.494-0.07   c0.109-0.021,0.218-0.033,0.329-0.027C32.721,63.585,33.042,63.775,32.917,64.079z M34.374,61.404   c-0.032,0.121-0.097,0.239-0.198,0.313c-0.104,0.075-0.186,0.177-0.287,0.257c-0.025,0.02-0.041,0.041-0.062,0.062   c-0.057,0.056-0.124,0.082-0.195,0.114c-0.078,0.035-0.147,0.085-0.226,0.12c-0.093,0.043-0.195,0.069-0.292,0.107   c-0.086,0.033-0.167,0.08-0.253,0.114c-0.129,0.052-0.268,0.072-0.401,0.106c-0.168,0.043-0.329,0.055-0.501,0.062   c-0.209,0.008-0.417,0.061-0.627,0.058c-0.068-0.001-0.132-0.027-0.2-0.028c-0.102,0-0.202,0.003-0.306-0.004   c-0.109-0.008-0.214-0.036-0.322-0.035c-0.143,0.001-0.284-0.058-0.425-0.076c-0.079-0.012-0.15-0.013-0.226-0.041   c-0.084-0.034-0.158-0.093-0.146-0.145c0.007-0.027,0.037-0.052,0.104-0.071c0.164-0.046,0.344-0.051,0.513-0.074   c0.101-0.014,0.198-0.039,0.295-0.068c0.092-0.028,0.171-0.046,0.265-0.061c0.193-0.03,0.384-0.082,0.574-0.113   c0.187-0.03,0.38-0.051,0.555-0.128c0.174-0.075,0.343-0.162,0.512-0.248c0.09-0.045,0.182-0.083,0.271-0.126   c0.107-0.052,0.181-0.146,0.282-0.203c0.138-0.077,0.26-0.166,0.386-0.261c0.049-0.038,0.114-0.063,0.171-0.088   c0.14-0.059,0.291-0.082,0.439-0.046C34.272,60.95,34.428,61.208,34.374,61.404z M35.068,58.414   c-0.066,0.103-0.121,0.204-0.209,0.289c-0.077,0.077-0.124,0.168-0.192,0.249c-0.05,0.057-0.119,0.107-0.175,0.159   c-0.193,0.184-0.395,0.357-0.604,0.523c-0.081,0.064-0.133,0.134-0.229,0.177c-0.118,0.052-0.233,0.109-0.329,0.195   c-0.22,0.195-0.496,0.312-0.77,0.415c-0.082,0.03-0.152,0.081-0.237,0.107c-0.068,0.022-0.137,0.054-0.206,0.074   c-0.396,0.119-0.803,0.178-1.217,0.15c-0.095-0.006-0.199,0.001-0.293-0.014c-0.088-0.015-0.177-0.041-0.265-0.059   c-0.082-0.015-0.16-0.043-0.237-0.073c-0.079-0.029-0.175-0.048-0.249-0.086c-0.093-0.048-0.261-0.155-0.242-0.247   c0.007-0.03,0.034-0.06,0.093-0.084c0.116-0.047,0.242-0.049,0.363-0.073c0.049-0.009,0.079-0.028,0.123-0.048   c0.051-0.021,0.111-0.028,0.165-0.043c0.123-0.032,0.242-0.051,0.358-0.104c0.12-0.052,0.263-0.055,0.388-0.104   c0.212-0.084,0.402-0.202,0.6-0.315c0.187-0.108,0.354-0.232,0.5-0.393c0.105-0.117,0.243-0.219,0.368-0.313   c0.126-0.098,0.208-0.235,0.326-0.337c0.045-0.04,0.093-0.066,0.135-0.112c0.051-0.059,0.094-0.121,0.141-0.183   c0.054-0.07,0.076-0.166,0.137-0.231c0.06-0.063,0.122-0.124,0.18-0.192c0.014-0.016,0.026-0.031,0.042-0.046   c0.092-0.096,0.192-0.185,0.286-0.278c0.117-0.114,0.248-0.154,0.397-0.2c0.162-0.051,0.334-0.046,0.486,0.034   c0.148,0.079,0.258,0.213,0.347,0.352c0.069,0.108,0.128,0.258,0.11,0.387C35.142,58.133,35.146,58.291,35.068,58.414z    M41.653,48.937c-0.06,0.014-0.119,0.041-0.179,0.057c-0.14,0.037-0.28,0.068-0.414,0.122c-0.21,0.084-0.412,0.189-0.606,0.307   c-0.108,0.066-0.191,0.164-0.294,0.234c-0.097,0.063-0.206,0.18-0.275,0.272c-0.062,0.083-0.117,0.171-0.177,0.256   c-0.102,0.145-0.147,0.297-0.194,0.464c-0.015,0.05-0.045,0.096-0.067,0.144c-0.016,0.034-0.052,0.096-0.081,0.037   c-0.018-0.035,0.019-0.09,0.021-0.127s-0.008-0.081-0.004-0.121c0.008-0.116,0.002-0.237,0.018-0.352   c0.051-0.358,0.34-0.682,0.598-0.914c0.063-0.058,0.14-0.103,0.198-0.166c0.117-0.128,0.269-0.2,0.434-0.253   c0.194-0.062,0.401-0.078,0.604-0.075c0.103,0.001,0.205,0.008,0.307,0.02c0.074,0.008,0.188,0,0.241,0.063   C41.785,48.921,41.66,48.935,41.653,48.937z"></path><path fill="#000000" d="M53.07,34.257c0.055-0.081,0.112-0.159,0.169-0.238c0.128-0.178,0.202-0.385,0.315-0.57   c0.265-0.431,0.454-0.9,0.655-1.363c0.111-0.258,0.158-0.515,0.229-0.783c0.081-0.308,0.143-0.621,0.18-0.937   c0.037-0.306,0.017-0.637-0.022-0.943c-0.017-0.135-0.056-0.266-0.09-0.397c-0.028-0.107-0.029-0.22-0.067-0.323   c-0.054-0.153-0.125-0.301-0.208-0.44c-0.094-0.158-0.213-0.292-0.337-0.428c-0.263-0.29-0.683-0.505-1.078-0.474   c-0.254,0.021-0.49,0.041-0.739,0.11c-0.166,0.046-0.331,0.102-0.497,0.151c-0.159,0.047-0.297,0.075-0.441,0.156   c-0.161,0.088-0.315,0.186-0.466,0.291c-0.272,0.191-0.55,0.344-0.745,0.622c-0.093,0.13-0.227,0.239-0.333,0.361   c-0.164,0.187-0.315,0.382-0.459,0.584c-0.067,0.095-0.141,0.19-0.203,0.288c-0.07,0.11-0.104,0.245-0.166,0.36   c-0.053,0.098-0.125,0.187-0.187,0.28c-0.088,0.132-0.14,0.273-0.197,0.421c-0.108,0.274-0.26,0.533-0.358,0.808   c-0.102,0.284-0.188,0.573-0.262,0.866c0.013-0.055-0.101-0.229-0.124-0.284c-0.196-0.434-0.356-0.901-0.617-1.304   c-0.208-0.322-0.544-0.676-0.823-0.94c-0.128-0.119-0.267-0.226-0.382-0.357c-0.096-0.109-0.202-0.21-0.309-0.311   c-0.1-0.093-0.199-0.215-0.319-0.281c-0.261-0.143-0.506-0.315-0.779-0.441c-0.165-0.078-0.336-0.129-0.507-0.19   c-0.018-0.006-0.037-0.013-0.056-0.021c-0.225-0.084-0.448-0.188-0.69-0.211c-0.145-0.014-0.29,0.013-0.435,0.022   c-0.136,0.01-0.271,0.02-0.405,0.039c-0.103,0.015-0.164,0.054-0.253,0.097c-0.181,0.086-0.361,0.147-0.53,0.258   c-0.313,0.205-0.57,0.489-0.76,0.812c-0.19,0.323-0.376,0.74-0.354,1.119c0.012,0.202-0.073,0.417-0.091,0.62   c-0.02,0.223-0.007,0.447,0.061,0.661c0.079,0.246,0.169,0.49,0.293,0.717c0.059,0.107,0.135,0.203,0.197,0.305   c0.056,0.092,0.097,0.197,0.148,0.293c0.225,0.417,0.451,0.826,0.749,1.198c0.146,0.183,0.291,0.364,0.438,0.544   c0.127,0.157,0.242,0.334,0.401,0.456c0.17,0.128,0.308,0.317,0.456,0.468c0.268,0.271,0.572,0.487,0.872,0.723   c0.066,0.053,0.137,0.111,0.185,0.182c0.04,0.059,0.046,0.125,0.091,0.18c0.131,0.159,0.326,0.29,0.481,0.425   c0.296,0.257,0.589,0.53,0.898,0.766c0.193,0.147,0.389,0.292,0.575,0.449c0.171,0.143,0.309,0.309,0.477,0.455   c0.37,0.322,0.736,0.649,1.091,0.986c0.134,0.127,0.285,0.253,0.39,0.404c0.067,0.097,0.141,0.057,0.221-0.016   c0.152-0.14,0.24-0.332,0.361-0.498c0.06-0.085,0.122-0.169,0.184-0.254c0.057-0.077,0.142-0.159,0.183-0.245   c0.027-0.057,0.036-0.116,0.072-0.172c0.036-0.058,0.081-0.11,0.111-0.17c0.107-0.212,0.204-0.412,0.383-0.572   c0.157-0.141,0.247-0.322,0.385-0.479c0.134-0.153,0.292-0.302,0.457-0.421c0.132-0.096,0.231-0.229,0.328-0.359   c0.088-0.117,0.202-0.207,0.279-0.329c0.202-0.318,0.417-0.627,0.642-0.93c0.086-0.114,0.167-0.25,0.27-0.351   c0.343-0.328,0.648-0.692,0.866-1.116C52.931,34.472,52.998,34.362,53.07,34.257z"></path><path fill="#000000" d="M42.197,15.678c0.031,0.069,0.072,0.134,0.127,0.185c0.064,0.06,0.132,0.116,0.206,0.163   c0.034,0.021,0.072,0.037,0.107,0.057c0.032,0.018,0.061,0.042,0.093,0.062c0.136,0.085,0.27,0.167,0.419,0.228   c0.073,0.029,0.146,0.058,0.22,0.087c0.063,0.025,0.127,0.058,0.194,0.067c0.071,0.01,0.144,0.042,0.213,0.062   c0.123,0.036,0.249,0.048,0.377,0.067c0.029,0.004,0.059,0.01,0.085,0.023c0.021,0.01,0.035,0.029,0.057,0.038   c0.064,0.024,0.146,0.03,0.213,0.044c0.131,0.026,0.262,0.057,0.392,0.075c0.083,0.012,0.165,0.021,0.246,0.036   c0.074,0.014,0.143,0.04,0.216,0.055c0.163,0.033,0.326,0.068,0.486,0.107c0.061,0.016,0.127,0.027,0.183,0.055   c0.035,0.017,0.051-0.007,0.062-0.042c0.022-0.067,0.018-0.138,0.025-0.207c0.004-0.036,0.009-0.071,0.013-0.106   c0.005-0.033,0.017-0.071,0.015-0.104c-0.002-0.021-0.008-0.04-0.007-0.062c0.002-0.023,0.006-0.046,0.005-0.069   c-0.003-0.081-0.007-0.156,0.021-0.233c0.023-0.068,0.021-0.137,0.035-0.206c0.015-0.067,0.037-0.138,0.066-0.2   c0.024-0.051,0.032-0.106,0.04-0.161c0.006-0.049,0.025-0.095,0.028-0.144c0.008-0.128,0.021-0.255,0.038-0.382   c0.007-0.048,0.008-0.102,0.022-0.148c0.048-0.154,0.079-0.312,0.074-0.475c-0.002-0.043,0.001-0.087,0.005-0.131   c0.002-0.033,0.007-0.065,0.01-0.098c0.01-0.074-0.002-0.148,0.002-0.221c0.008-0.172-0.014-0.342-0.03-0.512   c-0.01-0.094-0.036-0.179-0.06-0.27c-0.027-0.104-0.061-0.207-0.101-0.307c-0.039-0.096-0.1-0.19-0.161-0.274   c-0.027-0.037-0.062-0.069-0.093-0.102c-0.025-0.027-0.045-0.06-0.073-0.083c-0.04-0.037-0.087-0.068-0.134-0.096   c-0.054-0.031-0.11-0.05-0.171-0.07c-0.125-0.041-0.285-0.035-0.397,0.041c-0.072,0.048-0.14,0.094-0.202,0.157   c-0.041,0.042-0.081,0.085-0.123,0.127c-0.039,0.04-0.076,0.072-0.105,0.12c-0.033,0.053-0.064,0.108-0.09,0.164   c-0.051,0.102-0.107,0.193-0.12,0.308c-0.006,0.054-0.028,0.108-0.04,0.162c-0.018,0.083-0.031,0.166-0.04,0.25   c-0.005,0.039-0.01,0.08-0.013,0.119c-0.003,0.044,0.009,0.09,0.009,0.135c0.001,0.038-0.006,0.076-0.009,0.113   c-0.004,0.054,0.004,0.104,0.011,0.157c0.013,0.099,0.01,0.201,0.026,0.298c0.016,0.101,0.037,0.201,0.062,0.299   c-0.004-0.019-0.066-0.051-0.082-0.063c-0.13-0.095-0.255-0.206-0.397-0.281c-0.115-0.06-0.272-0.108-0.399-0.139   c-0.057-0.014-0.116-0.022-0.172-0.042c-0.047-0.016-0.095-0.028-0.143-0.04c-0.046-0.011-0.095-0.03-0.142-0.029   c-0.102,0.001-0.202-0.008-0.305,0c-0.062,0.004-0.121,0.018-0.182,0.028c-0.007,0.001-0.013,0.002-0.02,0.003   c-0.081,0.013-0.164,0.021-0.24,0.054c-0.045,0.02-0.084,0.052-0.125,0.079c-0.039,0.025-0.077,0.052-0.114,0.08   c-0.028,0.021-0.04,0.042-0.061,0.071c-0.038,0.056-0.082,0.104-0.114,0.165c-0.06,0.113-0.089,0.239-0.093,0.367   c-0.003,0.127,0.01,0.281,0.078,0.389C42.16,15.538,42.169,15.616,42.197,15.678z"></path></g></svg>