<svg xmlns="http://www.w3.org/2000/svg" xmlns:xlink="http://www.w3.org/1999/xlink" version="1.1" x="0px" y="0px" viewBox="0 0 100 100" style="enable-background:new 0 0 100 100;" xml:space="preserve"><style type="text/css">
	.st0{fill:none;stroke:#000000;stroke-linecap:round;stroke-linejoin:round;stroke-miterlimit:10;}
	.st1{fill:none;stroke:#000000;stroke-linejoin:round;stroke-miterlimit:10;}
	.st2{fill:none;stroke:#000000;stroke-linecap:round;stroke-miterlimit:10;}
</style><g><path d="M94.8,41.6c-0.1-0.2-0.3-0.4-0.5-0.4c-2.5,0-3.9-2.7-5.6-5.9c-1.1-2-2.3-4.3-4-6c1.5-3.9-1.4-6.8-4-9.5   c-2.2-2.2-4-4.1-3.1-6c0.1-0.2,0.1-0.4-0.1-0.6c-0.2-0.2-0.4-0.2-0.6-0.1c-2.6,1.4-5.8,1.1-8.9,0.8c-1.7-0.2-3.3-0.3-4.7-0.2   c0-0.1-0.1-0.2-0.1-0.3c-1.4-1.3-3.3-1-5-0.7c-1.7,0.3-3.2,0.5-4.2-0.7c-0.1-0.2-0.4-0.2-0.6-0.2c-0.2,0.1-0.3,0.3-0.3,0.5   c0,0.9-1.2,1.6-2.4,2.2c-1.1,0.6-2.1,1.1-2.3,2c-1.8-0.1-3.7,0.4-5.5,0.8c-1.1,0.2-2.1,0.5-3.1,0.6C38.2,16,26.5,2.7,5.4,12.8   c-0.2,0.1-0.3,0.3-0.3,0.5c0,0.2,0.2,0.4,0.4,0.4c8.6,2.2,10.8,6.9,13.3,12.3c1.9,4.2,4.1,8.9,9.6,13.1c-0.6,0.4-1.4,0.7-2.3,0.7   c-0.2,0-0.4,0.2-0.5,0.4c0,0.2,0.1,0.5,0.3,0.5c3.1,1,4.1,3.5,5.1,6.1c0,0.1,0.1,0.2,0.1,0.3c-2.4-1.2-10.3-1.1-16.8,3.2   c-4.6,3.1-10,9.4-9.3,22.1c0,0.2,0.2,0.4,0.4,0.5c0,0,0.1,0,0.1,0c0.2,0,0.3-0.1,0.4-0.2c2.3-3.7,6.5-4.7,11.3-5.8   c2.4-0.6,4.9-1.2,7.4-2.1C22.1,73.2,24.7,78,27,82.2c1.2,2.1,2.3,4.1,2.5,6.3c0,0.2,0.2,0.4,0.4,0.4c0,0,0.1,0,0.1,0   c0.2,0,0.4-0.1,0.5-0.3c0.7-1.5,1.7-2.2,3.4-3.4c2.1-1.4,5-3.4,9-7.9c1.2,2.7,3.2,4.7,5,6.7c2,2.1,3.9,4.1,4.7,6.6   c0.1,0.2,0.3,0.4,0.5,0.4c0,0,0,0,0.1,0c0.2,0,0.4-0.2,0.4-0.5c0.2-4.6,2-7,3.8-9.5c1.6-2.1,3.2-4.3,3.9-8c2.7,0.4,5.5,0.8,6.8,2   c0.1,0.1,0.2,0.1,0.3,0.1c0.1,0,0.2,0,0.3-0.1c0.2-0.1,0.3-0.3,0.2-0.5c-0.6-2.6,1.8-4,5.9-6.1c5.1-2.7,11.5-6,9.4-14.4   c0.3,0.1,0.6,0.1,0.9,0.1c0.1,0,0.3,0,0.4,0c2.4-0.3,3.8-3.4,5.2-6.4c1.1-2.4,2.3-4.9,3.8-5.6C94.8,42,94.9,41.8,94.8,41.6z    M67.9,15c2.8,0.3,5.8,0.6,8.5-0.4c-0.2,2.1,1.6,4,3.6,6c2.4,2.4,4.9,4.9,3.9,8c-2.2-1.9-5.2-2.8-9.5-1.5c-0.1,0-0.1,0.1-0.2,0.1   c-1.5-1.7-3.3-3-3.5-3.1c0,0-0.1,0-0.1,0c-0.6-1.2-1.3-2.3-2.3-3.1c-3.5-3.3-8.2-3-8.3-3c0,0,0,0-0.1,0   C60.6,14.4,63.4,14.5,67.9,15z M76.2,32.6c0.7,0.2,1,0.9,1.3,2.1c0.4,1.2,0.8,2.6,2.2,3c-0.6,1.2-0.3,3.1,0,5.2   c0.6,4.2,1.3,8.9-3.9,10.6c-0.1,0-0.2,0.1-0.3,0.2c-0.8-0.4-1.6-0.8-2.3-1.2c0,0,0,0,0,0c5-9.9,0.7-15.5-0.4-16.7   C74.8,35,75.9,33.9,76.2,32.6z M52.2,69.4c0.4,0.6,0.9,1.1,1.5,1.5c-4.2,1.8-7.4-1.3-10.9-4.6c-2.6-2.5-5.4-5.1-8.6-5.4   c0.2-1.1-0.5-2.7-1.2-4.7c-1-2.6-2.2-5.9-1-7.1c0.9,1.9,2.1,3.5,4.6,4.1c-0.2,0-0.4,0.1-0.6,0.1c-0.2,0-0.3,0.2-0.4,0.3   c-0.1,0.2,0,0.4,0.1,0.5c1.5,1.6,3.3,2.4,5.3,2.8c0,0.1,0,0.1,0,0.2c0.2,2.5,2.7,4.8,6.9,6.3c1.3,0.5,2.7,0.8,4.1,1.1   C51.4,66.6,51.4,68.1,52.2,69.4z M48.2,62.6c-3.7-1.3-6-3.3-6.2-5.4c1.6,0.3,3.2,0.3,4.8,0.4c3.9,0.1,7.5,0.3,10,3   c0.1,0.1,0.2,0.2,0.4,0.2c0,0,0.1,0,0.1,0c0.2,0,0.3-0.1,0.4-0.3c2.2-4.7,9.3-3.2,15-2.1c0.6,0.1,1.1,0.2,1.6,0.3   C67.9,64.7,56.1,65.4,48.2,62.6z M72.8,57.3c-5.8-1.2-13-2.6-15.7,2c-2.7-2.5-6.5-2.6-10.2-2.8c-3.5-0.1-7-0.3-9.7-2.4   c2-0.4,3.9-0.7,5.7-1.1c14.7-2.8,24.5-4.7,37.1,4.9C78.7,58.5,75.7,57.9,72.8,57.3z M43.1,44.6c-1.1-1.8-0.6-3.8-0.2-5.9   c0.3-1.5,0.6-3,0.5-4.6c0.7,0.8,1.2,1.6,1.2,2.4c-0.1,1.6,0.1,3.7,1.5,4.9c0.8,0.7,1.7,0.9,2.9,0.8c1.1,2,3.6,3,5.8,3.8   c2.3,0.9,4.3,1.7,4.3,3.3c0,0.2,0.1,0.3,0.2,0.4c-1.7,0-3.4,0.2-5.1,0.4c-1.1-3.7-5.5-4.3-9.4-4.8c-0.6-0.1-1.1-0.2-1.6-0.2   C43.2,44.9,43.2,44.8,43.1,44.6z M53.1,21.2c0.1,0,0.1,0,0.2,0c0.1,0,0.2-0.1,0.3-0.3c3-1.7,6.3-2,6.6-2c0,0,0.1,0,0.3,0   c1,0,4.6,0.2,7.3,2.7c2.2,2.1,3.3,5.2,3.3,9.3c0,1.4-0.6,2.6-1.5,3.5c-0.1-0.3-0.2-0.5-0.4-0.8c-0.9-1.6-1.7-3.4-1.6-7.1   c0-0.2-0.1-0.4-0.4-0.5c-7.3-2.1-13.6-0.5-15.6,2.3c-0.4,0.6-0.6,1.2-0.6,1.8c-0.1,0.1-0.2,0.3-0.1,0.4c0.3,2.2,0.2,3.6,0,4.4   c-1.4-1.3-2.4-3-2.4-5.5c0-2.3,0.6-4.1,1.6-5.5c0,0,0.1-0.1,0.1-0.1C50.9,22.8,52,21.9,53.1,21.2z M72.3,36.7   c1,1.1,4.8,6.2,0.2,15.5c0,0,0,0,0,0.1c-4.2-1.8-8.3-2.5-12.5-2.5c1-0.4,5.9-2.7,6.3-7c0.6-0.9,1.3-0.8,2.6-0.7   c0.9,0.1,2,0.2,2.7-0.5C72.3,40.8,72.5,39.3,72.3,36.7z M60,42.2c-0.9-1.9-3-3.1-5.1-4.4c-1.1-0.6-2.1-1.3-3.1-2   c0.1-0.3,0.3-1.3,0.3-2.8c3.2,3.8,10.1,1.8,12.9,0.5c-0.3,1.4-0.5,3.4,0.5,4c0,0-0.1,0.1-0.1,0.1C63.2,38.8,60.9,40.1,60,42.2z    M61.8,31.1c-0.1-0.1-0.2-0.2-0.4-0.2c0,0,0,0,0,0c-3.2,0.3-4.5-0.3-4.7-0.8c-0.1-0.2,0.1-0.5,0.5-0.7c1.4-0.8,4.5-0.5,7.7,3   c-0.7,0.4-1.9,0.9-3.3,1.2l0.2-2.1C61.9,31.3,61.9,31.2,61.8,31.1z M60.8,31.9l-0.2,1.8c0,0,0,0.1,0,0.1c-1.1,0.2-2.3,0.4-3.5,0.3   c0.1-0.3,0.2-1.4,0-2.6C58.1,31.9,59.3,32,60.8,31.9z M66.4,36.9c0-0.1-0.1-0.3-0.3-0.3c-0.5-0.2-0.3-2.3,0.2-4c0,0,0,0,0,0   c0,0,0,0,0,0c0,0,0,0,0-0.1c0,0,0-0.1,0-0.1c0,0,0-0.1,0-0.1c0,0,0-0.1-0.1-0.1c0,0,0,0,0,0c-4-4.7-7.9-4.5-9.4-3.6   c-0.8,0.5-1.2,1.2-1,1.9c0.1,0.2,0.2,0.3,0.3,0.5c0,0.1,0,0.1,0,0.2c0.5,1.3,0.1,3,0.1,3c-1.4-0.2-2.6-0.8-3.5-1.9   c-0.8-1.1-0.9-2.1-0.2-3.1c1.7-2.4,7.5-3.8,14.1-2c0,3.7,0.9,5.5,1.8,7.2c0.2,0.3,0.3,0.7,0.5,1C68.1,35.9,67.3,36.4,66.4,36.9z    M47.5,29.6c0,5,3.7,7.2,6.9,9.1c2.7,1.6,5.1,3,5.1,5.8l-0.1,3c-0.9-1-2.5-1.7-4.2-2.3c-2.3-0.9-4.6-1.8-5.4-3.6   c-0.1-0.2-0.3-0.3-0.5-0.3c-1,0.2-1.9,0-2.5-0.5c-0.8-0.7-1.2-2.2-1.2-4.1c0.1-1.3-0.8-2.4-1.7-3.4c-1-1.2-1.9-2.3-1.3-3.8   c0.1-0.2,0.2-0.3,0.2-0.5c0.1-0.1,0.2-0.2,0.2-0.4c2.1-3.8,4.6-4.3,5.8-4.3C48,25.6,47.5,27.4,47.5,29.6z M75.3,32   c-0.2,1.4-1.5,2.5-3.8,3.4c-0.2,0.1-0.4,0.3-0.3,0.5c0.3,2.7,0.2,4.3-0.4,4.9c-0.4,0.4-1.1,0.3-1.9,0.2c-1.2-0.1-2.7-0.3-3.6,1.3   c0,0.1-0.1,0.1-0.1,0.2c-0.3,3-3.3,5-4.9,5.9l0.1-3.9c0,0,0,0,0,0c0,0,0,0,0,0c0-2.9,2.6-4.4,5.4-6.1c3-1.8,6.2-3.6,6.2-7.4   c0-1.9-0.3-3.7-0.7-5.2C72.9,27.1,75.6,29.7,75.3,32z M51.2,15.5c1.1-0.5,2.2-1.2,2.7-2.1c1.3,0.9,3,0.6,4.5,0.4   c1.4-0.2,2.8-0.5,3.8,0.2c-1.7,0.4-2.9,1.6-3.3,4c0,0,0,0.1,0,0.1c-1.3,0.2-3.5,0.7-5.6,1.9c-0.8-2.1-2.2-3-3.9-3.3   C49.7,16.3,50.5,15.9,51.2,15.5z M43.1,18.3c4.2-0.9,7.9-1.7,9.4,2.2c-1.1,0.7-2.2,1.6-3,2.7c-1.1-0.1-4.6-0.2-7.3,4.8   c-6.1,0.3-8.3,3.8-10.2,6.9c-1.4-1.6-0.2-4.1,1.8-7.7c0.1-0.2,0.3-0.5,0.4-0.7c0,0,0.1,0,0.1,0c0.2-0.1,0.4-0.4,0.3-0.6   c1.3-2.4,2.4-4.8,1.8-6.8C38.4,19.4,40.8,18.8,43.1,18.3z M19.7,25.6c-2.4-5.1-4.6-10-12.7-12.5c18.6-8.2,29,2.1,31.5,5   c-1,0.1-2,0-2.8-0.3c-0.2-0.1-0.4,0-0.6,0.1s-0.2,0.4-0.1,0.6c0.9,1.6,0.2,3.8-1,6c-0.7-1-2.9-4.5-2.3-7.7c0.1-0.3-0.1-0.5-0.4-0.6   c-0.3-0.1-0.5,0.1-0.6,0.4c-0.4,2,0.1,4,0.8,5.6c-4.8-4.5-13.3-8.4-13.7-8.6c-0.2-0.1-0.5,0-0.7,0.2c-0.1,0.3,0,0.5,0.2,0.7   c0.1,0,7.4,3.4,12.2,7.3c-2-1-5-1.8-9.3-1.8c-0.1,0-0.3,0-0.4,0c-0.3,0-0.5,0.2-0.5,0.5c0,0.3,0.2,0.5,0.5,0.5c0,0,0,0,0,0   c6.9-0.1,10.2,2,11.8,3.6c-1.3-0.4-3.1-0.6-5.3,0.3c-0.3,0.1-0.4,0.4-0.3,0.7c0.1,0.3,0.4,0.4,0.7,0.3c3.4-1.4,5.6,0.1,6.1,0.5   c-0.1,0.1-0.2,0.3-0.2,0.4c-1.9,3.3-3.8,6.8-1.5,9.1c-0.7,1.1-1.3,2-2.1,2.7C23.8,34.4,21.6,29.7,19.7,25.6z M27.8,40.5   c0.5-0.2,1-0.5,1.5-0.8c0.1,0,0.1,0.1,0.2,0.1c0.2,0,0.3-0.1,0.4-0.2c0.1-0.1,0.1-0.3,0.1-0.4c0.9-0.8,1.6-1.9,2.3-3   c0.1,0,0.2-0.1,0.2-0.2c0.1-0.1,0.1-0.2,0.1-0.4c0,0,0-0.1,0.1-0.1c1.8-3,3.7-6,9-6.5c-0.4,0.9-0.3,1.6-0.1,2.3c0,0.1,0,0.3,0,0.4   c1.3,2.1,0.8,4.5,0.3,6.7c-0.4,2.2-0.9,4.4,0.2,6.4c-2.2-0.4-4.1-1-4.7-2.5c-0.1-0.3-0.4-0.4-0.7-0.3c-0.3,0.1-0.4,0.4-0.3,0.7   c1.1,2.6,4.5,3,8.1,3.5c3.7,0.5,7.5,1,8.5,3.9c-3.2,0.4-6.7,1.1-10.4,1.8c-1.5,0.3-3.1,0.6-4.7,0.9c0-0.3-0.2-0.5-0.4-0.6   c-3.5-0.5-4.4-3-5.5-5.8C31.2,44.3,30.2,41.9,27.8,40.5z M17.3,66c-4.5,1.1-8.5,2-11.1,5.1c-0.2-11.2,4.6-17,8.9-19.8   c6-4,13.6-4.2,15.8-3.1c0.2,0.1,0.5,0,0.7-0.2c0,0,0,0,0,0c0,0.1,0.1,0.1,0.1,0.2c-0.9,0.7-1.2,1.7-1.1,3c-1.6-0.7-5.5-2-9.7-0.5   c-0.3,0.1-0.4,0.4-0.3,0.6c0.1,0.3,0.4,0.4,0.6,0.3c2.2-0.8,4.4-0.7,6.2-0.4c-1.4,0.2-3.1,0.6-4.8,1.3c-4.6,1.9-8,5.3-9.4,9.5   c-0.1,0.3,0,0.5,0.3,0.6c0.1,0,0.1,0,0.2,0c0.2,0,0.4-0.1,0.5-0.3c1.7-5.1,5.8-7.7,8.9-8.9c1.4-0.6,2.8-0.9,4-1.1   c-1.7,0.7-3.6,2.1-5.4,4.5c-0.2,0.2-0.1,0.5,0.1,0.7c0.2,0.2,0.5,0.1,0.7-0.1c2.2-3,4.7-4.2,6.4-4.6c-0.8,0.8-1.7,2-2.5,3.9   c-0.1,0.3,0,0.5,0.3,0.7c0.1,0,0.1,0,0.2,0c0.2,0,0.4-0.1,0.5-0.3c1.5-3.3,3-4.2,3.6-4.5c0.3,1.3,0.8,2.6,1.3,4   c0.3,0.7,0.6,1.5,0.8,2.3c-2.3,2.2-4.7,3.6-7.1,4.7c-0.1,0-0.3,0.1-0.4,0.2C22.7,64.8,19.9,65.4,17.3,66z M42.3,76.6   c-4,4.6-6.9,6.5-9,7.9c-1.3,0.9-2.3,1.6-3.1,2.6c-0.5-1.9-1.4-3.6-2.4-5.3c-2.3-4.2-4.9-8.9-1.7-17.3c2.4-1,4.8-2.5,7-4.5   c0.1,0.5,0.1,0.9-0.1,1.1c-0.2,0.1-0.2,0.4-0.2,0.6c0.1,0.2,0.3,0.3,0.5,0.3c0.3,0,0.7,0,1,0.1c-0.9,0.4-2.3,1.5-3.8,4   c-0.1,0.2-0.1,0.5,0.2,0.7c0.1,0,0.2,0.1,0.3,0.1c0.2,0,0.3-0.1,0.4-0.2c1.4-2.2,2.5-3.2,3.2-3.6c-0.6,1.6-2.1,6.2-2.7,14.5   c0,0.3,0.2,0.5,0.5,0.5c0,0,0,0,0,0c0.3,0,0.5-0.2,0.5-0.5c0.5-5.8,1.3-9.8,2-12.2c0,0.2,0,0.4,0,0.5c0,2.6,0,5.2,1.7,8.3   c0.1,0.2,0.4,0.3,0.7,0.2c0.2-0.1,0.3-0.4,0.2-0.7C36,70.8,36,68.4,36,65.8c0-0.4,0-0.9,0-1.3c0.5,0.8,1.2,1.5,2.4,2   c0.3,0.1,0.5,0,0.6-0.3c0.1-0.3,0-0.5-0.3-0.6c-1.8-0.7-2.4-2.4-2.5-3.1c2.1,0.9,4,2.8,5.9,4.6c0.1,0.1,0.3,0.3,0.4,0.4   c0,0,0,0.1-0.1,0.1c-1,3.6-0.8,6.5,0.1,8.9C42.4,76.4,42.4,76.5,42.3,76.6z M56.6,80.4c-1.6,2.2-3.2,4.4-3.8,8   c-1-1.9-2.5-3.5-4.1-5.1c-3.6-3.7-7.2-7.5-5.3-15.2c1.9,1.8,3.8,3.4,6,4c-0.8,0.6-1.9,1.6-2.5,3.3c-0.1,0.3,0,0.5,0.3,0.6   c0.1,0,0.1,0,0.2,0c0.2,0,0.4-0.1,0.5-0.3c0.7-1.7,1.7-2.6,2.4-3c-0.3,1.4-0.6,4.1,0,7.8c0,0.2,0.3,0.4,0.5,0.4c0,0,0,0,0.1,0   c0.3,0,0.5-0.3,0.4-0.6c-0.4-2.5-0.3-4.6-0.2-6c0.3,0.8,0.8,1.7,1.5,2.7c0.2,0.2,0.5,0.3,0.7,0.1c0.2-0.2,0.3-0.5,0.1-0.7   c-1.3-1.8-1.7-3.4-1.8-4.1c1,0,2-0.3,3.1-0.8c0.1,0,0.1-0.1,0.2-0.2c1.6,0.7,3.6,1.1,5.7,1.4C59.7,76.3,58.1,78.4,56.6,80.4z    M83.3,54.2c2,7.7-3.8,10.7-8.9,13.3c-3.3,1.7-6.5,3.3-6.5,6.1c-1.7-0.9-4-1.2-6.5-1.6c-3.5-0.5-7.2-1.1-8.4-3.2   c-0.6-1-0.6-2.4,0-4.1c1.6,0.2,3.3,0.4,4.9,0.4c6.4,0,13.1-1.9,17.2-6.1c0.1-0.1,0.1-0.2,0.1-0.3c2.8,0.5,4.9,0.6,5.8-0.6   c0.2-0.2,0.1-0.5-0.1-0.7c-1.5-1.2-3-2.2-4.5-3.1c1.9-0.7,3.1-1.9,3.8-3.3c1.1,1.3,2.1,2.1,3.1,2.6C83.4,53.8,83.3,54,83.3,54.2z    M89.9,47.3c-1.3,2.7-2.6,5.6-4.4,5.8c-1.2,0.2-2.7-0.8-4.5-2.8c-0.1-0.1-0.2-0.1-0.3-0.2c0.7-2.3,0.3-5,0-7.3   c-0.3-2.3-0.6-4.4,0.2-5.1c0.2-0.1,0.2-0.4,0.1-0.6s-0.3-0.3-0.5-0.3c-1.4,0.1-1.7-0.9-2.1-2.4c-0.4-1.2-0.8-2.6-2.2-2.8   c0-1.2-0.6-2.5-1.5-3.6c4.2-1.2,6.9-0.2,8.9,1.7c0,0,0,0,0.1,0.1c1.6,1.6,2.8,3.8,4,6c1.5,2.8,2.9,5.5,5.2,6.2   C91.8,43.2,90.9,45.2,89.9,47.3z"></path><path d="M76.5,61.8c-2.2,2.3-4.3,3-6.1,3.6c-1.3,0.4-2.5,0.8-3.3,1.8c-0.2,0.2-0.1,0.5,0.1,0.7c0.1,0.1,0.2,0.1,0.3,0.1   c0.1,0,0.3-0.1,0.4-0.2c0.6-0.8,1.6-1.1,2.9-1.5c1.8-0.6,4.1-1.3,6.5-3.9c0.2-0.2,0.2-0.5,0-0.7C77,61.6,76.7,61.6,76.5,61.8z"></path><path d="M53.2,61.5c-4.6,0-6.7-2.3-6.7-2.3c-0.2-0.2-0.5-0.2-0.7,0c-0.2,0.2-0.2,0.5,0,0.7c0.1,0.1,2.4,2.7,7.5,2.7   c0.3,0,0.5-0.2,0.5-0.5S53.5,61.5,53.2,61.5z"></path><path d="M84.3,46c0.2-0.2,0.2-0.5-0.1-0.7c-0.2-0.2-0.5-0.2-0.7,0.1c-0.6,0.8-1.4,2.7,0.3,4.5c0.1,0.1,0.2,0.2,0.4,0.2   c0.1,0,0.2,0,0.3-0.1c0.2-0.2,0.2-0.5,0-0.7C83.1,47.5,84.2,46.1,84.3,46z"></path><path d="M82.6,30.8c-0.2-0.1-0.5,0-0.7,0.2c-0.1,0.2,0,0.5,0.2,0.7c0,0,2.5,1.3,3.7,5.1c0.1,0.2,0.3,0.3,0.5,0.3c0.1,0,0.1,0,0.2,0   c0.3-0.1,0.4-0.4,0.3-0.6C85.4,32.3,82.7,30.9,82.6,30.8z"></path><path d="M54.9,23.2c0.1,0,0.2,0,0.3-0.1c0,0,4.4-3.2,8.3-0.5c0.2,0.2,0.5,0.1,0.7-0.1c0.2-0.2,0.1-0.5-0.1-0.7   c-4.5-3.1-9.4,0.5-9.4,0.5c-0.2,0.2-0.3,0.5-0.1,0.7C54.6,23.1,54.8,23.2,54.9,23.2z"></path><path d="M76.2,21.1c0.4,0.6,0.9,1.3,2.3,2.2c0.1,0,0.2,0.1,0.3,0.1c0.2,0,0.3-0.1,0.4-0.2c0.1-0.2,0.1-0.5-0.2-0.7   c-1.2-0.7-1.6-1.3-2-1.9c-0.3-0.5-0.7-1.1-1.5-1.6c-0.2-0.2-0.5-0.1-0.7,0.1c-0.2,0.2-0.1,0.5,0.1,0.7   C75.6,20.2,75.9,20.6,76.2,21.1z"></path><path d="M41.5,20.6c0.4,0.2,0.8,0.3,1.2,0.3c0.7,0,1.4-0.2,2-0.5c1.1-0.4,2.3-0.8,3.5-0.2c0.2,0.1,0.5,0,0.7-0.3   c0.1-0.3,0-0.5-0.3-0.7c-1.6-0.7-3.1-0.2-4.3,0.2c-1.1,0.4-1.8,0.6-2.4,0.2c-0.2-0.1-0.5-0.1-0.7,0.2   C41.2,20.2,41.3,20.5,41.5,20.6z"></path></g></svg>