<svg xmlns="http://www.w3.org/2000/svg" xmlns:xlink="http://www.w3.org/1999/xlink" version="1.1" x="0px" y="0px" viewBox="0 0 100 100" style="enable-background:new 0 0 100 100;" xml:space="preserve"><path d="M12.1,50.3c-0.2,0.8,0.1,1.6,0.4,2.4c0.5,1.5,0.9,3,1.1,4.6c-1,0.1-1.2,0.3-1,1.1c0.1,0.7,0.5,1.2,1,1.8  c0.4-0.5,0.3-1,0.2-1.5c-0.1-0.5-0.3-1-0.1-1.5c0.4,0.5,0.4,1.1,0.6,1.6c1,2,1.1,4.3,1.5,6.5c0.4,2.3,1,4.5,1.7,6.7  c0.1,0.3,0.2,0.7,0.2,1.1c-0.5,0.1-0.4-0.3-0.5-0.5c-0.1-0.2-0.3-0.4-0.5-0.2c-0.2,0.1-0.1,0.3-0.1,0.5c0.6,1.8,0.9,3.8,1.6,5.6  c0.1,0.1,0.1,0.3,0,0.5c-0.2,0.1-0.3,0-0.4-0.2c-0.7-1.9-1.5-3.7-2.2-5.6c-0.2-0.6-0.2-1.3-0.4-1.9c-0.7-2-1.4-4-1.8-6.1  c-0.7-3.5-1.8-6.9-2.7-10.3c-0.6-2.4-1.4-4.8-2.1-7.2c-0.3-1-0.8-2-1.3-3C6.9,44.7,7.2,45,7.2,45C7,45.3,7,45.2,6.9,45.1  c-0.6-1.1-0.6-2.4-1-3.5c-0.3-1.1-0.6-2.2-0.9-3.3c-0.1-0.3-0.2-0.6-0.6-0.4c-0.3,0.1-0.2,0.4-0.1,0.6c1.6,4.2,2.5,8.7,3.6,13.1  c0.2,0.8,0.8,1.4,0.9,2.2c0.9,3.9,1.9,7.7,2.9,11.6c0.6,2.3,1.4,4.6,2.1,7c0.2,0.6,0.2,1.2,0.5,1.7c0,0.1,0.1,0.2,0,0.2  c-0.6,0.6-0.1,0.8,0.3,1.1c0.2,0.1,0.1,0.4,0.4,0.5c0.2-0.5,0.1-1.1,0.1-1.7c0,1.4,0.4,2.7,0.6,4.1c0,0.2,0.1,0.4-0.1,0.4  c-0.9,0.1-0.6,0.8-0.5,1.2c0.3,0.7,0.3,1.5,0.5,2.3c0.1,0.7,0.2,0.8,0.9,0.5c1.1-0.4,2.2-0.8,3.4-1.1c3.7-1.1,7.4-2.1,11.2-2.8  c1.7-0.3,3.4-0.8,5.1-1.4c3.6-1.2,7.3-2.1,11.1-2.9c1.2-0.3,2.4-0.4,3.6-0.6c0.6-0.1,1-0.4,1.3-0.8c0.1-0.1,0.2-0.3,0.5-0.2  c0.1,1.4,1,1.9,2.3,1.9c0.2,0,0.6,0,0.6,0.4c0,0.3,0.1,0.3,0.3,0.2c0.9-0.2,1.8-0.2,2.6-0.4c1.8-0.3,3.1-1.1,3.8-2.8  c0.1-0.3,0.6-0.5,0.7-1c0.2-0.5,0.6-0.4,1.1-0.3c-0.1,0.5-0.1,0.9-0.2,1.4c-0.1,0.5-0.1,1-0.9,0.8c-0.1,0-0.4,0.1-0.5,0.3  c-0.2,1.2-1.2,1.6-2.1,1.9c-1.9,0.7-3.9,0.8-5.9,0.3c-0.5-0.1-1.1-0.3-1.4-0.7c-0.6-1.1-1.6-0.9-2.4-0.7c-3.4,0.8-6.8,1.4-10.2,2.4  c-1.3,0.4-2.7,0.8-4,1.2c-0.9,0.3-1.9,0.2-2.8,0.6c-1.1,0.4-2.2,0.8-3.3,1c-1.7,0.3-3.2,0.9-4.9,1.3c-1.9,0.5-3.9,1.1-5.8,1.7  c-0.6,0.2-1.3,0.1-1.9,0.6c0,0-0.1,0-0.1,0c-0.9-0.6-1.6,0.2-2.6,0.2c0.2-1.8-0.9-3.2-1.2-4.8c-0.4-2-1.1-3.9-1.4-5.9  c-0.3-1.7-1-3.3-1.4-5c-0.4-1.7-1-3.3-1.3-5c-0.3-2-1-3.9-1.6-5.8c-0.8-3-1.7-6-2.5-9c-0.4-1.3-0.8-2.6-1.2-3.9  c-0.2-0.8-0.5-1.6-0.4-2.4c0-0.3-0.1-0.6-0.2-0.8c-0.1-0.3-0.2-0.6-0.3-0.9c-0.2-1.1-0.7-2.1-1.4-3.2c1.7,0.5,2.9-0.5,4.1-1.1  c0.3-0.1,0.6-0.3,0.7-0.6c0.4-1,0.9-2.1,1-3.2c0.1-0.5,0.3-0.5,0.7-0.6c1.5-0.2,3-0.4,4.5-0.6c1.7-0.2,3.2-1,4.7-1.7  c1.8-0.8,3.8-1.3,5.5-2.4c1.5-0.9,3.1-1.4,4.6-2.3c0.7-0.4,1.4-0.6,2.2-0.9c0.1,0,0.3-0.1,0.4,0c1.5,0.5,3-0.4,4.4-0.5  c0,0,0.1,0,0.1,0c1.8,0,3.5,0.5,5.2,1.2c-0.9,0.3-1.7,0-2.5-0.2c-1.5-0.3-2.9,0-4.4,0.1c-1.8,0.1-3.5,0.5-5.2,1.1  c-1.7,0.6-3.2,1.7-4.8,2.5c-1.6,0.7-3.2,1.6-4.8,2.1c-1.9,0.6-3.7,1.5-5.7,1.9c-1,0.2-2-0.1-2.9,0.2c-0.4,0.1-0.8,0.1-1.1,0.4  c1.6,0.4,3-0.5,4.5-0.4c-0.1,0.4-0.4,0.4-0.7,0.5c-1.2,0.2-2.3,0.5-3.5,0.4c-0.7-0.1-0.8,0.1-0.6,0.8c0.4,1.6,0.4,1.6,2.1,1.2  c1.2-0.3,2.5-0.5,3.7-0.8c0.1,0.5-0.3,0.4-0.5,0.4c-1.3,0.3-2.5,0.6-3.8,0.9c-0.6,0.1-0.7,0.4-0.5,0.9c0.6,1.8,1.2,3.7,1.6,5.5  c0.3,1.2,0.6,2.4,0.9,3.6c0.1,0.6,0.4,1,1.1,0.8c0.1,0,0.2,0,0.3,0.2c-0.2,0.4-0.7,0-1,0.4c0.4,1.6,0.8,3.2,1.2,4.9  c1.3,4.9,2.6,9.8,3.8,14.7c0.4,1.6,0.8,3.2,1.3,4.7c0.2,0.8,0.3,1.5,0.5,2.3c0,0.2-0.1,0.4-0.3,0.5c-0.2,0-0.3-0.1-0.4-0.3  c-0.2-0.5-0.3-0.9-0.5-1.4c-1.1-3.6-2.2-7.2-3.3-10.8c-0.8-2.7-1.6-5.4-2.5-8.1C12.8,52,12.6,51.1,12.1,50.3  c-0.1-0.3-0.3-0.7,0.2-0.9c0.4-0.2,0.4-0.5,0.4-0.9c-0.2-2-0.7-4-1.1-6c-0.1-0.3-0.1-0.8-0.6-0.7c0.1-0.3,0.5-0.6,0-1  c-0.2,0.3,0.1,0.7,0,1c0.6,2,0.9,4.1,1.1,6.1c-1.2-3.2-1.8-6.5-3.4-9.9c0,1.5,0.7,2.6,0.6,3.9c-0.4-0.3-0.5-0.7-0.6-1.2  c-0.1-0.4-0.2-0.9-0.3-1.3c0-0.2-0.1-0.3-0.3-0.3c-0.2,0-0.3,0.2-0.3,0.4c0.1,1,0.4,2,0.8,2.9c0,0.1,0.2,0.1,0.3,0.1  c0.2,0,0.1-0.2,0.1-0.4c0-0.1,0.1-0.2,0.2-0.3c0.2,0.1,0.4,0.4,0.4,0.6c0,0.8,0.3,1.5,0.5,2.3c0.4,1.9,1,3.7,1.6,5.5  C11.7,50.2,11.9,50.4,12.1,50.3z M10.5,48.5c-0.3,0.5-0.2,1,0.3,1.4C10.7,49.4,10.6,48.9,10.5,48.5c-0.3-0.4-0.1-1.1-0.6-1.5  c-0.2,0.6,0.2,1,0.3,1.5C10.2,48.4,10.4,48.4,10.5,48.5z M7,36.9c-0.3-0.2-0.5-0.1-0.7,0c-0.6,0.2-0.8,0.5-0.5,1.2  c0.4,0.8,0.5,1.6,0.8,2.4c0.1,0.5,0.2,1,0.7,1.5c0.3-1-0.1-1.7-0.2-2.5C6.9,38.7,6.8,37.8,7,36.9z M12.4,57.1  c0.7-0.7,0.7-1.4,0.2-2.1c-0.1-0.2-0.2-0.4-0.4-0.3c-0.2,0.1-0.4,0.3-0.3,0.5C12,55.8,12,56.4,12.4,57.1z M14,60.8  c-0.2,1.2,0.5,3.3,1.3,4.2C14.9,63.5,14.7,62.2,14,60.8z M9.2,37.4c0.1-1.2-0.1-1.9-0.6-2.7C7.5,35.9,8.9,36.5,9.2,37.4z M14.2,64.4  c0.2,1.2,0.3,2.4,0.9,3.4C15.1,66.6,14.6,65.5,14.2,64.4z M11.7,54c0.2-0.3,0.2-0.5,0.2-0.7c0-0.2-0.1-0.3-0.3-0.2  c-0.1,0-0.1,0.2-0.1,0.3C11.5,53.5,11.5,53.7,11.7,54z"></path><path d="M96,55.5c-0.4,0-0.3-0.4-0.3-0.6c-0.1-0.8-0.2-1.6-0.2-2.3c0-0.2,0-0.5-0.1-0.6c-0.6-0.8-0.4-1.7-0.4-2.6  c0-1.4-0.4-2.8-0.6-4.3c-0.3-1.8-0.8-3.6-1-5.5c-0.2-2.5-1.2-4.8-1.6-7.3c0-0.2-0.1-0.5-0.2-0.7c0,0.4,0,0.8-0.1,1.3  c-0.7-1-0.5-2.3-1.1-3.4c0.2,2.7,0.5,5.4,1.1,8c0.6-0.4,0.7-0.4,0.7,0.2c0.1,2,0.4,3.9,0.7,5.9c0.2,1.5,0.7,3,0.8,4.5  c0.1,0.7,0.3,1.4,0.1,2.1c-0.1,0.3,0.1,0.5,0.2,0.7c0.1,0.2,0.2,0.5,0.1,0.7c-0.3,1.2-0.2,2.5-0.7,3.7c-0.3,0.6-0.5,1.3-0.9,1.9  c-0.6-0.7-0.2-1.4-0.1-2c0.1-0.7,0.4-1.3,0.4-2c-0.2-0.2-0.5-0.2-0.7,0c-1,1-2.3,1.1-3.6,1.4c-2.1,0.6-4.3,0.4-6.4,0.7  c-1.7,0.3-3.4,0.3-5.1,0.5c-2.5,0.3-4.7,1.3-7,2.3c-1.7,0.8-3.5,1.5-5.2,2.2c-0.4,0.2-0.8,0.3-1.1,0.6c-1.2,0.8-2.6,1-3.9,1.7  c1.5-1.3,3.1-2.4,4.9-3.3c2.2-1,4.4-1.9,6.8-2.6c1.5-0.4,3-0.9,4.5-1.2c2.4-0.5,4.9-0.7,7.3-0.7c1.3,0,2.4-0.5,3.6-0.6  c1.9-0.2,3.6-1,5.3-1.7c0.9-0.3,1.2-1,1-1.9c-0.7-4-1.7-7.9-2.6-11.9c-0.6-3.1-1.2-6.1-1.8-9.2c-0.1-0.4-0.1-0.8-0.5-1.2  c-0.3-0.2-0.3-0.8-0.3-1.2c-0.4-2.3-0.8-4.7-1.3-7c-0.1-0.4-0.1-0.7-0.3-1.1c-1,0.2-1.8,0.8-3,0.7c0.9-0.8,2.2-0.6,2.8-1.5  c-1.3,0.2-2.4,1-4,1.2c1.2-0.9,2.5-0.9,3.5-2c-1.8,0.5-3.4,1-5,1.3c-2,0.4-4.1,0.3-6-0.5c-1-0.4-2-0.4-3-0.5  c-1.3-0.1-2.6-0.5-3.9-0.3c0.2,0.3,0.6,0,0.8,0.6c-2.8-0.1-5.5-0.3-8.4,0.1c0.3-0.7,0.8-0.6,1.1-0.7c2.3-0.4,4.7-0.8,7.1-0.7  c1.7,0.1,3.3,0.4,5,0.6c1.2,0.1,2.3,0.4,3.5,0.7c1.2,0.4,2.5,0.3,3.7-0.2c0.7-0.3,1.4-0.5,2.1-0.6c0.8-0.1,1.6-0.5,2.2-1  c0.1-0.1,0.2-0.2,0.4-0.3c1-0.8,1.3-0.7,1.5,0.6c0,0.2,0,0.3,0.1,0.5c0.1,0.4,0.2,0.8,0.3,1.2c0.7-0.2,1.4-0.5,2.2-0.5  c0.7-0.1,1.1,0.2,1.2,0.9c0.2,1.2,0.3,2.4,0.4,3.7c0.3,2.8,0.8,5.6,1.3,8.4c0.1,0.8,0.3,1.5,0.4,2.3c0.1,0.6,0.2,1,0.6,1.6  c0.4,0.6,0.4,1.5,0.5,2.3c0.2,1.6,0.7,3.2,1,4.8c0,0.1,0,0.3,0.1,0.3c0.8,0.6,0.6,1.4,0.6,2.2c0,0.4,0,0.8,0.1,1.1  c0.8,2.2,0.5,4.6,1.3,6.7c0.7,1.8,0.5,3.7,0.8,5.5c-0.8-2.5-1.4-5-1.8-7.6C95.8,51.9,96.2,53.7,96,55.5L96,55.5z M89.9,22.7  c-0.1-1.3-0.4-2.6-0.7-3.8c-0.1-0.2-0.1-0.4-0.4-0.4c-0.2,0-0.4,0.2-0.4,0.4c0,0.4-0.1,0.8,0.2,1c0.4,0.4,0.5,0.8,0.6,1.3  C89.5,21.8,89.5,22.3,89.9,22.7z M89.6,27.7c0.2-0.3,0-0.5-0.1-0.7C89.5,27.2,89.4,27.5,89.6,27.7z"></path><path d="M89.7,58.1c0.3,0,0.6-0.1,0.8-0.3c0.5-0.4,1-0.3,1.4,0.1c0,0.3-0.3,0.4-0.5,0.4c-0.3,0.1-0.6,0.2-0.8,0.4  c-0.6,1.2-2,1.5-2.9,2.4c2.3-0.4,4.5-1.1,6.8-1.3c-0.8,0.9-2.1,0.7-2.9,1.5c1.3,0,2.5-0.6,3.7-0.9c0.4-0.1,0.6-0.6,1-0.8  c0.4-0.3,0.1-0.7,0-1.1c-0.1-0.3-0.1-0.6,0.3-0.7c0.3,0,0.4,0.3,0.4,0.5c0.1,0.4-0.2,0.8,0.4,1c0.3,0.1,0,0.4,0,0.6  c-0.4,1.6-0.6,1.7-2.2,1.7c-0.9,0-1.8,0.3-2.6,0.5c-2.7,0.6-5.3,1.5-7.9,2.3c-2.5,0.8-5.1,1.3-7.5,2.2c-0.6,0.2-1.2,0.4-1.9,0.3  c-0.3,0-0.6,0-0.8,0.1c-1.7,0.7-3.5,1.2-5.4,1.5c-1.8,0.3-3.4,1.2-5.2,1.7c0.1-0.7,0.6-0.8,1-1c2.6-1,5.3-1.9,8.1-2.5  c0.4-0.1,1,0,1.1-0.6c0.6,0.3,1.1,0.2,1.7,0c0.9-0.3,1.9-0.6,2.8-0.9c1.9-0.5,3.8-1,5.7-1.5c0.3-0.1,0.7,0,0.7-0.5  c-0.2-0.2-0.4,0-0.6,0c-2.1,0.6-4.2,1.3-6.3,1.8c-1.3,0.3-2.6,1-4,1.1c-0.3,0.3-0.6,0.2-1.1,0c4.5-2.4,9.3-3,14.1-4  c-0.4-0.3-0.7-0.2-1-0.1c-0.2,0.1-0.5,0.1-0.8,0.2c0.7-1.1,1.9-1.4,2.7-2.2c-0.5-0.2-0.9,0.1-1.3,0.3c-2.9,1.1-6,1.7-9.1,1.9  c-1.8,0.1-3.6,0.6-5.2,1.3c-2.8,1.2-5.7,2.3-8.4,3.9c-1.5,0.9-3,1.8-4.5,2.8c-0.4,0.3-0.9,0.5-1.6,0.8c0.4-0.6,0.7-0.8,1.1-1.1  c3.8-2.8,8-4.8,12.3-6.5c2.6-1.1,5.4-1.7,8.2-2c2.3-0.2,4.5-0.7,6.6-1.5C87.4,59.4,88.6,58.8,89.7,58.1L89.7,58.1z"></path><path d="M24.2,72.6c-0.5,0.7-1.5,0.5-2.1,1.1c-0.2,0.2-0.5,0.3-0.7,0.4c-0.9,0.4-1.3,1.1-1.2,2.1c0.4,0,0.8-0.3,1.2-0.3  c0.7-0.1,0.9-1.1,1.8-1c0.7,0.1,1.4-0.5,2-0.8c0.7-0.3,1.3-0.7,2-1c0.7-0.3,1.3-0.7,1.9-1.1c0.6-0.4,1.2-0.8,1.9-1.1  c2.2-1,4.2-2.3,6.3-3.4c0.5-0.2,1.2-0.4,1-1.2c0-0.2,0.3-0.3,0.5-0.3c2.1-0.7,4.1-1.3,6.3-1.4c0.1,0,0.2,0.1,0.6,0.1  c-1.4,0.3-2.6,0.5-3.7,0.8c-1.2,0.3-2.4,0.6-3.4,1.5c-1.4,1.3-3.2,2.1-4.9,3.1c-2.7,1.5-5.5,3-8.2,4.4c-1.6,0.8-3.3,1.6-5,2.4  c-0.3,0.2-0.7,0.2-0.7,0.7c0,0.3-0.3,0.7-0.1,0.9c0.3,0.4,0.7,0.1,1,0c0.8-0.3,1.5-0.6,2.3-0.9c0.3-0.1,0.6-0.3,1-0.2  c-0.4,0.7-1.2,0.8-1.8,1.2c0.3,0.3,0.5,0,0.7-0.1c1.5-0.6,2.8-1.3,4.3-1.8c0.7-0.2,1.2-0.8,1.9-1.2c1.8-0.9,3.7-1.6,5.5-2.5  c0.2-0.1,0.4-0.2,0.7-0.3c0.6-0.2,0.7-0.6,0.5-1.1c-0.8-0.2-1.3,0.3-1.9,0.7l0,0c-0.4-0.2-0.4-0.2-0.3-0.3c0.8-0.5,1.5-1.3,2.7-0.9  c0.3,0.1,0.6,0,0.8-0.1c2.2-1,4.5-1.5,6.9-1.7c1.5-0.2,3-0.6,4.5-0.8c1-0.2,2-0.2,3,0c0.6,0.1,1.2,0.2,1.8,0c1-0.3,2,0.4,3,0.5  c0.3,0.1,0.7,0.2,1,0.5c-0.2,0.5-0.5,0.5-1,0.4c-1.6-0.4-3.2-0.5-4.9-0.7c-1.9-0.2-3.7-0.1-5.5,0.3c-2.1,0.4-4.1,1.1-6.2,1.6  c-0.2,0.1-0.5,0.2-0.7,0.3c-1.8,1.3-3.9,2.2-5.9,3.1c-1.9,0.9-3.9,1.8-5.7,2.8c-1.1,0.6-2.3,1.2-3.4,1.7c-0.8,0.4-1.6,0.7-2.5,0.8  c-0.9,0-1.8,0.3-2.7,0.8c-0.3-1,0.2-1.8,0.2-2.7c0.1-0.7,0.3-1.3,0.4-1.9c0.1-0.8,0.1-0.8-0.5-1.3c1.6-0.7,3.2-1.4,4.8-2  C23.7,72.6,23.9,72.5,24.2,72.6C24.2,72.6,24.2,72.6,24.2,72.6z M20.5,79.1c-0.4,0.2-0.9-0.2-1.1,0.3c0,0,0,0.1,0,0.1  C19.9,79.8,20.2,79.5,20.5,79.1z M38.4,71.1c-0.5,0.3-1,0.2-1.2,0.7C37.7,71.6,38.1,71.7,38.4,71.1z"></path><path d="M48,28.1c0.3,0.3,0.4,1,1.1,0.8c0.5-0.1,0.7-0.7,1.4-0.7c-0.5,0.8-1.1,1.4-2,1.5c0.3,0.5,0.6,1,0.7,1.6  c0.1,0.9,0.2,0.9,1.3,0.8c-0.8,0.7-0.6,1.2-0.2,2c0.3,0.6,0.3,1.4,0.4,2.2c0.3,1.2,0.8,2.4,0.9,3.7c0,0.6,0.2,1.2,0.7,1.7  c0.2,0.1,0.1,0.3,0,0.4c-0.3,0.3-0.3,0.5-0.1,0.9c0.3,0.4,0.6,0.1,0.9,0c0.2-0.1,0.4-0.1,0.7-0.2c-0.2,0.6-0.6,0.6-0.9,0.9  c-0.4,0.3-0.4,1.1,0,1.4c0.2,0.2,0.4,0,0.5,0c0.2-0.1,0.3-0.1,0.5,0c0.1,0.3-0.2,0.4-0.4,0.6c-0.2,0.1-0.5,0.2-0.3,0.5  c0.1,0.3,0.3,0.3,0.6,0.3c0.3,0,0.5-0.3,0.8,0c0.1,0.4-0.4,0.4-0.5,0.5c-0.2,0.2-0.6,0.2-0.5,0.6c0.1,0.4,0.3,0.5,0.7,0.4  c0.1,0,0.2,0.1,0.3,0.1c-0.8,1.5-0.7,1.8,0.8,2c-0.3,0.4-1,0.6-0.6,1.2c0.2,0.4,0,1.1,0.7,1.1c0.1,0,0.3,0.1,0.2,0.2  c-0.5,0.7,0.1,1.2,0.2,1.8c0.4,0.2,0.6-0.4,0.9-0.2c0.1,0.2,0,0.3-0.1,0.4c-0.6,0.4-0.5,0.9-0.3,1.5C57,58,57.7,60,58.1,62  c0.1,0.2,0.2,0.4,0.1,0.8c-0.8-0.5-1.5-0.6-2.4-0.4c-0.7,0.1-1.5-0.1-2.2-0.2c-1.7-0.2-3.4-0.5-5.1-0.3c-0.4,0-0.7,0.1-1.1-0.1  c0-0.3,0.3-0.4,0.5-0.4c1.9-0.4,3.8-0.1,5.6,0.2c1.3,0.2,2.5,0.4,3.9,0.2c-0.1-1-0.6-2-0.9-3c-0.7-2.2-1.5-4.3-2.1-6.5  c-0.4-1.6-1.1-3.1-1.6-4.7c-0.1-0.4-0.3-0.5-0.7-0.4c-0.3,0.1-0.6,0.3-0.9,0c0.1-0.3,0.4-0.3,0.6-0.4c0.7-0.2,0.8-0.4,0.4-1.1  c-0.2-0.3-0.6-0.4-0.9-0.7c0.1-0.3,0.7-0.2,0.6-0.8c-0.3-1.2-1.1-1.6-2.3-1.5c0.4-0.7,1.1-0.2,1.5-0.5c-0.1-1-1-0.9-1.6-1.3  c0.1-0.1,0.1-0.2,0.2-0.2c0.5-0.1,1-0.1,0.9-0.8c-0.1-0.8-0.6-1.3-1.2-1.3c-0.3,0-0.7,0.3-1.1-0.1c0.3-0.3,0.8-0.2,1.1-0.3  c0.2,0,0.5,0.1,0.6-0.3c0.1-0.4,0-0.7-0.4-0.9c-0.2-0.1-0.5,0-0.7-0.3c0.1-0.3,0.9-0.1,0.7-0.7c-0.2-0.5-0.4-0.9-1.2-0.8  c1.2-0.6,0.4-1.2,0.2-1.8c-0.2-0.7-0.5-1.3-1.5-1.2c0.9-0.4,0.8-0.9,0.5-1.6c-0.3-0.7-0.5-1.5-0.8-2.2c-0.2-0.6-0.5-1.1-1.3-1.1  c0.2-0.4,0.8-0.1,0.7-0.6c0-0.9,0.5-0.6,1-0.4l0,0C47.5,27.1,47.6,27.7,48,28.1L48,28.1z"></path><path d="M44,47.4c-0.4,0-0.8-0.2-1.1,0.3c-0.1,0.2-0.3,0.1-0.5,0.1c-2.1-0.3-4.2,0.1-6.3,0.2c-2.4,0.2-4.5,1.2-6.4,2.6  c-1.6,1.2-3.5,1.9-5.3,2.5c-1,0.3-2.1,0.6-3.2,0.8C20,54,18.8,54,17.7,53.7c-0.2,0-0.4-0.1-0.4-0.3c0-0.2,0.3-0.3,0.5-0.3  c2.4-0.1,4.8-0.9,7.2-1.2c1-0.1,1.8-0.6,2.6-1.1c0.9-0.6,1.9-1.1,2.9-1.6c1.1-0.6,2.3-1.3,3.4-1.9c1.6-0.9,3.4-1.5,5.3-1.5  c0.2,0,0.3,0,0.5,0c1.6-0.4,3.1,0.3,4.6,0.7c1,0.3,2.1,0.3,3.2,0.5c0.4,0.1,1.1,0,1,0.6c-0.1,0.6-0.7,0.3-1.1,0.2  C46.1,47.8,45.1,47.4,44,47.4z M36.9,46.9c-0.5-0.1-0.9,0-1.3,0.4C36.1,47.4,36.5,47.5,36.9,46.9z"></path><path d="M47,39.3c0,0.2-0.1,0.2-0.2,0.2c-0.6,0,0.1,0.8-0.5,0.7c-0.4-0.1-0.7-0.2-1.1-0.3c-1.3-0.2-2.4-1-3.8-0.7  c-0.1,0-0.3,0-0.4,0c-1.3,0.6-2.8,0.4-4.1,0.6c-1.4,0.3-2.8,0.5-4,1.1c-1.8,0.8-3.5,1.5-5.3,2.2c-0.6,0.2-1.1,0.5-1.7,0.6  c-1.4,0.3-2.7,0.5-4,1c-0.4,0.1-0.7,0.3-1.2,0.1c-0.3-0.2-0.6,0-1,0.1c-0.8,0.3-1.6,0.5-2.5,0.8c-0.3,0.1-0.6,0.2-0.9,0  c0-0.1,0-0.2,0-0.3c0.6-1.1,0.6-1,1.8-1.1c2.9-0.1,5.6-0.9,8.1-2.3c0.5-0.3,1.1-0.6,1.6-1c0.2-0.1,0.5-0.4,0.7-0.2  c0.6,0.6,1.1,0,1.5-0.2c2.8-1.2,5.7-2.2,8.8-2.1c2.2,0.1,4.3-0.1,6.5,0.2C45.9,39,46.5,39,47,39.3z"></path><path d="M14,38.3c0.1-0.4,0.3-0.5,0.6-0.5c1.8,0,3.4-0.8,5-1.1c2.1-0.5,4.2-1.1,6.3-1.8c0.9-0.3,1.6-0.8,2.1-1.6  c0.2-0.5,0.5-0.8,1.2-0.6c0.1,0.1,0.4,0.1,0.5,0c0.8-0.6,1.8-0.9,2.8-1.2c0.6-0.2,1.2-0.3,1.8-0.3c1,0.1,1.9,0,2.8-0.2  c1.2-0.3,2.5-0.5,3.8-0.1c0.5,0.2,1,0,1.5-0.1c1.2-0.2,2.5,0.1,3.7,1c-0.7,0.1-1.3,0.3-1.7,0c-0.6-0.4-1.2-0.3-1.8-0.4  c-0.2,0-0.5,0-0.7,0c-0.5,0.1,0.1,0.4-0.1,0.5c-0.1,0.1-0.3,0.1-0.5,0.1c-1.4,0-2.7,0.1-4.1-0.1c-0.2,0-0.5-0.1-0.7,0  c-1.5,0.4-3,0.7-4.5,1.1c-2,0.5-3.7,1.7-5.5,2.6c-0.6,0.3-1.2,0.6-2,0.6c-1.2,0.1-2.3,0.8-3.5,1c-1.8,0.4-3.7,0.9-5.5,1.2  C14.8,38.6,14.4,38.6,14,38.3z M38.8,31.4c-0.3-0.2-0.5-0.1-0.8,0C38.3,31.6,38.6,31.6,38.8,31.4z"></path><path d="M20.7,63.8c0.8-1.1,2-1.3,3-1.6c1-0.3,2-0.5,2.9-1c0.1-0.1,0.3-0.1,0.4-0.2c1.7-1.5,3.8-2.3,5.6-3.5  c1.6-1.1,3.5-1.8,5.4-2.3c1.6-0.4,3.2-0.8,4.8-1c1.1-0.2,2.2-0.1,3.3,0.3c1,0.4,2,0.2,3,0.3c1,0,1.6,0.4,2,1.4  c-0.1,0-0.2,0.1-0.2,0.1c-0.6-0.5-1.3-0.7-2.1-0.8c-1.9-0.2-3.8-0.5-5.8-0.5c-0.8,0-1.6-0.1-2.4,0.2c-0.3,0.1-0.8-0.1-0.9,0.6  c0,0.1-0.4,0.2-0.7,0.2c-2,0.2-3.8,1.2-5.6,2.1c-0.1,0-0.1,0.1-0.2,0.1c-1.9,0.4-3,1.9-4.6,2.7c-2.4,1.3-4.8,2.5-7.5,3  C21.1,64,20.9,63.9,20.7,63.8z"></path><path d="M56.2,45.2c0-0.8,0.3-1.1,0.7-1.4c0.8-0.8,1.8-1.5,2.8-1.9c1.4-0.6,2.8-1.3,4.1-2.2c0.8-0.6,1.8-0.8,2.8-0.9  c1.3-0.2,2.6-0.2,3.9-0.3c1.3-0.1,2.5,0.2,3.8,0.3c1.1,0.1,2.1-0.1,3.2-0.3c0.8-0.1,1.5-0.3,2.3-0.5c0.2,0,0.5-0.2,0.7-0.1  c1.5,0.4,2.7-0.3,3.9-1c0.6-0.4,1.3-0.7,2-1c0.2-0.1,0.4-0.1,0.5,0.2c0.1,0.2-0.1,0.3-0.2,0.4c-1.1,0.6-2.2,1.3-3.4,1.6  c-1.5,0.4-3,0.9-4.5,1.1c-2,0.2-4.1,0.5-6.1,0.1c-1.8-0.4-3.5,0.3-5.2,0c-1.5,0.7-3.2,1-4.7,1.7c-1.3,0.6-2.4,1.6-3.8,2  c-0.5,0.2-1,0.6-1.3,1.1C57.3,44.6,56.8,44.8,56.2,45.2z"></path><path d="M85.2,28.4c-0.2,0.3-0.5,0.6-0.8,0.8c-2.1,1.2-4.4,2.1-6.9,2.1c-1.2,0-2.4,0-3.6,0.1c-1.1,0.2-2.2-0.3-3.3-0.2  c-0.5,0-1-0.1-1.4,0.3c-0.4,0.3-1,0.2-1.4,0.1c-1.3-0.1-2.6,0-3.9,0.2c-1.8,0.3-3.3,1.2-4.9,2c-1.6,0.8-3,1.8-4.4,2.9  c-0.1,0.1-0.1,0.1-0.2,0.2c-0.2,0.1-0.4,0.2-0.5,0c-0.2-0.2,0-0.4,0.1-0.5c0.7-0.7,1.4-1.3,2.2-2c0.6-0.5,1.2-1,2.1-1.1  c0.8-0.1,1.4-0.8,2.2-1.1c2.1-1,4.3-1.4,6.6-1.1c0.6,0.1,1.2,0.2,1.8-0.2c0.3-0.2,0.6-0.1,0.8-0.1c2.2,0,4.4-0.1,6.5,0  c1.6,0,3.2-0.3,4.7-0.8c0.4-0.1,0.8-0.4,1.2-0.7c0.7-0.6,1.5-1,2.4-1.2C84.8,28.1,85,28.1,85.2,28.4z"></path><path d="M52.2,29.3c0.9-0.8,1.8-1.2,2.6-1.7c0.5-0.3,1-0.5,1.4-0.8c1.7-1.5,3.8-2.3,6-2.8c3-0.8,6.1-0.7,9.2-0.4  c3.3,0.4,6.5,0.4,9.7-0.4c0.5-0.1,1-0.3,1.4-0.7c0.2-0.2,0.4-0.2,0.6-0.4c0.3-0.2,0.7-0.1,0.9,0.2c0.2,0.4-0.3,0.4-0.5,0.5  c-1.9,0.9-3.9,1.2-5.9,1.8c-0.5,0.1-0.9,0-1.3-0.1c-1.5-0.2-3-0.2-4.5-0.3c-2.1,0-4.2-0.2-6.4-0.3c-1.1-0.1-2.3,0.4-3.3,0.8  c-2.7,1-5.2,2.4-7.6,4C53.8,29.1,53.2,29.6,52.2,29.3z"></path><path d="M73,47.4c0.2,0.3,0.5,0.3,0.5,0.6c-0.4,0.2-0.9,0.1-1.4,0c-0.9-0.2-1.7-0.1-2.6,0.1c-0.5,0.2-0.9,0.2-1.4,0.3  c-1.6,0.2-3,1.1-4.4,1.8c-1.8,0.9-3.5,1.8-4.8,3.3c-0.4-0.3-0.2-0.5,0-0.7c1.5-1.2,2.8-2.7,4.8-3.2c0.1,0,0.2-0.1,0.2-0.1  c1.4-1.1,3.1-1.4,4.8-1.9c0.2-0.1,0.4-0.2,0.6-0.2c2,0,4-0.8,6-0.7c3.1,0.2,6.2-0.1,9.2-1.3c0.6-0.2,1.2-0.5,1.8-0.8  c0.2-0.1,0.4-0.2,0.5-0.3c0.3,0,0.6-0.1,0.8,0.2c0.1,0.3-0.2,0.4-0.4,0.5c-1.9,1-3.9,1.4-5.9,2c-1.9,0.6-3.7,0.3-5.6,0.2  C74.8,47.3,74,47.4,73,47.4z"></path><path d="M24.9,71.8c1.1-1.1,2.3-2.1,3.8-2.5c0.7-0.2,1.1-0.7,1.6-1.2c1.1-1.2,2.6-2,4-2.7c2.3-1.2,4.8-2.2,7.4-2.7  c2.5-0.5,5-0.6,7.6-0.4c-0.9,0.4-1.9,0.3-2.9,0.3c-2.3,0-4.4,0.7-6.6,1.3c-0.6,0.2-1.2,0.3-1.7,0.6c-2.7,1.8-5.7,2.8-8.3,4.7  c-1.3,1-2.8,1.9-4.4,2.5C25.2,71.9,25,71.9,24.9,71.8L24.9,71.8z"></path><path d="M47.4,26.6c-0.1-0.4-0.4-0.6-0.8-0.7c-1.6-0.5-3.2-1-4.9-1.4c0.4-0.3,0.7-0.3,1-0.2c1.2,0.3,2.5,0.5,3.6,1.1  c0.5,0.3,0.9,0.2,1.3-0.1c0.8-0.7,1.7-1.2,2.5-2c1.1-1,2.6-1.6,3.9-2.4c1.3-0.7,2.5-1.3,3.9-1.8c0.2-0.1,0.5-0.2,0.7-0.2  c1.5,0.1,2.9-0.4,4.3-0.7c0.4-0.1,0.8,0,1.4-0.1c-0.6,0.6-1.2,0.6-1.7,0.7c-2.6,0.6-5.1,1.5-7.6,2.6c-2.8,1.2-5.2,3-7.6,4.7  C47.4,26.2,47.3,26.4,47.4,26.6C47.4,26.6,47.4,26.6,47.4,26.6z"></path><path d="M61.5,65.2c0.3-0.5,0.8-0.7,1.2-0.9c3.3-2,6.6-3.9,10.1-5.6c0.4-0.2,0.8-0.5,1.3,0c0.2,0.2,0.5,0,0.7-0.1  c1.3-0.2,2.7-0.4,4-0.6c0.6-0.1,1.1,0,1.7,0.2c-0.7,0.1-1.5,0.2-2.2,0.3c-2.8,0.3-5.5,1-8.1,2.1c-1.8,0.7-3.4,1.8-5.1,2.8  c-1.2,0.7-2.4,1.4-3.6,2.1C61.6,65.3,61.5,65.3,61.5,65.2z"></path><path d="M76.2,60.4c-0.6,0.4-1.1,0.5-1.6,0.6c-2.5,0.6-4.8,1.5-7,2.9c-0.5,0.3-0.9,0.6-1.3,0.9c-0.2,0.2-0.4,0.3-0.6,0  c-0.2-0.3,0.1-0.4,0.3-0.5c2.3-1.7,4.9-2.8,7.7-3.5C74.4,60.6,75.1,60.1,76.2,60.4z"></path><path d="M33.8,72.4c0.3-0.1,0.7-0.2,1,0c-3.4,1.5-6.7,2.9-10.2,4.2c0.1-0.5,0.5-0.6,0.8-0.8C28.3,74.7,31.1,73.5,33.8,72.4  C33.8,72.4,33.8,72.4,33.8,72.4z"></path><path d="M52.7,66.8c-2.9,0.3-5.9,0.5-9,0.8C44.9,67,51.2,66.3,52.7,66.8z"></path><path d="M49.7,64.3c1.6-0.3,3.3-0.1,4.9,0.4c-0.5,0.3-1,0.2-1.5,0.1c-0.6,0-1.1-0.1-1.7-0.2c-0.6,0-1.1,0-1.7,0  C49.7,64.6,49.7,64.5,49.7,64.3z"></path><path d="M58.9,63.8c-0.5,1.6-0.6,3.3-1.1,5.2C57.5,67.4,58.1,64.7,58.9,63.8z"></path><path d="M89.7,58c-1-0.1-1.8,0.5-2.7,0.6c-0.3,0-0.7,0.3-1.1,0.1c1-0.6,2.1-1,3.2-1.1C89.5,57.4,89.8,57.5,89.7,58  C89.7,58.1,89.7,58,89.7,58z"></path><path d="M10.2,33.7c1.1-0.2,2.2-0.4,3.4-0.6C12.9,33.7,11.6,34,10.2,33.7z"></path><path d="M77.8,60.3c1.2-0.4,2.3-0.7,3.6-0.4c-1.2,0.2-2.4,0.4-3.6,0.6C77.8,60.4,77.8,60.4,77.8,60.3z"></path><path d="M48,28.1c0.6,0,0.8-0.5,1.2-0.9c0.3-0.3,0.7-0.5,1.3-0.7c-0.2,0.7-0.8,0.9-1.1,1.3C49,28.2,48.5,28.6,48,28.1  C48,28.1,48,28.1,48,28.1z"></path><path d="M50.1,25.4c-0.4,0.8-1.1,1.2-1.9,1.5C48.6,26.1,49.3,25.7,50.1,25.4z"></path><path d="M86,20.2c-0.8,0.5-1.4,0.7-2.1,0.7C84.5,20.3,84.7,20.2,86,20.2z"></path><path d="M17.6,73.9c0.7,0.7,0.4,1.6,0.7,2.3C18.1,75.4,17.9,74.7,17.6,73.9z"></path><path d="M53,50c-0.6-0.1-0.9-0.3-1.3-0.9C52.4,49.1,52.7,49.6,53,50z"></path><path d="M95.9,55.5c0.3,0.6,0.3,1.2,0.2,1.8C95.8,56.9,95.8,56.9,95.9,55.5C96,55.5,95.9,55.5,95.9,55.5z"></path><path d="M87,23.4c0,0.2-0.2,0.3-0.4,0.4c-0.2,0-0.5-0.1-0.5-0.3c0-0.3,0.3-0.3,0.6-0.3C86.9,23.1,87,23.3,87,23.4z"></path><path d="M86.3,56.5c0.2-0.2,0.2-0.2,0.3-0.3c0.2-0.2,0.4-0.3,0.6-0.1c0.1,0.1,0.1,0.1,0.1,0.2c-0.1,0.2-0.3,0.2-0.5,0.2  C86.7,56.5,86.6,56.5,86.3,56.5z"></path><path d="M24.9,71.8c0,0.5-0.2,0.8-0.7,0.8c0,0,0,0,0,0C24.1,72,24.7,72.1,24.9,71.8C24.9,71.8,24.9,71.8,24.9,71.8z"></path><path d="M85.3,22.7c-0.2,0-0.3-0.1-0.3-0.2c0-0.2,0.2-0.3,0.4-0.3c0.1,0,0.2,0.1,0.2,0.2C85.7,22.6,85.5,22.6,85.3,22.7z"></path><path d="M55.7,58.1c-0.3,0-0.5-0.2-0.5-0.4c0,0,0.1-0.1,0.2-0.1C55.7,57.6,55.6,58,55.7,58.1z"></path><path d="M84.6,57.7c-0.1,0.3-0.4,0.4-0.6,0.2c-0.1-0.2,0.2-0.2,0.4-0.3C84.4,57.6,84.5,57.6,84.6,57.7z"></path></svg>