<svg xmlns="http://www.w3.org/2000/svg" xmlns:xlink="http://www.w3.org/1999/xlink" version="1.1" x="0px" y="0px" viewBox="0 0 100 100" enable-background="new 0 0 100 100" xml:space="preserve"><g><path d="M50.137,27.427c-11.725-0.041-21.334,9.441-21.41,21.128C28.649,60.325,38.215,69.961,50,69.985   c11.73,0.024,21.236-9.451,21.275-21.211C71.315,37.025,61.851,27.467,50.137,27.427z M50.061,65.26   c-9.086,0.026-16.493-7.353-16.545-16.48c-0.05-9.105,7.287-16.546,16.399-16.627c9.059-0.079,16.591,7.342,16.646,16.398   C66.617,57.743,59.219,65.233,50.061,65.26z"></path><path d="M19.346,46.369c-1.104-0.047-2.213-0.009-3.32-0.01c-1.218,0-2.437-0.04-3.653,0.01c-1.511,0.062-2.42,1.018-2.382,2.407   c0.037,1.312,0.922,2.223,2.366,2.253c2.323,0.052,4.65,0.053,6.973,0c1.502-0.033,2.435-1.036,2.395-2.402   C21.686,47.335,20.771,46.432,19.346,46.369z"></path><path d="M87.631,46.369c-1.104-0.047-2.213-0.009-3.32-0.01c-1.219,0-2.438-0.04-3.653,0.01c-1.511,0.062-2.42,1.018-2.382,2.406   c0.037,1.312,0.922,2.224,2.366,2.254c2.323,0.052,4.649,0.053,6.974,0c1.502-0.033,2.434-1.036,2.395-2.402   C89.971,47.335,89.057,46.432,87.631,46.369z"></path><path d="M47.663,79.36c-0.047,1.104-0.009,2.213-0.01,3.32c0,1.218-0.04,2.437,0.01,3.653c0.062,1.511,1.018,2.42,2.406,2.382   c1.312-0.037,2.224-0.922,2.254-2.366c0.052-2.323,0.053-4.65,0-6.973c-0.033-1.502-1.036-2.436-2.402-2.396   C48.629,77.021,47.726,77.936,47.663,79.36z"></path><path d="M47.663,11.075c-0.047,1.104-0.009,2.213-0.01,3.32c0,1.219-0.04,2.438,0.01,3.653c0.062,1.511,1.018,2.42,2.406,2.382   c1.312-0.037,2.224-0.922,2.254-2.366c0.052-2.323,0.053-4.649,0-6.974c-0.033-1.502-1.036-2.434-2.402-2.395   C48.629,8.735,47.726,9.649,47.663,11.075z"></path><path d="M29.977,25.378c-0.747-0.814-1.558-1.572-2.34-2.355c-0.861-0.861-1.695-1.751-2.59-2.576   c-1.112-1.024-2.431-0.991-3.386,0.018c-0.901,0.954-0.92,2.224,0.08,3.267c1.605,1.679,3.25,3.325,4.93,4.931   c1.085,1.039,2.455,0.989,3.392-0.005C30.949,27.715,30.94,26.43,29.977,25.378z"></path><path d="M78.262,73.662c-0.747-0.813-1.559-1.571-2.341-2.354c-0.861-0.862-1.695-1.752-2.591-2.576   c-1.111-1.024-2.431-0.991-3.386,0.018c-0.901,0.954-0.92,2.224,0.08,3.267c1.605,1.68,3.25,3.325,4.931,4.931   c1.086,1.039,2.453,0.988,3.392-0.005C79.233,76,79.226,74.715,78.262,73.662z"></path><path d="M26.672,68.729c-0.814,0.747-1.571,1.559-2.355,2.341c-0.861,0.86-1.751,1.694-2.576,2.59   c-1.024,1.112-0.991,2.432,0.017,3.386c0.955,0.902,2.224,0.921,3.267-0.079c1.679-1.606,3.326-3.251,4.93-4.931   c1.039-1.085,0.99-2.455-0.005-3.393C29.009,67.758,27.724,67.767,26.672,68.729z"></path><path d="M74.957,20.444c-0.814,0.747-1.571,1.559-2.355,2.341c-0.861,0.862-1.752,1.695-2.576,2.59   c-1.024,1.112-0.991,2.431,0.018,3.386c0.954,0.902,2.224,0.92,3.267-0.079c1.68-1.606,3.325-3.25,4.932-4.931   c1.038-1.086,0.987-2.454-0.006-3.392C77.294,19.473,76.01,19.481,74.957,20.444z"></path></g></svg>