<svg xmlns="http://www.w3.org/2000/svg" xmlns:xlink="http://www.w3.org/1999/xlink" version="1.1" x="0px" y="0px" viewBox="0 0 144.083 144" enable-background="new 0 0 144.083 144" xml:space="preserve"><path d="M94.215,48.98l-0.428-0.771H52.646v-8.989l14.33-9.093l-17.33-9.631v28.876l-29.884,53.761h104.559L94.215,48.98z   M52.646,25.595l8.461,4.702l-8.461,5.369V25.595z M39.206,100.133l11.939-21.479l11.939,21.479H39.206z M66.519,100.133  L51.146,72.479l-15.373,27.654H24.861l26.299-47.31l26.299,47.31H66.519z M53.696,51.208h38.326l27.199,48.924H80.893L53.696,51.208  z"></path><rect x="93.038" y="111.336" width="8.668" height="3"></rect><rect x="74.872" y="111.336" width="8.668" height="3"></rect><rect x="56.706" y="111.336" width="8.668" height="3"></rect><rect x="38.54" y="111.336" width="8.668" height="3"></rect><rect x="84.038" y="120.504" width="8.668" height="3"></rect><rect x="65.871" y="120.504" width="8.668" height="3"></rect><rect x="47.705" y="120.504" width="8.668" height="3"></rect></svg>