<svg xmlns="http://www.w3.org/2000/svg" xmlns:xlink="http://www.w3.org/1999/xlink" version="1.1" x="0px" y="0px" viewBox="0 0 100 100" enable-background="new 0 0 100 100" xml:space="preserve"><g><path d="M55.273,44.094c-1.005-0.176-2.192-0.041-3.032,0.49c-0.814,0.517-1.709,1.25-2.079,3.078c0,0-0.505-1.519-0.948-2.157   c-1.792-2.585-5.323-1.996-6.945,0.416c-1.231,1.83-1.166,3.883-0.693,5.978c0.146,0.649,0.385,1.279,0.701,1.863   c0.397,0.733,0.886,1.4,1.42,2.032c0.988,1.167,2.135,2.213,3.155,3.338c1.393,1.537,2.544,3.284,3.954,4.8   c0.25-0.561,0.537-1.107,0.836-1.646c0.399-0.723,0.861-1.409,1.349-2.076c0.83-1.136,1.757-2.203,2.543-3.37   c0.852-1.264,1.731-2.559,2.37-3.945C59.179,50.118,59.093,44.762,55.273,44.094z"></path><path d="M98.611,54.994c-0.621-1.391-1.528-3.119-3.252-3.174c-0.978-0.029-1.96,0.339-2.766,0.874   c-0.15,0.102-0.296,0.212-0.436,0.329l0.031-0.029c-0.064-0.069-1.309-1.414-3.849-2.527c0.716-0.041,1.647-0.209,2.359-0.736   c0.412,0.145,1.22,0.164,1.394,0.168c1.15,0.031,2.497-0.117,3.425-0.877c0.451-0.368,0.696-1.056,0.873-1.593   c0.312-0.938,0.271-2.038,0.183-3.01c-1.191,0.61-2.434-0.238-3.652,0.11c-1.969,0.562-3.212,3.029-2.495,4.937   c-1.161,0.812-3.026,0.611-3.093,0.604c-0.326-0.118-0.664-0.232-1.025-0.336c-1.518-0.439-3.057-0.657-4.583-0.707   c0.978-0.381,2.423-1.023,3.056-1.689c0.937-0.285,1.827-0.672,2.642-1.244c1.204-0.844,1.743-1.856,1.568-3.354   c-0.061-0.503-0.18-0.956-0.425-1.395c-0.222-0.476-0.601-1.583-0.601-1.583c-1.003,0.658-2.276,0.914-3.173,1.732   c-0.579,0.529-1.085,1.386-1.165,2.18c-0.062,0.993,0.317,2.83,0.317,2.83c0.05,0.35,0.08,0.79,0.09,0.962   c-1.18,0.814-3.367,1.543-3.394,1.552l0,0c-1.847,0.033-3.662,0.297-5.392,0.702c0.599-0.522,1.435-1.36,1.741-2.185   c2.304,0.176,4.33-2.37,4.558-4.483c0.083-0.784-0.104-1.558-0.195-2.333c-0.029-0.243-0.276-1.188-0.13-1.4   c-0.696,1.013-2.722,1.709-2.722,1.709c-1.043,0.388-2.021,1.002-2.587,1.993c-0.628,1.102-0.299,2.393,0.161,3.494   c0.144,0.345,0.308,0.668,0.527,0.97c0.001,0.001,0.003,0.001,0.004,0.001c-0.394,0.94-1.637,2.019-2.225,2.451   c-2.233,0.589-4.294,1.395-6.048,2.205c0.413-0.591,0.907-1.5,1.004-2.574c0.177-0.006,0.353-0.022,0.529-0.048   c0.956-0.141,1.934-0.526,2.64-1.204c1.241-1.194,0.758-3.085,0.288-4.534c-0.305-0.937-0.656-1.859-1.068-2.753   c-0.294,0.242-0.572,0.5-0.848,0.767c-1.052,1.013-2.213,2.113-2.684,3.535c-0.472,1.423-0.145,2.993,0.764,4.178   c-0.135,1.606-1.273,2.867-1.456,3.059c-1.263,0.599-4.038,1.636-6.777,0.829c0.197-0.322,0.647-0.955,1.277-1.218   c1.349-0.357,2.679-1.154,3.414-2.324c0.926-1.471,0.902-3.343,0.552-4.99c-0.092-0.425-0.212-0.832-0.38-1.231   c-1.167,0.473-2.301,1.084-3.212,1.956c-1.039,0.992-1.668,1.882-1.526,3.382c0.104,1.077,0.772,1.945,0.667,3.034   c-0.601,0.381-1,0.987-1.161,1.271c-0.296-0.107-0.592-0.233-0.883-0.389l-0.178,0.336c0.766,0.405,1.551,0.641,2.326,0.757   c0.014,0.418,0.271,0.89,0.486,1.208c-0.153,1.245,0.269,2.5,0.807,3.609c0.555,1.139,1.248,2.191,2.349,2.868   c1.001,0.617,2.193,0.907,3.345,1.091c0.249,0.04,0.494,0.069,0.746,0.08c0.271,0.01-0.177-2.203-0.21-2.366   c-0.21-1.02-0.425-2.04-0.94-2.96c-0.368-0.658-1.018-1.142-1.745-1.352c-0.893-0.26-1.833,0.004-2.707-0.373   c-0.457-0.197-0.896-0.463-1.297-0.765c-0.194-0.283-0.417-0.678-0.453-0.992c0.281,0.027,0.562,0.042,0.838,0.042   c1.996,0,3.784-0.677,4.763-1.133v0.025c0.729-0.01,2.525,0.108,3.238,0.708c-0.668,3.277,1.678,4.323,1.678,4.323   c2.563,1.075,4.873,0,4.873,0c-0.316-0.538-0.189-2.01-0.189-2.01c-0.062-3.126-4.114-2.833-4.114-2.833   c-0.621,0-1.507,0.182-1.946,0.284c-0.659-0.614-2.032-0.787-2.871-0.836c0.075-0.042,0.117-0.066,0.119-0.067   c2.194-1.021,4.229-1.745,6.109-2.239c0.39,0.128,2.62,0.895,3.708,1.778c0.232,1.274,1,2.756,1.964,3.525   c1.138,0.908,2.577,0.691,3.808,0.099c0.05-0.025,0.946-0.483,0.915-0.551c-0.238-0.516-0.503-1.017-0.758-1.522   c-0.343-0.673-0.703-1.357-1.343-1.79c-0.749-0.504-1.734-0.73-2.628-0.614c-0.144,0.02-1.462,0.28-1.881,0.434   c-0.904-0.665-2.311-1.232-3.116-1.526c3.938-0.937,7.159-0.846,9.688-0.327c0.368,0.314,1.964,1.745,2.456,3.196   c-0.894,1.389-1.378,3.347-0.245,4.755c0.699,0.867,1.705,1.528,2.746,1.914c0.08,0.03,1.507,0.425,1.538,0.261   c0.275-1.457-0.23-3.188-0.866-4.482c-0.528-1.075-1.302-1.845-2.398-2.33c-0.021-0.009-0.214-0.099-0.392-0.168   c-0.377-1.187-1.413-2.328-2.084-2.973c4.197,1.055,6.258,3.238,6.296,3.28l0.012-0.012c0.098,1.517,0.915,2.935,2.241,3.688   c1.301,0.738,2.901,0.778,4.359,0.827c0.383,0.014,0.763,0.018,1.145,0C99.371,56.812,99.015,55.892,98.611,54.994z"></path><path d="M40.795,54.409l-0.178-0.335c-0.292,0.154-0.586,0.279-0.883,0.387c-0.162-0.281-0.56-0.892-1.161-1.271   c-0.104-1.089,0.565-1.955,0.667-3.032c0.142-1.501-0.487-2.391-1.524-3.383c-0.913-0.872-2.046-1.483-3.212-1.957   c-0.17,0.399-0.291,0.807-0.381,1.231c-0.351,1.646-0.375,3.519,0.551,4.99c0.736,1.169,2.066,1.967,3.414,2.323   c0.63,0.265,1.08,0.895,1.276,1.219c-2.732,0.804-5.502-0.229-6.778-0.831c-0.186-0.195-1.319-1.451-1.454-3.057   c0.909-1.185,1.236-2.755,0.765-4.178c-0.472-1.421-1.633-2.521-2.684-3.535c-0.275-0.265-0.554-0.523-0.85-0.766   c-0.411,0.895-0.762,1.817-1.067,2.753c-0.47,1.448-0.954,3.339,0.289,4.534c0.706,0.678,1.683,1.063,2.639,1.204   c0.175,0.026,0.353,0.042,0.53,0.049c0.096,1.072,0.589,1.98,1.002,2.571c-2.172-1.002-4.189-1.72-6.058-2.21   c-0.591-0.437-1.822-1.507-2.215-2.444c0.001,0,0.004,0,0.005,0c0.22-0.302,0.383-0.625,0.527-0.97   c0.46-1.102,0.789-2.392,0.161-3.494c-0.563-0.99-1.543-1.605-2.586-1.993c0,0-2.025-0.697-2.722-1.709   c0.146,0.213-0.101,1.158-0.129,1.401c-0.092,0.775-0.279,1.548-0.194,2.333c0.227,2.113,2.253,4.658,4.557,4.483   c0.305,0.82,1.137,1.656,1.734,2.179c-1.973-0.457-3.769-0.658-5.391-0.679l0.005-0.017c-0.025-0.009-2.214-0.739-3.394-1.553   c0.01-0.171,0.041-0.612,0.09-0.962c0,0,0.379-1.836,0.317-2.829c-0.078-0.794-0.585-1.651-1.164-2.18   c-0.896-0.818-2.169-1.074-3.172-1.732c0,0-0.38,1.108-0.602,1.582c-0.244,0.44-0.365,0.892-0.424,1.396   c-0.177,1.498,0.363,2.51,1.566,3.354c0.816,0.571,1.706,0.959,2.643,1.244c0.644,0.677,2.128,1.33,3.105,1.708   c-1.218,0.042-2.33,0.186-3.333,0.397l-0.007-0.009c-0.002,0.003-0.011,0.01-0.015,0.013c-0.84,0.177-1.604,0.4-2.294,0.648   l-0.003-0.026c-0.021,0.004-1.923,0.219-3.1-0.604c0.719-1.908-0.524-4.374-2.494-4.937c-1.218-0.348-2.459,0.501-3.652-0.109   c-0.09,0.972-0.128,2.072,0.182,3.01c0.178,0.537,0.424,1.226,0.873,1.593c0.927,0.759,2.275,0.908,3.425,0.876   c0.175-0.004,0.983-0.023,1.395-0.167c0.732,0.541,1.701,0.706,2.422,0.739c-2.593,1.12-3.88,2.489-3.912,2.523l0.028,0.024   c-0.139-0.115-0.283-0.225-0.433-0.325c-0.804-0.534-1.789-0.905-2.766-0.874c-1.723,0.055-2.631,1.783-3.252,3.172   c-0.401,0.9-0.758,1.821-1.052,2.761c0.382,0.017,0.761,0.012,1.144,0c1.459-0.05,3.059-0.089,4.361-0.827   c1.324-0.752,2.142-2.171,2.24-3.686l0.012,0.01c0.018-0.021,1.908-2.058,5.729-3.158c0.203-0.06,0.407-0.113,0.612-0.164   c-0.668,0.636-1.744,1.801-2.128,3.015c-0.177,0.07-0.371,0.157-0.392,0.169c-1.095,0.482-1.87,1.253-2.398,2.328   c-0.635,1.294-1.141,3.027-0.866,4.483c0.03,0.164,1.457-0.231,1.539-0.261c1.04-0.385,2.044-1.046,2.744-1.915   c1.134-1.407,0.649-3.364-0.244-4.753c0.512-1.511,2.229-3.007,2.499-3.234c3.272-0.659,6.6-0.361,9.639,0.366   c-0.807,0.294-2.209,0.86-3.111,1.524c-0.419-0.154-1.736-0.414-1.88-0.434c-0.895-0.115-1.88,0.111-2.629,0.616   c-0.64,0.432-1.002,1.116-1.341,1.789c-0.256,0.506-0.522,1.006-0.76,1.521c-0.031,0.068,0.865,0.525,0.916,0.551   c1.23,0.595,2.67,0.809,3.807-0.099c0.964-0.77,1.732-2.251,1.962-3.525c1.085-0.88,3.304-1.643,3.706-1.776   c2.262,0.595,4.344,1.413,6.094,2.227c0.004,0.002,0.053,0.031,0.137,0.078c-0.84,0.048-2.21,0.221-2.87,0.835   c-0.439-0.101-1.325-0.284-1.945-0.284c0,0-4.052-0.291-4.115,2.835c0,0,0.127,1.47-0.19,2.008c0,0,2.312,1.076,4.875,0   c0,0,2.345-1.044,1.677-4.322c0.713-0.601,2.51-0.72,3.239-0.709l0-0.024c0.986,0.458,2.771,1.133,4.765,1.133   c0.274,0,0.554-0.014,0.835-0.043c-0.034,0.315-0.258,0.71-0.452,0.993c-0.401,0.303-0.842,0.566-1.298,0.764   c-0.873,0.377-1.814,0.114-2.707,0.372c-0.726,0.213-1.377,0.696-1.744,1.352c-0.517,0.922-0.731,1.94-0.941,2.962   c-0.034,0.165-0.482,2.376-0.21,2.366c0.25-0.01,0.497-0.039,0.745-0.08c1.152-0.183,2.344-0.474,3.346-1.09   c1.099-0.676,1.794-1.731,2.348-2.87c0.539-1.106,0.959-2.361,0.806-3.609c0.216-0.317,0.473-0.787,0.487-1.208   C39.243,55.049,40.03,54.815,40.795,54.409z"></path></g></svg>